<svg width="1176" height="180" viewBox="0 0 1176 180" fill="none" xmlns="http://www.w3.org/2000/svg">
<g clip-path="url(#clip0_240_621)">
<rect x="-6" width="1446" height="200" fill="url(#paint0_linear_240_621)"/>
<g style="mix-blend-mode:soft-light" opacity="0.5">
<path d="M-887.306 -130.861C-1021.12 -615.761 -525.423 -665.118 -167.694 -518.704C41.025 -443.404 178.094 -677.579 436.655 -584.123C695.217 -490.667 385.255 -196.28 780.886 -45.1928C1176.52 105.894 983.373 781.893 637.586 789.681C291.798 797.469 386.812 911.174 41.0247 1171.29C-304.763 1431.41 -887.305 1070.05 -742.448 688.437C-597.592 306.824 -742.45 394.05 -887.306 -130.861Z" stroke="white" stroke-width="2"/>
<path d="M-143.09 246.511C-158.53 200.327 -86.213 125.82 -28.0626 157.617C25.1868 186.735 79.4116 167.097 115.236 180.078C209.55 214.252 174.858 232.341 217.018 272.928C268.322 322.317 292.803 451.645 174.858 451.645C77.8538 451.645 106.879 498.758 34.241 519.634C-38.3965 540.51 -120.773 504.975 -120.773 411.421C-120.773 376.288 -117.375 323.431 -143.09 246.511Z" stroke="white" stroke-width="2"/>
<path d="M-819.66 -98.9106C-942.712 -543.927 -485.504 -595.57 -155.01 -459.575C39.5754 -388.475 169.113 -603.146 407.426 -517.006C651.056 -428.939 366.119 -159.67 729.615 -18.6284C1093.94 123.214 920.584 749.515 595.51 756.594C272.339 763.674 361.354 871.326 40.3983 1109.7C-280.557 1348.07 -817.63 1016.32 -685.942 660.898C-554.254 310.784 -685.635 385.275 -819.66 -98.9106Z" stroke="white" stroke-width="2"/>
<path d="M-752.013 -66.9583C-864.305 -472.091 -445.586 -526.021 -142.325 -400.446C38.126 -333.544 160.132 -528.711 378.196 -449.887C606.895 -367.21 346.982 -123.059 678.345 7.93735C1011.37 140.534 857.796 717.138 553.434 723.51C252.88 729.882 335.896 831.479 39.7721 1048.1C-256.352 1264.72 -747.955 962.598 -629.436 633.36C-510.917 314.744 -628.819 376.5 -752.013 -66.9583Z" stroke="white" stroke-width="2"/>
<path d="M-684.366 -35.0043C-785.896 -400.254 -405.666 -456.47 -129.641 -341.315C36.6772 -278.611 151.152 -454.275 348.967 -382.767C562.734 -305.479 327.846 -86.446 627.075 34.5048C928.799 157.856 795.007 684.762 511.359 690.427C233.422 696.09 310.438 791.634 39.1463 986.505C-232.146 1181.38 -678.279 908.875 -572.929 605.824C-467.578 318.707 -572.003 367.728 -684.366 -35.0043Z" stroke="white" stroke-width="2"/>
<path d="M-616.719 -3.04788C-707.488 -328.415 -365.747 -386.917 -116.955 -282.181C35.2289 -223.676 142.173 -379.837 319.739 -315.644C518.574 -243.745 308.71 -49.8306 575.806 61.0748C846.227 175.181 732.22 652.39 469.284 657.346C213.964 662.302 284.981 751.792 38.5212 924.914C-207.939 1098.04 -608.603 855.155 -516.421 578.291C-424.24 322.671 -515.187 358.958 -616.719 -3.04788Z" stroke="white" stroke-width="2"/>
<path d="M-549.071 30.5264C-629.078 -254.957 -325.826 -315.746 -104.269 -221.43C33.7813 -167.123 133.194 -303.78 290.511 -246.904C474.415 -180.394 289.576 -11.5973 524.538 89.2625C763.656 194.123 669.433 621.635 427.211 625.883C194.506 630.131 259.525 713.567 37.8968 864.94C-183.732 1016.31 -538.926 803.052 -459.913 552.375C-380.9 328.254 -458.37 351.806 -549.071 30.5264Z" stroke="white" stroke-width="2"/>
<path d="M-481.417 66.0169C-550.664 -179.583 -285.901 -242.658 -91.5785 -158.762C32.3387 -108.653 124.22 -225.808 261.289 -176.247C430.26 -115.127 270.446 28.5522 473.275 119.367C681.09 214.982 606.651 592.796 385.142 596.336C175.054 599.876 234.074 677.259 37.2773 806.882C-159.519 936.505 -469.244 752.866 -403.4 528.376C-337.556 335.753 -401.547 346.57 -481.417 66.0169Z" stroke="white" stroke-width="2"/>
<path d="M-413.766 101.614C-472.251 -104.103 -245.978 -169.464 -78.8897 -95.9881C30.894 -50.0775 115.244 -147.728 232.064 -105.484C386.104 -49.7529 251.314 68.8082 422.009 149.577C598.522 235.947 543.867 564.064 343.07 566.896C155.6 569.728 208.62 641.057 36.6557 748.931C-135.309 856.804 -399.564 702.786 -346.889 504.483C-294.213 343.358 -344.727 341.44 -413.766 101.614Z" stroke="white" stroke-width="2"/>
<path d="M-346.113 137.364C-393.836 -28.4696 -206.052 -96.117 -66.1982 -33.0607C29.4519 8.65157 106.271 -69.4961 202.842 -34.5674C341.95 15.7743 232.185 109.217 370.746 179.941C515.957 257.066 481.086 535.485 301.002 537.609C136.148 539.733 183.17 605.008 36.0367 691.132C-111.096 777.256 -329.881 652.859 -290.375 480.744C-250.868 351.117 -287.905 336.464 -346.113 137.364Z" stroke="white" stroke-width="2"/>
<path d="M-278.454 173.34C-315.416 47.3896 -166.121 -22.5441 -53.5019 30.0925C28.0147 67.6064 97.302 8.96206 173.624 36.5748C297.801 81.5273 213.06 149.852 319.488 210.53C433.396 278.41 418.309 507.132 258.938 508.548C116.701 509.964 157.724 569.186 35.4226 633.56C-86.8785 697.935 -260.194 603.158 -233.856 457.23C-207.519 359.101 -231.077 331.714 -278.454 173.34Z" stroke="white" stroke-width="2"/>
<path d="M-210.786 209.659C-236.987 123.592 -126.18 51.3719 -40.7955 93.5887C26.5875 126.904 88.3435 87.7632 144.417 108.06C253.662 147.623 193.946 190.83 268.24 241.463C350.846 300.097 355.543 479.122 216.885 479.83C97.2642 480.538 132.288 533.706 34.8186 576.331C-62.6508 618.956 -190.496 553.801 -177.328 434.059C-164.159 367.428 -174.24 327.306 -210.786 209.659Z" stroke="white" stroke-width="2"/>
</g>
</g>
<defs>
<linearGradient id="paint0_linear_240_621" x1="245.544" y1="-324.386" x2="77.3945" y2="402.382" gradientUnits="userSpaceOnUse">
<stop stop-color="#11FF37"/>
<stop offset="0.193058"/>
<stop offset="0.780538" stop-color="#11FF37"/>
<stop offset="1"/>
</linearGradient>
<clipPath id="clip0_240_621">
<rect width="1176" height="180" rx="34" fill="white"/>
</clipPath>
</defs>
</svg>
