<svg width="1440" height="469" viewBox="0 0 1440 469" fill="none" xmlns="http://www.w3.org/2000/svg">
<path d="M0 80C0 35.8172 35.8172 0 80 0H1360C1404.18 0 1440 35.8172 1440 80V461H0V80Z" fill="url(#paint0_linear_553_216)"/>
<mask id="mask0_553_216" style="mask-type:alpha" maskUnits="userSpaceOnUse" x="9" y="11" width="1423" height="450">
<path d="M9 69C9 36.9675 34.9675 11 67 11H1374C1406.03 11 1432 36.9675 1432 69V461H9V69Z" fill="url(#paint1_linear_553_216)"/>
</mask>
<g mask="url(#mask0_553_216)">
<g style="mix-blend-mode:soft-light" opacity="0.5">
<path d="M-82.9342 -530.455C-203.028 -904.129 241.846 -942.164 562.897 -829.334C750.216 -771.307 873.232 -951.767 1105.28 -879.747C1337.34 -807.728 1059.15 -580.868 1414.22 -464.437C1769.29 -348.006 1595.95 172.932 1285.61 178.934C975.279 184.935 1060.55 272.559 750.216 473.012C439.882 673.465 -82.9335 394.991 47.0714 100.913C177.076 -193.165 47.0699 -125.947 -82.9342 -530.455Z" stroke="white" stroke-width="2"/>
<path d="M-22.2233 -505.833C-132.66 -848.772 277.672 -888.569 574.281 -783.769C748.916 -728.977 865.172 -894.407 1079.05 -828.026C1297.7 -760.16 1041.98 -552.656 1368.21 -443.966C1695.18 -334.66 1539.6 147.981 1247.85 153.437C957.814 158.893 1037.7 241.851 749.654 425.544C461.606 609.236 -20.4018 353.589 97.7843 79.6907C215.971 -190.114 98.0602 -132.71 -22.2233 -505.833Z" stroke="white" stroke-width="2"/>
<path d="M38.4858 -481.21C-62.2925 -793.414 313.496 -834.973 585.663 -738.203C747.613 -686.646 857.11 -837.046 1052.82 -776.303C1258.07 -712.59 1024.8 -524.442 1322.19 -423.494C1621.07 -321.312 1483.24 123.03 1210.09 127.941C940.349 132.851 1014.85 211.144 749.091 378.076C483.328 545.009 42.1282 312.187 148.496 58.4697C254.863 -187.062 149.049 -139.472 38.4858 -481.21Z" stroke="white" stroke-width="2"/>
<path d="M99.1993 -456.586C8.07889 -738.055 349.324 -781.376 597.05 -692.635C746.315 -644.314 849.053 -779.685 1026.59 -724.579C1218.44 -665.019 1007.63 -496.228 1276.18 -403.021C1546.97 -307.964 1426.9 98.0812 1172.33 102.446C922.888 106.811 992.008 180.439 748.531 330.61C505.054 480.782 104.662 270.787 199.211 37.2498C293.76 -184.009 200.042 -146.232 99.1993 -456.586Z" stroke="white" stroke-width="2"/>
<path d="M159.909 -431.96C78.4469 -682.694 385.15 -727.777 608.433 -647.065C745.014 -601.98 840.993 -722.321 1000.35 -672.853C1178.8 -617.446 990.456 -468.011 1230.17 -382.545C1472.86 -294.613 1370.54 73.1341 1134.57 76.9533C905.423 80.7725 969.16 149.735 747.969 283.147C526.778 416.558 167.193 229.389 249.924 16.032C332.654 -180.954 251.031 -152.99 159.909 -431.96Z" stroke="white" stroke-width="2"/>
<path d="M220.622 -406.087C148.818 -626.086 420.977 -672.931 619.818 -600.249C743.715 -558.399 832.935 -663.71 974.123 -619.88C1139.17 -568.627 973.283 -438.548 1184.16 -360.824C1398.76 -280.016 1314.19 49.4334 1096.81 52.707C887.961 55.9807 946.314 120.278 747.409 236.929C548.503 353.579 229.727 189.237 300.639 -3.93939C371.55 -176.652 302.024 -158.502 220.622 -406.087Z" stroke="white" stroke-width="2"/>
<path d="M281.338 -378.736C219.191 -568.001 456.808 -616.607 631.207 -551.955C742.419 -513.34 824.88 -603.622 947.895 -565.43C1099.54 -518.329 956.113 -407.607 1138.15 -337.624C1324.66 -263.94 1257.85 27.211 1059.05 29.939C870.502 32.667 923.471 92.2997 746.851 192.19C570.232 292.08 292.263 150.564 351.356 -22.4326C410.449 -170.872 353.019 -162.536 281.338 -378.736Z" stroke="white" stroke-width="2"/>
<path d="M342.053 -351.304C289.564 -509.834 492.638 -560.203 642.595 -503.58C741.123 -468.201 816.824 -543.453 921.667 -510.898C1059.91 -467.951 938.943 -376.585 1092.14 -314.343C1250.55 -247.784 1201.5 5.06934 1021.29 7.25177C853.043 9.43414 900.627 64.4017 746.294 147.531C591.96 230.661 354.799 111.971 402.074 -40.845C449.348 -165.011 404.013 -166.489 342.053 -351.304Z" stroke="white" stroke-width="2"/>
<path d="M402.772 -323.755C359.942 -451.549 528.473 -503.68 653.988 -455.087C739.831 -422.943 808.773 -483.165 895.443 -456.249C1020.29 -417.454 921.778 -345.445 1046.13 -290.944C1176.46 -231.51 1145.16 -16.9543 983.539 -15.3175C835.588 -13.6807 877.788 36.6217 745.741 102.991C613.693 169.359 417.34 73.4966 452.796 -59.1393C488.251 -159.033 455.012 -170.324 402.772 -323.755Z" stroke="white" stroke-width="2"/>
<path d="M463.492 -296.031C430.32 -393.091 564.308 -446.983 665.381 -406.42C738.539 -377.511 800.723 -422.704 869.22 -401.425C980.665 -366.784 904.613 -314.131 1000.13 -267.371C1102.36 -215.062 1088.82 -38.8038 945.787 -37.7126C818.133 -36.6214 854.95 9.01581 745.188 58.6242C635.426 108.233 479.88 35.196 503.518 -77.2596C527.155 -152.88 506.012 -173.985 463.492 -296.031Z" stroke="white" stroke-width="2"/>
<path d="M524.223 -268.044C500.709 -334.369 600.154 -390.023 676.785 -357.49C737.259 -331.816 792.683 -361.979 843.008 -346.338C941.052 -315.85 887.458 -282.554 954.135 -243.535C1028.27 -198.35 1032.49 -60.39 908.045 -59.8445C800.689 -59.2989 832.122 -18.3268 744.646 14.5211C657.17 47.3689 542.432 -2.84125 554.251 -95.1166C566.069 -146.464 557.022 -177.382 524.223 -268.044Z" stroke="white" stroke-width="2"/>
</g>
</g>
<path d="M80 0.5H1360C1403.91 0.5 1439.5 36.0934 1439.5 80V460.5H0.5V80C0.5 36.0933 36.0934 0.5 80 0.5Z" stroke="url(#paint2_linear_553_216)" stroke-opacity="0.51"/>
<defs>
<linearGradient id="paint0_linear_553_216" x1="308" y1="-928" x2="-554.214" y2="1091.12" gradientUnits="userSpaceOnUse">
<stop stop-color="#11FF37"/>
<stop offset="0.321481"/>
<stop offset="0.822711" stop-color="#11FF37"/>
<stop offset="1"/>
</linearGradient>
<linearGradient id="paint1_linear_553_216" x1="256.543" y1="-718.868" x2="-455.521" y2="627.221" gradientUnits="userSpaceOnUse">
<stop stop-color="#11FF37"/>
<stop offset="0.193058"/>
<stop offset="0.780538" stop-color="#11FF37"/>
<stop offset="1"/>
</linearGradient>
<linearGradient id="paint2_linear_553_216" x1="364.5" y1="-88.5001" x2="683.5" y2="336" gradientUnits="userSpaceOnUse">
<stop stop-color="white"/>
<stop offset="1" stop-color="white" stop-opacity="0"/>
</linearGradient>
</defs>
</svg>
