<svg width="153" height="40" viewBox="0 0 153 40" fill="none" xmlns="http://www.w3.org/2000/svg">
<g clip-path="url(#clip0_591_517)">
<path d="M19.9771 39.5C16.1218 39.5 12.3531 38.3564 9.14752 36.2137C5.94196 34.071 3.44353 31.0255 1.96818 27.4623C0.492821 23.8992 0.1068 19.9784 0.858931 16.1957C1.61106 12.4131 3.46756 8.93855 6.19367 6.21143C8.91977 3.4843 12.393 1.62711 16.1743 0.874696C19.9555 0.122284 23.8748 0.508449 27.4366 1.98436C30.9985 3.46027 34.0428 5.95963 36.1847 9.16639C38.3266 12.3731 39.4698 16.1433 39.4698 20C39.4638 25.1699 37.4081 30.1263 33.7539 33.7819C30.0996 37.4376 25.145 39.494 19.9771 39.5ZM19.9771 4.04753C16.8232 4.04753 13.7401 4.98313 11.1177 6.73601C8.4953 8.48889 6.45139 10.9803 5.24444 13.8953C4.03749 16.8102 3.72169 20.0177 4.33699 23.1122C4.95229 26.2067 6.47105 29.0491 8.70121 31.2801C10.9314 33.5111 13.7728 35.0304 16.8661 35.646C19.9594 36.2615 23.1657 35.9456 26.0796 34.7382C28.9934 33.5308 31.4839 31.4861 33.2361 28.8627C34.9884 26.2394 35.9236 23.1551 35.9236 20C35.9236 15.7691 34.2435 11.7116 31.253 8.71991C28.2624 5.72824 24.2064 4.04753 19.9771 4.04753Z" fill="#10FF37"/>
<path d="M24.2831 14.7511C23.8324 14.0143 23.1994 13.4063 22.4451 12.9858C21.6909 12.5653 20.841 12.3465 19.9775 12.3506C19.1141 12.3465 18.2642 12.5653 17.5099 12.9858C16.7557 13.4063 16.1226 14.0143 15.672 14.7511L9.17188 25.3177H13.3332L18.6487 16.6122C18.7853 16.3941 18.975 16.2142 19.2002 16.0895C19.4253 15.9648 19.6784 15.8994 19.9358 15.8994C20.1931 15.8994 20.4462 15.9648 20.6714 16.0895C20.8965 16.2142 21.0863 16.3941 21.2229 16.6122L26.5839 25.3177H30.7832L24.2831 14.7511Z" fill="#10FF37"/>
</g>
<path d="M58.9284 14.5L63.7883 23.9196H61.123L59.9839 21.6406H54.266L53.1118 23.9196H50.4844L55.3443 14.5H58.9284ZM57.106 16.2624L55.2456 19.7643H59.0044L57.2123 16.2624H57.106Z" fill="white"/>
<path d="M68.3749 19.0049L69.8252 17.2122H72.2931L69.9315 20.1748L72.893 23.9198H70.3796L68.4508 21.4282L66.4689 23.9198H63.9706L66.8789 20.2432L64.4869 17.2046H66.9852L68.3749 19.0049Z" fill="white"/>
<path d="M76.3405 16.3079H74.0624V14.5H76.3405V16.3079ZM76.3405 23.9044H74.0624V17.2119H76.3405V23.9044Z" fill="white"/>
<path d="M79.7352 22.1196C79.7545 22.19 79.7974 22.2517 79.8567 22.2943C79.9316 22.3567 80.0199 22.4009 80.1148 22.4234C80.2565 22.4578 80.402 22.4731 80.5477 22.469H83.046C83.2881 22.4943 83.5322 22.4439 83.7446 22.3247C83.8045 22.2783 83.8523 22.2182 83.884 22.1495C83.9157 22.0807 83.9304 22.0053 83.9268 21.9296C83.9295 21.8582 83.9151 21.7871 83.8847 21.7223C83.8543 21.6576 83.8089 21.601 83.7522 21.5574C83.5381 21.4346 83.292 21.379 83.046 21.3979L80.0085 21.3447C79.6819 21.3398 79.3565 21.3042 79.0366 21.2384C78.779 21.196 78.5347 21.0946 78.3228 20.9421C78.1246 20.806 77.9692 20.6163 77.8747 20.3952C77.7601 20.1239 77.7057 19.8311 77.7153 19.5368V19.2101C77.7126 18.9215 77.7562 18.6342 77.8444 18.3593C77.9315 18.1132 78.0837 17.8953 78.2848 17.7288C78.5248 17.5353 78.805 17.3977 79.1049 17.3262C79.5201 17.2269 79.9462 17.1809 80.373 17.1895H83.4104C83.8072 17.1851 84.2036 17.2156 84.595 17.2806C84.8959 17.3196 85.184 17.426 85.4379 17.5921C85.6631 17.7421 85.8377 17.9565 85.9391 18.2074C86.0606 18.522 86.1175 18.8579 86.1062 19.1949H83.9876C83.9876 18.8455 83.6079 18.6708 82.8561 18.6708H80.5097C80.2864 18.6465 80.061 18.6916 79.8642 18.7999C79.8092 18.8411 79.7651 18.8952 79.736 18.9575C79.7068 19.0198 79.6935 19.0883 79.6972 19.157C79.6902 19.2182 79.7 19.2802 79.7254 19.3364C79.7508 19.3925 79.7909 19.4408 79.8415 19.476C80.0501 19.5539 80.272 19.59 80.4945 19.5824L83.4408 19.6355C83.8795 19.6339 84.3171 19.6771 84.7469 19.7647C85.0469 19.8209 85.3315 19.94 85.5822 20.1141C85.7856 20.2628 85.9434 20.4654 86.0378 20.699C86.1352 20.9666 86.1815 21.25 86.1745 21.5346V21.8841C86.192 22.1737 86.139 22.4633 86.0199 22.728C85.9009 22.9926 85.7194 23.2244 85.4911 23.4034C84.8912 23.7892 84.1826 23.9704 83.4712 23.9199H80.2667C79.9182 23.9213 79.5702 23.8933 79.2264 23.8363C78.9364 23.7876 78.6596 23.6789 78.4139 23.5173C78.1911 23.3575 78.0133 23.143 77.8975 22.8944C77.7652 22.5852 77.703 22.2506 77.7153 21.9145H79.7124C79.7078 21.9836 79.7155 22.0531 79.7352 22.1196Z" fill="white"/>
<path d="M99.1093 15.0908V16.9671H91.736V18.7067H98.8815V20.5906H91.736V24.518H89.4579V15.0908H99.1093Z" fill="white"/>
<path d="M102.906 16.8988H100.628V15.0908H102.906V16.8988ZM102.906 24.4952H100.628V17.8103H102.906V24.4952Z" fill="white"/>
<path d="M112.344 18.5771C112.628 18.881 112.847 19.2401 112.987 19.6322C113.127 20.0242 113.184 20.4407 113.157 20.856V24.5099H110.894V21.213C110.925 20.7166 110.765 20.227 110.446 19.8457C110.239 19.6652 109.998 19.5295 109.737 19.4471C109.475 19.3647 109.199 19.3375 108.927 19.3671H108.616C108.353 19.3477 108.089 19.3815 107.84 19.4663C107.591 19.5511 107.362 19.6853 107.165 19.8609C106.997 20.0416 106.867 20.2546 106.784 20.487C106.7 20.7195 106.665 20.9665 106.679 21.213V24.5023H104.401V17.8098H106.679V18.7898C106.747 18.6689 106.826 18.5545 106.915 18.4479C107.025 18.3148 107.162 18.2061 107.317 18.1289C107.523 18.0163 107.746 17.9393 107.978 17.901C108.31 17.8337 108.649 17.8032 108.988 17.8098H109.694C110.641 17.7322 111.585 18.0052 112.344 18.5771Z" fill="white"/>
<path d="M118.746 20.2107C119.239 20.2107 119.627 20.2107 119.923 20.2563C120.159 20.2828 120.393 20.3285 120.621 20.393C120.762 20.4347 120.89 20.5104 120.994 20.6133C121.07 20.6988 121.137 20.7932 121.191 20.8944V20.3779C121.195 20.1846 121.167 19.992 121.107 19.8081C121.059 19.6597 120.966 19.5297 120.842 19.4359C120.694 19.3347 120.525 19.2697 120.348 19.246C120.097 19.2101 119.843 19.1924 119.589 19.1928H118.169C117.93 19.189 117.691 19.2042 117.455 19.2384C117.304 19.2531 117.156 19.2889 117.015 19.3447C116.922 19.3774 116.842 19.4386 116.787 19.5195C116.748 19.592 116.727 19.6727 116.726 19.755H114.569C114.55 19.475 114.6 19.1947 114.716 18.9389C114.831 18.6831 115.008 18.4598 115.23 18.2888C115.906 17.9141 116.677 17.7476 117.447 17.8103H119.915C120.428 17.7964 120.94 17.8604 121.434 18.0002C121.794 18.1024 122.129 18.2812 122.414 18.5243C122.649 18.73 122.829 18.9911 122.938 19.284C123.041 19.616 123.092 19.9619 123.089 20.3095V24.4799H121.206V23.7203C121.135 23.8266 121.067 23.9254 121.001 24.0165C120.905 24.1215 120.785 24.2022 120.652 24.252C120.439 24.3331 120.217 24.3892 119.991 24.4192C119.611 24.4637 119.228 24.484 118.845 24.4799H117.326C116.585 24.5343 115.844 24.3818 115.184 24.0393C114.946 23.8698 114.758 23.6394 114.639 23.3722C114.52 23.1049 114.475 22.8106 114.509 22.52V22.1402C114.502 21.8444 114.543 21.5494 114.63 21.2666C114.721 21.0185 114.879 20.8004 115.086 20.6361C115.348 20.4521 115.645 20.3253 115.959 20.2639C116.414 20.1766 116.877 20.1359 117.341 20.1424L118.746 20.2107ZM116.969 22.8923C117.213 22.9765 117.47 23.0152 117.728 23.0062H119.893C120.17 23.0188 120.448 22.9828 120.713 22.8999C120.91 22.8315 121.009 22.6492 121.009 22.3681C121.021 22.2616 121 22.1539 120.948 22.06C120.896 21.9661 120.817 21.8906 120.72 21.844C120.455 21.7505 120.174 21.7093 119.893 21.7224H117.728C117.471 21.7119 117.214 21.7479 116.969 21.8288C116.868 21.874 116.784 21.9512 116.73 22.0486C116.677 22.146 116.657 22.2582 116.673 22.3681C116.658 22.4759 116.678 22.5858 116.732 22.6806C116.785 22.7754 116.869 22.8498 116.969 22.8923Z" fill="white"/>
<path d="M132.521 18.5776C132.809 18.879 133.031 19.2376 133.172 19.6301C133.313 20.0226 133.371 20.4404 133.341 20.8565V24.5104H131.063V21.2135C131.094 20.7171 130.934 20.2275 130.615 19.8462C130.408 19.6657 130.167 19.53 129.905 19.4476C129.644 19.3652 129.368 19.338 129.096 19.3676H128.769C128.506 19.3485 128.241 19.3823 127.991 19.4671C127.74 19.5519 127.509 19.686 127.311 19.8614C127.147 20.0443 127.021 20.258 126.94 20.4901C126.859 20.7223 126.826 20.9682 126.841 21.2135V24.5028H124.563V17.8103H126.841V18.7903C126.906 18.6678 126.985 18.5531 127.076 18.4484C127.185 18.3136 127.322 18.2046 127.479 18.1294C127.682 18.018 127.903 17.941 128.132 17.9015C128.467 17.8346 128.808 17.8041 129.149 17.8103H129.878C130.823 17.731 131.765 18.0043 132.521 18.5776Z" fill="white"/>
<path d="M142.848 23.2338C142.754 23.5157 142.574 23.7605 142.332 23.9327C141.999 24.1533 141.624 24.3009 141.23 24.3656C140.614 24.478 139.989 24.5289 139.362 24.5176H138.345C137.696 24.5295 137.047 24.4761 136.409 24.358C135.974 24.2917 135.562 24.1195 135.209 23.8567C134.92 23.628 134.71 23.3145 134.609 22.9603C134.485 22.5258 134.426 22.0752 134.434 21.6233V20.7573C134.425 20.2974 134.487 19.8388 134.616 19.3976C134.712 19.0401 134.913 18.7197 135.194 18.4784C135.529 18.2162 135.922 18.0367 136.34 17.9543C136.934 17.8275 137.54 17.7689 138.147 17.7796H139.165C139.795 17.7713 140.425 17.8145 141.048 17.9087C141.455 17.9672 141.847 18.1039 142.202 18.3113C142.468 18.4746 142.673 18.7199 142.787 19.0102C142.906 19.3334 142.963 19.6762 142.954 20.0205V20.1572H140.805C140.808 20.0421 140.785 19.9278 140.737 19.823C140.674 19.7148 140.578 19.6296 140.464 19.5799C140.274 19.502 140.075 19.4509 139.871 19.428C139.538 19.3935 139.204 19.3783 138.869 19.3824H138.353C138.031 19.3765 137.71 19.4071 137.396 19.4736C137.17 19.5187 136.957 19.6148 136.773 19.7546C136.62 19.8807 136.509 20.0502 136.454 20.2408C136.379 20.4866 136.345 20.7435 136.355 21.0004V21.441C136.335 21.6562 136.365 21.8732 136.443 22.0748C136.521 22.2765 136.644 22.4574 136.803 22.6033C137.274 22.885 137.822 23.01 138.368 22.9603H138.907C139.239 22.9627 139.571 22.945 139.902 22.9071C140.112 22.883 140.318 22.8239 140.509 22.7324C140.629 22.6816 140.724 22.5863 140.775 22.4665C140.82 22.3504 140.84 22.2263 140.836 22.1019H142.985V22.307C142.984 22.6209 142.938 22.9331 142.848 23.2338Z" fill="white"/>
<path d="M145.992 24.3656C145.558 24.289 145.148 24.1149 144.792 23.8567C144.495 23.63 144.274 23.3169 144.162 22.9603C144.031 22.5271 143.969 22.0758 143.979 21.6233V20.7118C143.972 20.2625 144.031 19.8145 144.154 19.3824C144.261 19.0268 144.473 18.7118 144.762 18.4784C145.092 18.2164 145.48 18.0368 145.893 17.9543C146.471 17.8275 147.063 17.7689 147.655 17.7796H148.733C149.359 17.7711 149.984 17.8194 150.601 17.9239C151.02 17.991 151.418 18.1549 151.763 18.4025C152.052 18.6325 152.26 18.9494 152.355 19.3064C152.472 19.7577 152.526 20.223 152.515 20.689V21.6689H146.045V21.9272C146.04 22.0701 146.066 22.2124 146.123 22.3438C146.179 22.4752 146.264 22.5923 146.371 22.6868C146.726 22.9129 147.145 23.0145 147.564 22.9755H148.976C149.257 22.9755 149.485 22.9755 149.675 22.9755C149.825 22.9672 149.974 22.9364 150.115 22.8843C150.21 22.841 150.29 22.7694 150.343 22.6792C150.393 22.5751 150.416 22.4603 150.411 22.345H152.515V22.4817C152.516 22.7406 152.473 22.9977 152.385 23.2414C152.286 23.5122 152.103 23.7439 151.862 23.9023C151.525 24.1248 151.148 24.2796 150.753 24.358C150.13 24.4943 149.492 24.5555 148.854 24.5404H147.86C147.232 24.551 146.606 24.4924 145.992 24.3656ZM147.51 19.3596C147.253 19.3494 146.996 19.3854 146.751 19.466C146.587 19.5166 146.44 19.6112 146.326 19.7394C146.235 19.8338 146.175 19.9527 146.151 20.0813C146.129 20.1913 146.116 20.3032 146.113 20.4155H150.381C150.392 20.2967 150.392 20.1772 150.381 20.0585C150.346 19.9291 150.278 19.8112 150.183 19.7166C150.051 19.596 149.892 19.5076 149.72 19.4584C149.454 19.3833 149.177 19.3499 148.9 19.3596H147.51Z" fill="white"/>
<defs>
<clipPath id="clip0_591_517">
<rect width="113" height="39" fill="white" transform="translate(0.484375 0.5)"/>
</clipPath>
</defs>
</svg>
