<svg width="569" height="435" viewBox="0 0 569 435" fill="none" xmlns="http://www.w3.org/2000/svg">
<mask id="mask0_513_234" style="mask-type:alpha" maskUnits="userSpaceOnUse" x="4" y="0" width="561" height="427">
<rect width="561" height="427" transform="matrix(-1 0 0 1 565 0)" fill="#67677D" fill-opacity="0.45"/>
</mask>
<g mask="url(#mask0_513_234)">
<g style="mix-blend-mode:soft-light" opacity="0.5">
<path d="M1084.61 35.2341C1170.74 -269.023 851.691 -299.993 621.447 -208.123C487.11 -160.875 398.888 -307.811 232.471 -249.171C66.0531 -190.531 265.553 -5.81375 10.9142 88.9881C-243.725 183.79 -119.412 607.955 103.146 612.841C325.705 617.728 264.551 689.074 487.11 852.289C709.668 1015.5 1084.61 788.762 991.375 549.314C898.141 309.866 991.376 364.597 1084.61 35.2341Z" stroke="white" stroke-width="2"/>
<path d="M605.613 272.021C615.55 243.043 569.005 196.292 531.578 216.244C497.305 234.514 462.404 222.192 439.346 230.337C378.644 251.78 400.972 263.13 373.837 288.597C340.816 319.587 325.06 400.735 400.972 400.735C463.407 400.735 444.726 430.298 491.477 443.396C538.229 456.495 591.248 434.199 591.248 375.496C591.248 353.452 589.062 320.286 605.613 272.021Z" stroke="white" stroke-width="2"/>
<path d="M1041.07 55.2821C1120.27 -223.95 825.998 -256.354 613.282 -171.022C488.042 -126.409 404.668 -261.107 251.283 -207.058C94.4758 -151.799 277.87 17.1576 43.9127 105.656C-190.579 194.657 -79.0002 587.638 130.227 592.081C338.229 596.523 280.936 664.071 487.512 813.639C694.088 963.208 1039.76 755.051 955.005 532.034C870.247 312.35 954.808 359.091 1041.07 55.2821Z" stroke="white" stroke-width="2"/>
<path d="M997.532 75.331C1069.81 -178.876 800.306 -212.714 605.119 -133.921C488.976 -91.9418 410.449 -214.403 270.097 -164.943C122.9 -113.066 290.187 40.1298 76.9126 122.325C-137.432 205.525 -38.5868 567.323 157.309 571.321C350.754 575.319 297.323 639.068 487.916 774.99C678.51 910.911 994.92 721.341 918.637 514.756C842.355 314.836 918.241 353.585 997.532 75.331Z" stroke="white" stroke-width="2"/>
<path d="M953.993 95.381C1019.34 -133.8 774.614 -169.074 596.956 -96.818C489.91 -57.4734 416.23 -167.697 288.911 -122.828C151.324 -74.3321 302.505 63.1031 109.913 138.995C-84.285 216.394 1.82672 547.009 184.391 550.563C363.279 554.117 313.709 614.067 488.32 736.342C662.931 858.616 950.076 687.632 882.269 497.478C814.463 317.322 881.674 348.081 953.993 95.381Z" stroke="white" stroke-width="2"/>
<path d="M910.453 115.432C968.874 -88.7235 748.92 -125.431 588.791 -59.7138C490.841 -23.0036 422.009 -120.989 307.722 -80.7106C179.746 -35.5967 314.82 86.078 142.91 155.667C-31.1406 227.265 42.2377 526.696 211.47 529.806C375.802 532.915 330.093 589.067 488.722 697.695C647.351 806.323 905.229 653.924 845.898 480.202C786.568 319.81 845.104 342.578 910.453 115.432Z" stroke="white" stroke-width="2"/>
<path d="M866.912 136.499C918.407 -42.6319 723.225 -80.7745 580.625 -21.5948C491.772 12.4811 427.787 -73.2667 326.533 -37.5788C208.168 4.15359 327.135 110.068 175.907 173.354C22.0035 239.15 82.6482 507.398 238.549 510.064C388.324 512.729 346.477 565.082 489.123 660.063C631.769 755.044 860.382 621.231 809.527 463.94C758.672 323.312 808.534 338.09 866.912 136.499Z" stroke="white" stroke-width="2"/>
<path d="M823.368 158.768C867.937 4.66279 697.528 -34.9144 572.457 17.7273C492.7 49.1688 433.563 -24.3413 345.341 6.75613C236.586 45.1069 339.447 135.26 208.901 192.243C75.145 252.238 123.056 489.303 265.626 491.524C400.844 493.746 362.857 542.301 489.521 623.634C616.185 704.968 815.533 589.741 773.153 448.882C730.774 328.018 771.961 334.805 823.368 158.768Z" stroke="white" stroke-width="2"/>
<path d="M779.827 181.104C817.469 52.0239 671.833 11.0121 564.291 57.1158C493.631 85.923 439.341 24.6505 364.152 51.1575C265.008 86.1267 351.762 160.519 241.898 211.199C128.289 265.393 163.467 471.275 292.705 473.052C413.367 474.829 379.241 519.585 489.923 587.272C600.604 654.959 770.686 558.318 736.783 433.89C702.879 332.79 735.391 331.586 779.827 181.104Z" stroke="white" stroke-width="2"/>
<path d="M736.282 203.536C766.999 99.4811 646.135 57.0348 556.121 96.6004C494.558 122.773 445.116 73.7385 382.96 95.655C293.426 127.243 364.074 185.875 274.892 230.251C181.43 278.644 203.874 453.343 319.781 454.675C425.886 456.008 395.621 496.966 490.32 551.006C585.019 605.045 725.835 526.991 700.408 418.994C674.98 337.658 698.818 328.464 736.282 203.536Z" stroke="white" stroke-width="2"/>
<path d="M692.735 226.109C716.524 147.08 620.434 103.199 547.949 136.227C495.483 159.765 450.887 122.968 401.764 140.294C321.84 168.5 376.382 211.372 307.882 249.445C234.567 292.037 244.278 435.552 346.853 436.44C438.401 437.329 411.998 474.488 490.715 514.881C569.431 555.274 680.982 495.805 664.03 404.24C647.078 342.668 662.241 325.483 692.735 226.109Z" stroke="white" stroke-width="2"/>
<path d="M649.182 248.898C666.046 194.894 594.728 149.579 539.772 176.068C496.402 196.973 456.654 172.413 420.564 185.149C350.251 209.973 388.686 237.084 340.868 268.854C287.7 305.645 284.677 417.977 373.921 418.421C450.913 418.865 428.37 452.226 491.104 478.972C553.839 505.717 636.124 464.835 627.648 389.701C619.172 347.893 625.66 322.718 649.182 248.898Z" stroke="white" stroke-width="2"/>
</g>
</g>
</svg>
