<svg width="561" height="427" viewBox="0 0 561 427" fill="none" xmlns="http://www.w3.org/2000/svg">
<mask id="mask0_240_295" style="mask-type:alpha" maskUnits="userSpaceOnUse" x="0" y="0" width="561" height="427">
<rect width="561" height="427" transform="matrix(-1 0 0 1 561 0)" fill="#67677D" fill-opacity="0.45"/>
</mask>
<g mask="url(#mask0_240_295)">
<g style="mix-blend-mode:soft-light" opacity="0.5">
<path d="M1080.61 35.2341C1166.74 -269.023 847.691 -299.993 617.447 -208.123C483.11 -160.875 394.888 -307.811 228.471 -249.171C62.0531 -190.531 261.553 -5.81375 6.91418 88.9881C-247.725 183.79 -123.412 607.955 99.1462 612.841C321.705 617.728 260.551 689.074 483.11 852.289C705.668 1015.5 1080.61 788.762 987.375 549.314C894.141 309.866 987.376 364.597 1080.61 35.2341Z" stroke="white" stroke-width="2"/>
<path d="M601.613 272.021C611.55 243.043 565.005 196.292 527.578 216.244C493.305 234.514 458.404 222.192 435.346 230.337C374.644 251.78 396.972 263.13 369.837 288.597C336.816 319.587 321.06 400.735 396.972 400.735C459.407 400.735 440.726 430.298 487.477 443.396C534.229 456.495 587.248 434.199 587.248 375.496C587.248 353.452 585.062 320.286 601.613 272.021Z" stroke="white" stroke-width="2"/>
<path d="M1037.07 55.2821C1116.27 -223.95 821.998 -256.354 609.282 -171.022C484.042 -126.409 400.668 -261.107 247.283 -207.058C90.4758 -151.799 273.87 17.1576 39.9127 105.656C-194.579 194.657 -83.0002 587.638 126.227 592.081C334.229 596.523 276.936 664.071 483.512 813.639C690.088 963.208 1035.76 755.051 951.005 532.034C866.247 312.35 950.808 359.091 1037.07 55.2821Z" stroke="white" stroke-width="2"/>
<path d="M993.532 75.331C1065.81 -178.876 796.306 -212.714 601.119 -133.921C484.976 -91.9418 406.449 -214.403 266.097 -164.943C118.9 -113.066 286.187 40.1298 72.9126 122.325C-141.432 205.525 -42.5868 567.323 153.309 571.321C346.754 575.319 293.323 639.068 483.916 774.99C674.51 910.911 990.92 721.341 914.637 514.756C838.355 314.836 914.241 353.585 993.532 75.331Z" stroke="white" stroke-width="2"/>
<path d="M949.993 95.381C1015.34 -133.8 770.614 -169.074 592.956 -96.818C485.91 -57.4734 412.23 -167.697 284.911 -122.828C147.324 -74.3321 298.505 63.1031 105.913 138.995C-88.285 216.394 -2.17328 547.009 180.391 550.563C359.279 554.117 309.709 614.067 484.32 736.342C658.931 858.616 946.076 687.632 878.269 497.478C810.463 317.322 877.674 348.081 949.993 95.381Z" stroke="white" stroke-width="2"/>
<path d="M906.453 115.432C964.874 -88.7235 744.92 -125.431 584.791 -59.7138C486.841 -23.0036 418.009 -120.989 303.722 -80.7106C175.746 -35.5967 310.82 86.078 138.91 155.667C-35.1406 227.265 38.2377 526.696 207.47 529.806C371.802 532.915 326.093 589.067 484.722 697.695C643.351 806.323 901.229 653.924 841.898 480.202C782.568 319.81 841.104 342.578 906.453 115.432Z" stroke="white" stroke-width="2"/>
<path d="M862.912 136.499C914.407 -42.6319 719.225 -80.7745 576.625 -21.5948C487.772 12.4811 423.787 -73.2667 322.533 -37.5788C204.168 4.15359 323.135 110.068 171.907 173.354C18.0035 239.15 78.6482 507.398 234.549 510.064C384.324 512.729 342.477 565.082 485.123 660.063C627.769 755.044 856.382 621.231 805.527 463.94C754.672 323.312 804.534 338.09 862.912 136.499Z" stroke="white" stroke-width="2"/>
<path d="M819.368 158.768C863.937 4.66279 693.528 -34.9144 568.457 17.7273C488.7 49.1688 429.563 -24.3413 341.341 6.75613C232.586 45.1069 335.447 135.26 204.901 192.243C71.145 252.238 119.056 489.303 261.626 491.524C396.844 493.746 358.857 542.301 485.521 623.634C612.185 704.968 811.533 589.741 769.153 448.882C726.774 328.018 767.961 334.805 819.368 158.768Z" stroke="white" stroke-width="2"/>
<path d="M775.827 181.104C813.469 52.0239 667.833 11.0121 560.291 57.1158C489.631 85.923 435.341 24.6505 360.152 51.1575C261.008 86.1267 347.762 160.519 237.898 211.199C124.289 265.393 159.467 471.275 288.705 473.052C409.367 474.829 375.241 519.585 485.923 587.272C596.604 654.959 766.686 558.318 732.783 433.89C698.879 332.79 731.391 331.586 775.827 181.104Z" stroke="white" stroke-width="2"/>
<path d="M732.282 203.536C762.999 99.4811 642.135 57.0348 552.121 96.6004C490.558 122.773 441.116 73.7385 378.96 95.655C289.426 127.243 360.074 185.875 270.892 230.251C177.43 278.644 199.874 453.343 315.781 454.675C421.886 456.008 391.621 496.966 486.32 551.006C581.019 605.045 721.835 526.991 696.408 418.994C670.98 337.658 694.818 328.464 732.282 203.536Z" stroke="white" stroke-width="2"/>
<path d="M688.735 226.109C712.524 147.08 616.434 103.199 543.949 136.227C491.483 159.765 446.887 122.968 397.764 140.294C317.84 168.5 372.382 211.372 303.882 249.445C230.567 292.037 240.278 435.552 342.853 436.44C434.401 437.329 407.998 474.488 486.715 514.881C565.431 555.274 676.982 495.805 660.03 404.24C643.078 342.668 658.241 325.483 688.735 226.109Z" stroke="white" stroke-width="2"/>
<path d="M645.182 248.898C662.046 194.894 590.728 149.579 535.772 176.068C492.402 196.973 452.654 172.413 416.564 185.149C346.251 209.973 384.686 237.084 336.868 268.854C283.7 305.645 280.677 417.977 369.921 418.421C446.913 418.865 424.37 452.226 487.104 478.972C549.839 505.717 632.124 464.835 623.648 389.701C615.172 347.893 621.66 322.718 645.182 248.898Z" stroke="white" stroke-width="2"/>
</g>
</g>
</svg>
