<svg width="1236" height="455" viewBox="0 0 1236 455" fill="none" xmlns="http://www.w3.org/2000/svg">
<path d="M2 234.5L228.453 234.5C239.499 234.5 248.453 225.546 248.453 214.5L248.453 101.855C248.453 54.4385 286.892 16 334.308 16V16C381.724 16 420.163 54.4385 420.163 101.855L420.163 234.5L420.163 367.145C420.163 414.562 458.601 453 506.017 453V453C553.434 453 591.872 414.562 591.872 367.145L591.872 234.5L591.872 101.855C591.872 54.4385 630.31 16 677.727 16V16C725.143 16 763.581 54.4385 763.581 101.855L763.581 234.5L763.581 367.145C763.581 414.562 802.02 453 849.436 453V453C896.852 453 935.291 414.562 935.291 367.145L935.291 172.5C935.291 161.454 944.245 152.5 955.291 152.5L1234 152.5" stroke="url(#paint0_linear_532_276)" stroke-opacity="0.5" stroke-width="3" stroke-linecap="round" stroke-dasharray="5 8"/>
<path d="M3 234.5L229.453 234.5C240.499 234.5 249.453 225.546 249.453 214.5L249.453 97.7093C249.453 52.5825 286.036 16 331.163 16V16" stroke="url(#paint1_linear_532_276)" stroke-width="3" stroke-linecap="round"/>
<path d="M108.004 246.5C114.907 246.5 120.504 240.904 120.504 234C120.504 227.096 114.907 221.5 108.004 221.5C101.1 221.5 95.5039 227.096 95.5039 234C95.5039 240.904 101.1 246.5 108.004 246.5Z" fill="#10D074" stroke="#0F0F11" stroke-width="5"/>
<path d="M106.578 237.58C106.378 237.58 106.188 237.5 106.048 237.36L103.218 234.53C102.928 234.24 102.928 233.76 103.218 233.47C103.508 233.18 103.988 233.18 104.278 233.47L106.578 235.77L111.718 230.63C112.008 230.34 112.488 230.34 112.778 230.63C113.068 230.92 113.068 231.4 112.778 231.69L107.108 237.36C106.968 237.5 106.778 237.58 106.578 237.58Z" fill="#0F0F11"/>
<path d="M202.004 246.5C208.907 246.5 214.504 240.904 214.504 234C214.504 227.096 208.907 221.5 202.004 221.5C195.1 221.5 189.504 227.096 189.504 234C189.504 240.904 195.1 246.5 202.004 246.5Z" fill="#10D074" stroke="#0F0F11" stroke-width="5"/>
<path d="M200.578 237.58C200.378 237.58 200.188 237.5 200.048 237.36L197.218 234.53C196.928 234.24 196.928 233.76 197.218 233.47C197.508 233.18 197.988 233.18 198.278 233.47L200.578 235.77L205.718 230.63C206.008 230.34 206.488 230.34 206.778 230.63C207.068 230.92 207.068 231.4 206.778 231.69L201.108 237.36C200.968 237.5 200.778 237.58 200.578 237.58Z" fill="#0F0F11"/>
<path d="M250.004 169.5C256.907 169.5 262.504 163.904 262.504 157C262.504 150.096 256.907 144.5 250.004 144.5C243.1 144.5 237.504 150.096 237.504 157C237.504 163.904 243.1 169.5 250.004 169.5Z" fill="#10D074" stroke="#0F0F11" stroke-width="5"/>
<path d="M248.578 160.58C248.378 160.58 248.188 160.5 248.048 160.36L245.218 157.53C244.928 157.24 244.928 156.76 245.218 156.47C245.508 156.18 245.988 156.18 246.278 156.47L248.578 158.77L253.718 153.63C254.008 153.34 254.488 153.34 254.778 153.63C255.068 153.92 255.068 154.4 254.778 154.69L249.108 160.36C248.968 160.5 248.778 160.58 248.578 160.58Z" fill="#0F0F11"/>
<path d="M260.004 67.5C266.907 67.5 272.504 61.9036 272.504 55C272.504 48.0964 266.907 42.5 260.004 42.5C253.1 42.5 247.504 48.0964 247.504 55C247.504 61.9036 253.1 67.5 260.004 67.5Z" fill="#10D074" stroke="#0F0F11" stroke-width="5"/>
<path d="M258.578 58.5796C258.378 58.5796 258.188 58.4996 258.048 58.3596L255.218 55.5296C254.928 55.2396 254.928 54.7596 255.218 54.4696C255.508 54.1796 255.988 54.1796 256.278 54.4696L258.578 56.7696L263.718 51.6296C264.008 51.3396 264.488 51.3396 264.778 51.6296C265.068 51.9196 265.068 52.3996 264.778 52.6896L259.108 58.3596C258.968 58.4996 258.778 58.5796 258.578 58.5796Z" fill="#0F0F11"/>
<path d="M342.004 27.5C348.907 27.5 354.504 21.9036 354.504 15C354.504 8.09644 348.907 2.5 342.004 2.5C335.1 2.5 329.504 8.09644 329.504 15C329.504 21.9036 335.1 27.5 342.004 27.5Z" fill="#10D074" stroke="#0F0F11" stroke-width="5"/>
<path d="M340.578 18.5796C340.378 18.5796 340.188 18.4996 340.048 18.3596L337.218 15.5296C336.928 15.2396 336.928 14.7596 337.218 14.4696C337.508 14.1796 337.988 14.1796 338.278 14.4696L340.578 16.7696L345.718 11.6296C346.008 11.3396 346.488 11.3396 346.778 11.6296C347.068 11.9196 347.068 12.3996 346.778 12.6896L341.108 18.3596C340.968 18.4996 340.778 18.5796 340.578 18.5796Z" fill="#0F0F11"/>
<defs>
<linearGradient id="paint0_linear_532_276" x1="969" y1="234.5" x2="1226.5" y2="234.5" gradientUnits="userSpaceOnUse">
<stop offset="0.524627" stop-color="#797987"/>
<stop offset="1" stop-color="#797987" stop-opacity="0"/>
</linearGradient>
<linearGradient id="paint1_linear_532_276" x1="167.081" y1="16" x2="28.3815" y2="254.013" gradientUnits="userSpaceOnUse">
<stop stop-color="#ACFFB9"/>
<stop offset="0.494792" stop-color="#5FFFF5"/>
<stop offset="1" stop-color="#11FF37"/>
</linearGradient>
</defs>
</svg>
