<svg width="465" height="312" viewBox="0 0 465 312" fill="none" xmlns="http://www.w3.org/2000/svg">
<path d="M0 91.5C0 72.7223 15.2223 57.5 34 57.5H367C385.778 57.5 401 72.7223 401 91.5V266.5C401 285.278 385.778 300.5 367 300.5H34C15.2223 300.5 0 285.278 0 266.5V91.5Z" fill="#17171B" fill-opacity="0.75"/>
<path d="M34 58H367C385.502 58 400.5 72.9985 400.5 91.5V266.5C400.5 285.002 385.502 300 367 300H34C15.4985 300 0.5 285.002 0.5 266.5V91.5C0.5 72.9985 15.4985 58 34 58Z" stroke="#3B3B3D" stroke-opacity="0.44"/>
<g filter="url(#filter0_b_546_208)">
<path d="M33 23.5V17.3149C33 14.8225 33.7046 12.3809 35.0326 10.2717V10.2717C38.6902 4.4627 46.1856 2.42001 52.2847 5.57012L79.6595 19.7087C84.483 22.2 89.8329 23.5 95.2618 23.5H141H249H431C449.778 23.5 465 38.7223 465 57.5V243.5C465 262.278 449.778 277.5 431 277.5H67C48.2223 277.5 33 262.278 33 243.5V23.5Z" fill="url(#paint0_linear_546_208)" fill-opacity="0.74"/>
<path d="M464.5 57.5V243.5C464.5 262.002 449.502 277 431 277H67C48.4985 277 33.5 262.002 33.5 243.5V23.5V17.3149C33.5 14.9168 34.178 12.5675 35.4557 10.5381C38.9749 4.94883 46.1868 2.98341 52.0553 6.01436L79.43 20.153C84.3245 22.6809 89.7531 24 95.2618 24H141H249H431C449.502 24 464.5 38.9985 464.5 57.5Z" stroke="#3B3B3D"/>
</g>
<path d="M85.136 103V91.8H86.816V101.512H93.264V103H85.136ZM97.3481 103.144C96.7615 103.144 96.2441 103.043 95.7961 102.84C95.3481 102.627 94.9961 102.333 94.7401 101.96C94.4841 101.587 94.3561 101.155 94.3561 100.664C94.3561 99.896 94.6495 99.2933 95.2361 98.856C95.8228 98.408 96.6281 98.184 97.6521 98.184C98.4521 98.184 99.1935 98.3387 99.8761 98.648V97.784C99.8761 97.1973 99.7055 96.76 99.3641 96.472C99.0335 96.184 98.5428 96.04 97.8921 96.04C97.5188 96.04 97.1295 96.0987 96.7241 96.216C96.3188 96.3227 95.8655 96.4933 95.3641 96.728L94.7721 95.528C95.3908 95.24 95.9668 95.032 96.5001 94.904C97.0335 94.7653 97.5721 94.696 98.1161 94.696C99.1721 94.696 99.9881 94.9467 100.564 95.448C101.151 95.9493 101.444 96.664 101.444 97.592V103H99.8761V102.296C99.5135 102.584 99.1241 102.797 98.7081 102.936C98.2921 103.075 97.8388 103.144 97.3481 103.144ZM95.8921 100.632C95.8921 101.027 96.0575 101.347 96.3881 101.592C96.7295 101.827 97.1721 101.944 97.7161 101.944C98.1428 101.944 98.5321 101.885 98.8841 101.768C99.2468 101.64 99.5775 101.443 99.8761 101.176V99.8C99.5668 99.6187 99.2415 99.4907 98.9001 99.416C98.5695 99.3307 98.1961 99.288 97.7801 99.288C97.1935 99.288 96.7295 99.4107 96.3881 99.656C96.0575 99.8907 95.8921 100.216 95.8921 100.632ZM106.362 103.16C105.732 103.16 105.178 103.027 104.698 102.76C104.218 102.493 103.844 102.12 103.578 101.64C103.311 101.149 103.178 100.589 103.178 99.96V94.856H104.762V99.688C104.762 100.328 104.943 100.835 105.306 101.208C105.679 101.581 106.175 101.768 106.794 101.768C107.231 101.768 107.62 101.677 107.962 101.496C108.303 101.304 108.58 101.037 108.794 100.696V94.856H110.394V103H108.794V102.168C108.164 102.829 107.354 103.16 106.362 103.16ZM112.288 103V94.856H113.888V95.688C114.517 95.0267 115.333 94.696 116.336 94.696C116.965 94.696 117.514 94.8293 117.984 95.096C118.464 95.3627 118.837 95.736 119.104 96.216C119.381 96.696 119.52 97.2507 119.52 97.88V103H117.92V98.152C117.92 97.512 117.738 97.0107 117.376 96.648C117.024 96.2747 116.528 96.088 115.888 96.088C115.461 96.088 115.077 96.1787 114.736 96.36C114.394 96.5413 114.112 96.8027 113.888 97.144V103H112.288ZM125.19 103.144C124.411 103.144 123.702 102.957 123.062 102.584C122.422 102.211 121.915 101.704 121.542 101.064C121.179 100.424 120.998 99.7093 120.998 98.92C120.998 98.1307 121.185 97.4213 121.558 96.792C121.931 96.152 122.433 95.6453 123.062 95.272C123.702 94.888 124.411 94.696 125.19 94.696C125.809 94.696 126.401 94.8133 126.966 95.048C127.542 95.2827 128.038 95.6133 128.454 96.04L127.462 97.144C127.153 96.8027 126.806 96.5467 126.422 96.376C126.038 96.2053 125.638 96.12 125.222 96.12C124.731 96.12 124.283 96.2427 123.878 96.488C123.483 96.7333 123.169 97.0693 122.934 97.496C122.699 97.9227 122.582 98.3973 122.582 98.92C122.582 99.4427 122.699 99.9173 122.934 100.344C123.169 100.771 123.489 101.112 123.894 101.368C124.299 101.613 124.753 101.736 125.254 101.736C125.67 101.736 126.059 101.656 126.422 101.496C126.785 101.325 127.126 101.08 127.446 100.76L128.422 101.784C127.995 102.221 127.499 102.557 126.934 102.792C126.379 103.027 125.798 103.144 125.19 103.144ZM129.71 103V91.8L131.31 91.448V95.688C131.939 95.0267 132.755 94.696 133.758 94.696C134.387 94.696 134.936 94.8293 135.406 95.096C135.886 95.3627 136.259 95.736 136.526 96.216C136.803 96.696 136.942 97.2507 136.942 97.88V103H135.342V98.152C135.342 97.512 135.16 97.0107 134.798 96.648C134.435 96.2747 133.939 96.088 133.31 96.088C132.883 96.088 132.499 96.1787 132.158 96.36C131.816 96.5413 131.534 96.8027 131.31 97.144V103H129.71ZM138.788 103V94.856H140.388V103H138.788ZM139.588 93.544C139.321 93.544 139.092 93.448 138.9 93.256C138.708 93.0533 138.612 92.8187 138.612 92.552C138.612 92.2747 138.708 92.0453 138.9 91.864C139.092 91.672 139.321 91.576 139.588 91.576C139.865 91.576 140.1 91.672 140.292 91.864C140.484 92.0453 140.58 92.2747 140.58 92.552C140.58 92.8187 140.484 93.0533 140.292 93.256C140.1 93.448 139.865 93.544 139.588 93.544ZM142.272 103V94.856H143.872V95.688C144.501 95.0267 145.317 94.696 146.32 94.696C146.949 94.696 147.499 94.8293 147.968 95.096C148.448 95.3627 148.821 95.736 149.088 96.216C149.365 96.696 149.504 97.2507 149.504 97.88V103H147.904V98.152C147.904 97.512 147.723 97.0107 147.36 96.648C147.008 96.2747 146.512 96.088 145.872 96.088C145.445 96.088 145.061 96.1787 144.72 96.36C144.379 96.5413 144.096 96.8027 143.872 97.144V103H142.272ZM155.382 106.424C154.785 106.424 154.204 106.355 153.638 106.216C153.073 106.077 152.561 105.88 152.102 105.624L152.71 104.376C153.19 104.621 153.638 104.797 154.054 104.904C154.481 105.021 154.908 105.08 155.334 105.08C156.049 105.08 156.588 104.915 156.95 104.584C157.324 104.253 157.51 103.768 157.51 103.128V102.2C156.796 102.765 155.98 103.048 155.062 103.048C154.316 103.048 153.628 102.867 152.998 102.504C152.38 102.131 151.889 101.629 151.526 101C151.164 100.36 150.982 99.656 150.982 98.888C150.982 98.1093 151.164 97.4053 151.526 96.776C151.9 96.136 152.396 95.6347 153.014 95.272C153.644 94.8987 154.348 94.712 155.126 94.712C155.564 94.712 155.985 94.7867 156.39 94.936C156.806 95.0747 157.185 95.2773 157.526 95.544V94.856H159.11V103.128C159.11 104.184 158.785 104.995 158.134 105.56C157.494 106.136 156.577 106.424 155.382 106.424ZM155.27 101.672C155.74 101.672 156.166 101.592 156.55 101.432C156.934 101.261 157.254 101.021 157.51 100.712V97.064C157.254 96.7653 156.929 96.5307 156.534 96.36C156.15 96.1893 155.729 96.104 155.27 96.104C154.758 96.104 154.294 96.2267 153.878 96.472C153.473 96.7173 153.148 97.0533 152.902 97.48C152.668 97.896 152.55 98.3653 152.55 98.888C152.55 99.4107 152.668 99.8853 152.902 100.312C153.148 100.728 153.473 101.059 153.878 101.304C154.294 101.549 154.758 101.672 155.27 101.672ZM163.407 103L168.031 91.8H170.015L174.591 103H172.767L171.471 99.72H166.463L165.151 103H163.407ZM167.007 98.328H170.927L168.975 93.4L167.007 98.328ZM174.876 103L178.044 98.824L175.004 94.856H176.876L178.972 97.64L181.068 94.856H182.876L179.868 98.808L183.068 103H181.196L178.94 99.992L176.684 103H174.876ZM184.053 103V94.856H185.653V103H184.053ZM184.853 93.544C184.587 93.544 184.357 93.448 184.165 93.256C183.973 93.0533 183.877 92.8187 183.877 92.552C183.877 92.2747 183.973 92.0453 184.165 91.864C184.357 91.672 184.587 91.576 184.853 91.576C185.131 91.576 185.365 91.672 185.557 91.864C185.749 92.0453 185.845 92.2747 185.845 92.552C185.845 92.8187 185.749 93.0533 185.557 93.256C185.365 93.448 185.131 93.544 184.853 93.544ZM190.338 103.16C189.634 103.16 188.972 103.059 188.354 102.856C187.746 102.643 187.218 102.344 186.77 101.96L187.65 100.904C188.066 101.235 188.492 101.491 188.93 101.672C189.378 101.843 189.831 101.928 190.29 101.928C190.866 101.928 191.335 101.816 191.698 101.592C192.06 101.368 192.242 101.075 192.242 100.712C192.242 100.413 192.135 100.179 191.922 100.008C191.708 99.8373 191.378 99.72 190.93 99.656L189.458 99.448C188.647 99.3307 188.039 99.08 187.634 98.696C187.228 98.312 187.026 97.8 187.026 97.16C187.026 96.6693 187.159 96.2427 187.426 95.88C187.692 95.5067 188.066 95.2187 188.546 95.016C189.026 94.8027 189.586 94.696 190.226 94.696C190.812 94.696 191.378 94.7813 191.922 94.952C192.466 95.1227 192.988 95.3893 193.49 95.752L192.674 96.808C192.226 96.5093 191.788 96.2907 191.362 96.152C190.946 96.0133 190.524 95.944 190.098 95.944C189.607 95.944 189.212 96.0507 188.914 96.264C188.615 96.4667 188.466 96.7333 188.466 97.064C188.466 97.3627 188.567 97.5973 188.77 97.768C188.983 97.928 189.33 98.04 189.81 98.104L191.282 98.312C192.092 98.4293 192.706 98.68 193.122 99.064C193.538 99.4373 193.746 99.944 193.746 100.584C193.746 101.075 193.596 101.517 193.298 101.912C192.999 102.296 192.594 102.6 192.082 102.824C191.57 103.048 190.988 103.16 190.338 103.16ZM198.511 103V91.8H206.799V93.272H200.191V96.712H204.543V98.136H200.191V103H198.511ZM208.007 103V94.856H209.607V103H208.007ZM208.807 93.544C208.54 93.544 208.311 93.448 208.118 93.256C207.927 93.0533 207.831 92.8187 207.831 92.552C207.831 92.2747 207.927 92.0453 208.118 91.864C208.311 91.672 208.54 91.576 208.807 91.576C209.084 91.576 209.319 91.672 209.511 91.864C209.703 92.0453 209.799 92.2747 209.799 92.552C209.799 92.8187 209.703 93.0533 209.511 93.256C209.319 93.448 209.084 93.544 208.807 93.544ZM211.491 103V94.856H213.091V95.688C213.72 95.0267 214.536 94.696 215.539 94.696C216.168 94.696 216.718 94.8293 217.187 95.096C217.667 95.3627 218.04 95.736 218.307 96.216C218.584 96.696 218.723 97.2507 218.723 97.88V103H217.123V98.152C217.123 97.512 216.942 97.0107 216.579 96.648C216.227 96.2747 215.731 96.088 215.091 96.088C214.664 96.088 214.28 96.1787 213.939 96.36C213.598 96.5413 213.315 96.8027 213.091 97.144V103H211.491ZM223.145 103.144C222.558 103.144 222.041 103.043 221.593 102.84C221.145 102.627 220.793 102.333 220.537 101.96C220.281 101.587 220.153 101.155 220.153 100.664C220.153 99.896 220.446 99.2933 221.033 98.856C221.62 98.408 222.425 98.184 223.449 98.184C224.249 98.184 224.99 98.3387 225.673 98.648V97.784C225.673 97.1973 225.502 96.76 225.161 96.472C224.83 96.184 224.34 96.04 223.689 96.04C223.316 96.04 222.926 96.0987 222.521 96.216C222.116 96.3227 221.662 96.4933 221.161 96.728L220.569 95.528C221.188 95.24 221.764 95.032 222.297 94.904C222.83 94.7653 223.369 94.696 223.913 94.696C224.969 94.696 225.785 94.9467 226.361 95.448C226.948 95.9493 227.241 96.664 227.241 97.592V103H225.673V102.296C225.31 102.584 224.921 102.797 224.505 102.936C224.089 103.075 223.636 103.144 223.145 103.144ZM221.689 100.632C221.689 101.027 221.854 101.347 222.185 101.592C222.526 101.827 222.969 101.944 223.513 101.944C223.94 101.944 224.329 101.885 224.681 101.768C225.044 101.64 225.374 101.443 225.673 101.176V99.8C225.364 99.6187 225.038 99.4907 224.697 99.416C224.366 99.3307 223.993 99.288 223.577 99.288C222.99 99.288 222.526 99.4107 222.185 99.656C221.854 99.8907 221.689 100.216 221.689 100.632ZM229.085 103V94.856H230.685V95.688C231.314 95.0267 232.13 94.696 233.133 94.696C233.762 94.696 234.311 94.8293 234.781 95.096C235.261 95.3627 235.634 95.736 235.901 96.216C236.178 96.696 236.317 97.2507 236.317 97.88V103H234.717V98.152C234.717 97.512 234.535 97.0107 234.173 96.648C233.821 96.2747 233.325 96.088 232.685 96.088C232.258 96.088 231.874 96.1787 231.533 96.36C231.191 96.5413 230.909 96.8027 230.685 97.144V103H229.085ZM241.987 103.144C241.208 103.144 240.499 102.957 239.859 102.584C239.219 102.211 238.712 101.704 238.339 101.064C237.976 100.424 237.795 99.7093 237.795 98.92C237.795 98.1307 237.981 97.4213 238.355 96.792C238.728 96.152 239.229 95.6453 239.859 95.272C240.499 94.888 241.208 94.696 241.987 94.696C242.605 94.696 243.197 94.8133 243.763 95.048C244.339 95.2827 244.835 95.6133 245.251 96.04L244.259 97.144C243.949 96.8027 243.603 96.5467 243.219 96.376C242.835 96.2053 242.435 96.12 242.019 96.12C241.528 96.12 241.08 96.2427 240.675 96.488C240.28 96.7333 239.965 97.0693 239.731 97.496C239.496 97.9227 239.379 98.3973 239.379 98.92C239.379 99.4427 239.496 99.9173 239.731 100.344C239.965 100.771 240.285 101.112 240.691 101.368C241.096 101.613 241.549 101.736 242.051 101.736C242.467 101.736 242.856 101.656 243.219 101.496C243.581 101.325 243.923 101.08 244.243 100.76L245.219 101.784C244.792 102.221 244.296 102.557 243.731 102.792C243.176 103.027 242.595 103.144 241.987 103.144ZM250.176 103.144C249.376 103.144 248.651 102.957 248 102.584C247.36 102.211 246.848 101.704 246.464 101.064C246.091 100.424 245.904 99.7093 245.904 98.92C245.904 98.1413 246.085 97.4373 246.448 96.808C246.811 96.168 247.301 95.6613 247.92 95.288C248.539 94.904 249.227 94.712 249.984 94.712C250.741 94.712 251.413 94.904 252 95.288C252.587 95.6613 253.051 96.1733 253.392 96.824C253.744 97.464 253.92 98.1893 253.92 99V99.448H247.504C247.589 99.896 247.755 100.296 248 100.648C248.256 101 248.576 101.277 248.96 101.48C249.355 101.683 249.781 101.784 250.24 101.784C250.635 101.784 251.013 101.725 251.376 101.608C251.749 101.48 252.059 101.299 252.304 101.064L253.328 102.072C252.848 102.435 252.352 102.707 251.84 102.888C251.339 103.059 250.784 103.144 250.176 103.144ZM247.52 98.248H252.336C252.272 97.8213 252.123 97.448 251.888 97.128C251.664 96.7973 251.381 96.5413 251.04 96.36C250.709 96.168 250.347 96.072 249.952 96.072C249.547 96.072 249.173 96.1627 248.832 96.344C248.491 96.5253 248.203 96.7813 247.968 97.112C247.744 97.432 247.595 97.8107 247.52 98.248ZM85.136 145V133.8H86.816V143.512H93.264V145H85.136ZM94.7721 145V136.856H96.3721V145H94.7721ZM95.5721 135.544C95.3055 135.544 95.0761 135.448 94.8841 135.256C94.6921 135.053 94.5961 134.819 94.5961 134.552C94.5961 134.275 94.6921 134.045 94.8841 133.864C95.0761 133.672 95.3055 133.576 95.5721 133.576C95.8495 133.576 96.0841 133.672 96.2761 133.864C96.4681 134.045 96.5641 134.275 96.5641 134.552C96.5641 134.819 96.4681 135.053 96.2761 135.256C96.0841 135.448 95.8495 135.544 95.5721 135.544ZM98.2565 145V136.856H99.8565V137.688C100.486 137.027 101.302 136.696 102.305 136.696C102.934 136.696 103.483 136.829 103.953 137.096C104.433 137.363 104.806 137.736 105.073 138.216C105.35 138.696 105.489 139.251 105.489 139.88V145H103.889V140.152C103.889 139.512 103.707 139.011 103.345 138.648C102.993 138.275 102.497 138.088 101.857 138.088C101.43 138.088 101.046 138.179 100.705 138.36C100.363 138.541 100.081 138.803 99.8565 139.144V145H98.2565ZM107.335 145V136.856H108.935V145H107.335ZM108.135 135.544C107.868 135.544 107.639 135.448 107.447 135.256C107.255 135.053 107.159 134.819 107.159 134.552C107.159 134.275 107.255 134.045 107.447 133.864C107.639 133.672 107.868 133.576 108.135 133.576C108.412 133.576 108.647 133.672 108.839 133.864C109.031 134.045 109.127 134.275 109.127 134.552C109.127 134.819 109.031 135.053 108.839 135.256C108.647 135.448 108.412 135.544 108.135 135.544ZM110.819 145V136.856H112.419V137.688C113.048 137.027 113.864 136.696 114.867 136.696C115.496 136.696 116.046 136.829 116.515 137.096C116.995 137.363 117.368 137.736 117.635 138.216C117.912 138.696 118.051 139.251 118.051 139.88V145H116.451V140.152C116.451 139.512 116.27 139.011 115.907 138.648C115.555 138.275 115.059 138.088 114.419 138.088C113.992 138.088 113.608 138.179 113.267 138.36C112.926 138.541 112.643 138.803 112.419 139.144V145H110.819ZM123.929 148.424C123.332 148.424 122.75 148.355 122.185 148.216C121.62 148.077 121.108 147.88 120.649 147.624L121.257 146.376C121.737 146.621 122.185 146.797 122.601 146.904C123.028 147.021 123.454 147.08 123.881 147.08C124.596 147.08 125.134 146.915 125.497 146.584C125.87 146.253 126.057 145.768 126.057 145.128V144.2C125.342 144.765 124.526 145.048 123.609 145.048C122.862 145.048 122.174 144.867 121.545 144.504C120.926 144.131 120.436 143.629 120.073 143C119.71 142.36 119.529 141.656 119.529 140.888C119.529 140.109 119.71 139.405 120.073 138.776C120.446 138.136 120.942 137.635 121.561 137.272C122.19 136.899 122.894 136.712 123.673 136.712C124.11 136.712 124.532 136.787 124.937 136.936C125.353 137.075 125.732 137.277 126.073 137.544V136.856H127.657V145.128C127.657 146.184 127.332 146.995 126.681 147.56C126.041 148.136 125.124 148.424 123.929 148.424ZM123.817 143.672C124.286 143.672 124.713 143.592 125.097 143.432C125.481 143.261 125.801 143.021 126.057 142.712V139.064C125.801 138.765 125.476 138.531 125.081 138.36C124.697 138.189 124.276 138.104 123.817 138.104C123.305 138.104 122.841 138.227 122.425 138.472C122.02 138.717 121.694 139.053 121.449 139.48C121.214 139.896 121.097 140.365 121.097 140.888C121.097 141.411 121.214 141.885 121.449 142.312C121.694 142.728 122.02 143.059 122.425 143.304C122.841 143.549 123.305 143.672 123.817 143.672ZM136.034 145.16C135.404 145.16 134.85 145.027 134.37 144.76C133.89 144.493 133.516 144.12 133.25 143.64C132.983 143.149 132.85 142.589 132.85 141.96V136.856H134.434V141.688C134.434 142.328 134.615 142.835 134.978 143.208C135.351 143.581 135.847 143.768 136.466 143.768C136.903 143.768 137.292 143.677 137.634 143.496C137.975 143.304 138.252 143.037 138.466 142.696V136.856H140.066V145H138.466V144.168C137.836 144.829 137.026 145.16 136.034 145.16ZM141.96 148.264V136.856H143.544V137.64C144.226 137.032 145.058 136.728 146.04 136.728C146.808 136.728 147.501 136.915 148.12 137.288C148.749 137.661 149.245 138.163 149.608 138.792C149.97 139.421 150.152 140.131 150.152 140.92C150.152 141.709 149.965 142.424 149.592 143.064C149.229 143.693 148.733 144.195 148.104 144.568C147.485 144.941 146.786 145.128 146.008 145.128C145.56 145.128 145.128 145.059 144.712 144.92C144.296 144.771 143.912 144.563 143.56 144.296V148.264H141.96ZM145.832 143.736C146.354 143.736 146.818 143.613 147.224 143.368C147.64 143.123 147.97 142.792 148.216 142.376C148.461 141.949 148.584 141.469 148.584 140.936C148.584 140.403 148.461 139.923 148.216 139.496C147.97 139.069 147.64 138.733 147.224 138.488C146.818 138.243 146.354 138.12 145.832 138.12C145.373 138.12 144.946 138.205 144.552 138.376C144.157 138.547 143.826 138.787 143.56 139.096V142.776C143.826 143.075 144.157 143.309 144.552 143.48C144.957 143.651 145.384 143.736 145.832 143.736ZM156.238 145V138.2H154.35V136.856H156.238V135.624C156.238 134.771 156.473 134.12 156.942 133.672C157.422 133.224 158.105 133 158.99 133C159.214 133 159.422 133.016 159.614 133.048C159.817 133.069 159.998 133.107 160.158 133.16V134.536C159.966 134.483 159.795 134.445 159.646 134.424C159.497 134.392 159.331 134.376 159.15 134.376C158.702 134.376 158.366 134.483 158.142 134.696C157.929 134.899 157.822 135.224 157.822 135.672V136.856H160.158V138.2H157.822V145H156.238ZM161.382 145V136.856H162.982V145H161.382ZM162.182 135.544C161.915 135.544 161.686 135.448 161.493 135.256C161.302 135.053 161.206 134.819 161.206 134.552C161.206 134.275 161.302 134.045 161.493 133.864C161.686 133.672 161.915 133.576 162.182 133.576C162.459 133.576 162.694 133.672 162.886 133.864C163.078 134.045 163.174 134.275 163.174 134.552C163.174 134.819 163.078 135.053 162.886 135.256C162.694 135.448 162.459 135.544 162.182 135.544ZM164.866 145V136.856H166.466V137.896C166.722 137.512 167.037 137.213 167.41 137C167.794 136.776 168.226 136.664 168.706 136.664C169.037 136.675 169.309 136.723 169.522 136.808V138.248C169.373 138.184 169.218 138.141 169.058 138.12C168.898 138.088 168.738 138.072 168.578 138.072C168.109 138.072 167.693 138.2 167.33 138.456C166.967 138.701 166.679 139.064 166.466 139.544V145H164.866ZM173.588 145.16C172.884 145.16 172.222 145.059 171.604 144.856C170.996 144.643 170.468 144.344 170.02 143.96L170.9 142.904C171.316 143.235 171.742 143.491 172.18 143.672C172.628 143.843 173.081 143.928 173.54 143.928C174.116 143.928 174.585 143.816 174.948 143.592C175.31 143.368 175.492 143.075 175.492 142.712C175.492 142.413 175.385 142.179 175.172 142.008C174.958 141.837 174.628 141.72 174.18 141.656L172.708 141.448C171.897 141.331 171.289 141.08 170.884 140.696C170.478 140.312 170.276 139.8 170.276 139.16C170.276 138.669 170.409 138.243 170.676 137.88C170.942 137.507 171.316 137.219 171.796 137.016C172.276 136.803 172.836 136.696 173.476 136.696C174.062 136.696 174.628 136.781 175.172 136.952C175.716 137.123 176.238 137.389 176.74 137.752L175.924 138.808C175.476 138.509 175.038 138.291 174.612 138.152C174.196 138.013 173.774 137.944 173.348 137.944C172.857 137.944 172.462 138.051 172.164 138.264C171.865 138.467 171.716 138.733 171.716 139.064C171.716 139.363 171.817 139.597 172.02 139.768C172.233 139.928 172.58 140.04 173.06 140.104L174.532 140.312C175.342 140.429 175.956 140.68 176.372 141.064C176.788 141.437 176.996 141.944 176.996 142.584C176.996 143.075 176.846 143.517 176.548 143.912C176.249 144.296 175.844 144.6 175.332 144.824C174.82 145.048 174.238 145.16 173.588 145.16ZM181.557 145.144C180.768 145.144 180.165 144.963 179.749 144.6C179.333 144.227 179.125 143.688 179.125 142.984V138.2H177.397V136.856H179.125V134.776L180.709 134.392V136.856H183.109V138.2H180.709V142.616C180.709 143.032 180.8 143.331 180.981 143.512C181.173 143.683 181.482 143.768 181.909 143.768C182.133 143.768 182.33 143.752 182.501 143.72C182.682 143.688 182.874 143.64 183.077 143.576V144.92C182.864 144.995 182.613 145.048 182.325 145.08C182.048 145.123 181.792 145.144 181.557 145.144ZM187.632 148.264V136.856H189.216V137.64C189.898 137.032 190.73 136.728 191.712 136.728C192.48 136.728 193.173 136.915 193.792 137.288C194.421 137.661 194.917 138.163 195.28 138.792C195.642 139.421 195.824 140.131 195.824 140.92C195.824 141.709 195.637 142.424 195.264 143.064C194.901 143.693 194.405 144.195 193.776 144.568C193.157 144.941 192.458 145.128 191.68 145.128C191.232 145.128 190.8 145.059 190.384 144.92C189.968 144.771 189.584 144.563 189.232 144.296V148.264H187.632ZM191.504 143.736C192.026 143.736 192.49 143.613 192.896 143.368C193.312 143.123 193.642 142.792 193.888 142.376C194.133 141.949 194.256 141.469 194.256 140.936C194.256 140.403 194.133 139.923 193.888 139.496C193.642 139.069 193.312 138.733 192.896 138.488C192.49 138.243 192.026 138.12 191.504 138.12C191.045 138.12 190.618 138.205 190.224 138.376C189.829 138.547 189.498 138.787 189.232 139.096V142.776C189.498 143.075 189.829 143.309 190.224 143.48C190.629 143.651 191.056 143.736 191.504 143.736ZM200.004 145.144C199.418 145.144 198.9 145.043 198.452 144.84C198.004 144.627 197.652 144.333 197.396 143.96C197.14 143.587 197.012 143.155 197.012 142.664C197.012 141.896 197.306 141.293 197.892 140.856C198.479 140.408 199.284 140.184 200.308 140.184C201.108 140.184 201.85 140.339 202.532 140.648V139.784C202.532 139.197 202.362 138.76 202.02 138.472C201.69 138.184 201.199 138.04 200.548 138.04C200.175 138.04 199.786 138.099 199.38 138.216C198.975 138.323 198.522 138.493 198.02 138.728L197.428 137.528C198.047 137.24 198.623 137.032 199.156 136.904C199.69 136.765 200.228 136.696 200.772 136.696C201.828 136.696 202.644 136.947 203.22 137.448C203.807 137.949 204.1 138.664 204.1 139.592V145H202.532V144.296C202.17 144.584 201.78 144.797 201.364 144.936C200.948 145.075 200.495 145.144 200.004 145.144ZM198.548 142.632C198.548 143.027 198.714 143.347 199.044 143.592C199.386 143.827 199.828 143.944 200.372 143.944C200.799 143.944 201.188 143.885 201.54 143.768C201.903 143.64 202.234 143.443 202.532 143.176V141.8C202.223 141.619 201.898 141.491 201.556 141.416C201.226 141.331 200.852 141.288 200.436 141.288C199.85 141.288 199.386 141.411 199.044 141.656C198.714 141.891 198.548 142.216 198.548 142.632ZM205.944 145V136.856H207.544V137.896C207.8 137.512 208.115 137.213 208.488 137C208.872 136.776 209.304 136.664 209.784 136.664C210.115 136.675 210.387 136.723 210.6 136.808V138.248C210.451 138.184 210.296 138.141 210.136 138.12C209.976 138.088 209.816 138.072 209.656 138.072C209.187 138.072 208.771 138.2 208.408 138.456C208.045 138.701 207.757 139.064 207.544 139.544V145H205.944ZM215.37 145.144C214.58 145.144 213.978 144.963 213.562 144.6C213.146 144.227 212.938 143.688 212.938 142.984V138.2H211.21V136.856H212.938V134.776L214.522 134.392V136.856H216.922V138.2H214.522V142.616C214.522 143.032 214.612 143.331 214.794 143.512C214.986 143.683 215.295 143.768 215.722 143.768C215.946 143.768 216.143 143.752 216.314 143.72C216.495 143.688 216.687 143.64 216.89 143.576V144.92C216.676 144.995 216.426 145.048 216.138 145.08C215.86 145.123 215.604 145.144 215.37 145.144ZM218.1 145V136.856H219.7V137.688C220.33 137.027 221.146 136.696 222.148 136.696C222.778 136.696 223.327 136.829 223.796 137.096C224.276 137.363 224.65 137.736 224.916 138.216C225.194 138.696 225.332 139.251 225.332 139.88V145H223.732V140.152C223.732 139.512 223.551 139.011 223.188 138.648C222.836 138.275 222.34 138.088 221.7 138.088C221.274 138.088 220.89 138.179 220.548 138.36C220.207 138.541 219.924 138.803 219.7 139.144V145H218.1ZM231.082 145.144C230.282 145.144 229.557 144.957 228.906 144.584C228.266 144.211 227.754 143.704 227.37 143.064C226.997 142.424 226.81 141.709 226.81 140.92C226.81 140.141 226.992 139.437 227.354 138.808C227.717 138.168 228.208 137.661 228.826 137.288C229.445 136.904 230.133 136.712 230.89 136.712C231.648 136.712 232.32 136.904 232.906 137.288C233.493 137.661 233.957 138.173 234.298 138.824C234.65 139.464 234.826 140.189 234.826 141V141.448H228.41C228.496 141.896 228.661 142.296 228.906 142.648C229.162 143 229.482 143.277 229.866 143.48C230.261 143.683 230.688 143.784 231.146 143.784C231.541 143.784 231.92 143.725 232.282 143.608C232.656 143.48 232.965 143.299 233.21 143.064L234.234 144.072C233.754 144.435 233.258 144.707 232.746 144.888C232.245 145.059 231.69 145.144 231.082 145.144ZM228.426 140.248H233.242C233.178 139.821 233.029 139.448 232.794 139.128C232.57 138.797 232.288 138.541 231.946 138.36C231.616 138.168 231.253 138.072 230.858 138.072C230.453 138.072 230.08 138.163 229.738 138.344C229.397 138.525 229.109 138.781 228.874 139.112C228.65 139.432 228.501 139.811 228.426 140.248ZM236.35 145V136.856H237.95V137.896C238.206 137.512 238.521 137.213 238.894 137C239.278 136.776 239.71 136.664 240.19 136.664C240.521 136.675 240.793 136.723 241.006 136.808V138.248C240.857 138.184 240.702 138.141 240.542 138.12C240.382 138.088 240.222 138.072 240.062 138.072C239.593 138.072 239.177 138.2 238.814 138.456C238.452 138.701 238.164 139.064 237.95 139.544V145H236.35ZM245.072 145.16C244.368 145.16 243.707 145.059 243.088 144.856C242.48 144.643 241.952 144.344 241.504 143.96L242.384 142.904C242.8 143.235 243.227 143.491 243.664 143.672C244.112 143.843 244.565 143.928 245.024 143.928C245.6 143.928 246.069 143.816 246.432 143.592C246.795 143.368 246.976 143.075 246.976 142.712C246.976 142.413 246.869 142.179 246.656 142.008C246.443 141.837 246.112 141.72 245.664 141.656L244.192 141.448C243.381 141.331 242.773 141.08 242.368 140.696C241.963 140.312 241.76 139.8 241.76 139.16C241.76 138.669 241.893 138.243 242.16 137.88C242.427 137.507 242.8 137.219 243.28 137.016C243.76 136.803 244.32 136.696 244.96 136.696C245.547 136.696 246.112 136.781 246.656 136.952C247.2 137.123 247.723 137.389 248.224 137.752L247.408 138.808C246.96 138.509 246.523 138.291 246.096 138.152C245.68 138.013 245.259 137.944 244.832 137.944C244.341 137.944 243.947 138.051 243.648 138.264C243.349 138.467 243.2 138.733 243.2 139.064C243.2 139.363 243.301 139.597 243.504 139.768C243.717 139.928 244.064 140.04 244.544 140.104L246.016 140.312C246.827 140.429 247.44 140.68 247.856 141.064C248.272 141.437 248.48 141.944 248.48 142.584C248.48 143.075 248.331 143.517 248.032 143.912C247.733 144.296 247.328 144.6 246.816 144.824C246.304 145.048 245.723 145.16 245.072 145.16ZM249.71 145V133.8L251.31 133.448V137.688C251.939 137.027 252.755 136.696 253.758 136.696C254.387 136.696 254.936 136.829 255.406 137.096C255.886 137.363 256.259 137.736 256.526 138.216C256.803 138.696 256.942 139.251 256.942 139.88V145H255.342V140.152C255.342 139.512 255.16 139.011 254.798 138.648C254.435 138.275 253.939 138.088 253.31 138.088C252.883 138.088 252.499 138.179 252.158 138.36C251.816 138.541 251.534 138.803 251.31 139.144V145H249.71ZM258.788 145V136.856H260.388V145H258.788ZM259.588 135.544C259.321 135.544 259.092 135.448 258.9 135.256C258.708 135.053 258.612 134.819 258.612 134.552C258.612 134.275 258.708 134.045 258.9 133.864C259.092 133.672 259.321 133.576 259.588 133.576C259.865 133.576 260.1 133.672 260.292 133.864C260.484 134.045 260.58 134.275 260.58 134.552C260.58 134.819 260.484 135.053 260.292 135.256C260.1 135.448 259.865 135.544 259.588 135.544ZM262.272 148.264V136.856H263.856V137.64C264.539 137.032 265.371 136.728 266.352 136.728C267.12 136.728 267.813 136.915 268.432 137.288C269.061 137.661 269.557 138.163 269.92 138.792C270.283 139.421 270.464 140.131 270.464 140.92C270.464 141.709 270.277 142.424 269.904 143.064C269.541 143.693 269.045 144.195 268.416 144.568C267.797 144.941 267.099 145.128 266.32 145.128C265.872 145.128 265.44 145.059 265.024 144.92C264.608 144.771 264.224 144.563 263.872 144.296V148.264H262.272ZM266.144 143.736C266.667 143.736 267.131 143.613 267.536 143.368C267.952 143.123 268.283 142.792 268.528 142.376C268.773 141.949 268.896 141.469 268.896 140.936C268.896 140.403 268.773 139.923 268.528 139.496C268.283 139.069 267.952 138.733 267.536 138.488C267.131 138.243 266.667 138.12 266.144 138.12C265.685 138.12 265.259 138.205 264.864 138.376C264.469 138.547 264.139 138.787 263.872 139.096V142.776C264.139 143.075 264.469 143.309 264.864 143.48C265.269 143.651 265.696 143.736 266.144 143.736ZM274.791 145.16C274.087 145.16 273.426 145.059 272.807 144.856C272.199 144.643 271.671 144.344 271.223 143.96L272.103 142.904C272.519 143.235 272.946 143.491 273.383 143.672C273.831 143.843 274.284 143.928 274.743 143.928C275.319 143.928 275.788 143.816 276.151 143.592C276.514 143.368 276.695 143.075 276.695 142.712C276.695 142.413 276.588 142.179 276.375 142.008C276.162 141.837 275.831 141.72 275.383 141.656L273.911 141.448C273.1 141.331 272.492 141.08 272.087 140.696C271.682 140.312 271.479 139.8 271.479 139.16C271.479 138.669 271.612 138.243 271.879 137.88C272.146 137.507 272.519 137.219 272.999 137.016C273.479 136.803 274.039 136.696 274.679 136.696C275.266 136.696 275.831 136.781 276.375 136.952C276.919 137.123 277.442 137.389 277.943 137.752L277.127 138.808C276.679 138.509 276.242 138.291 275.815 138.152C275.399 138.013 274.978 137.944 274.551 137.944C274.06 137.944 273.666 138.051 273.367 138.264C273.068 138.467 272.919 138.733 272.919 139.064C272.919 139.363 273.02 139.597 273.223 139.768C273.436 139.928 273.783 140.04 274.263 140.104L275.735 140.312C276.546 140.429 277.159 140.68 277.575 141.064C277.991 141.437 278.199 141.944 278.199 142.584C278.199 143.075 278.05 143.517 277.751 143.912C277.452 144.296 277.047 144.6 276.535 144.824C276.023 145.048 275.442 145.16 274.791 145.16ZM284.292 145L282.02 136.856H283.572L285.156 142.84L287.012 136.856H288.388L290.244 142.84L291.828 136.856H293.332L291.044 145H289.508L287.684 139.032L285.844 145H284.292ZM294.475 145V136.856H296.075V145H294.475ZM295.275 135.544C295.009 135.544 294.779 135.448 294.587 135.256C294.395 135.053 294.299 134.819 294.299 134.552C294.299 134.275 294.395 134.045 294.587 133.864C294.779 133.672 295.009 133.576 295.275 133.576C295.553 133.576 295.787 133.672 295.979 133.864C296.171 134.045 296.267 134.275 296.267 134.552C296.267 134.819 296.171 135.053 295.979 135.256C295.787 135.448 295.553 135.544 295.275 135.544ZM301.448 145.144C300.658 145.144 300.056 144.963 299.64 144.6C299.224 144.227 299.016 143.688 299.016 142.984V138.2H297.288V136.856H299.016V134.776L300.6 134.392V136.856H303V138.2H300.6V142.616C300.6 143.032 300.69 143.331 300.872 143.512C301.064 143.683 301.373 143.768 301.8 143.768C302.024 143.768 302.221 143.752 302.392 143.72C302.573 143.688 302.765 143.64 302.968 143.576V144.92C302.754 144.995 302.504 145.048 302.216 145.08C301.938 145.123 301.682 145.144 301.448 145.144ZM304.178 145V133.8L305.778 133.448V137.688C306.408 137.027 307.224 136.696 308.226 136.696C308.856 136.696 309.405 136.829 309.874 137.096C310.354 137.363 310.728 137.736 310.994 138.216C311.272 138.696 311.41 139.251 311.41 139.88V145H309.81V140.152C309.81 139.512 309.629 139.011 309.266 138.648C308.904 138.275 308.408 138.088 307.778 138.088C307.352 138.088 306.968 138.179 306.626 138.36C306.285 138.541 306.002 138.803 305.778 139.144V145H304.178ZM315.672 145L320.296 133.8H322.28L326.856 145H325.032L323.736 141.72H318.728L317.416 145H315.672ZM319.272 140.328H323.192L321.24 135.4L319.272 140.328ZM327.819 145V136.856H329.419V137.896C329.675 137.512 329.99 137.213 330.363 137C330.747 136.776 331.179 136.664 331.659 136.664C331.99 136.675 332.262 136.723 332.475 136.808V138.248C332.326 138.184 332.171 138.141 332.011 138.12C331.851 138.088 331.691 138.072 331.531 138.072C331.062 138.072 330.646 138.2 330.283 138.456C329.92 138.701 329.632 139.064 329.419 139.544V145H327.819ZM333.757 145V133.8L335.357 133.496V137.624C336.039 137.027 336.866 136.728 337.837 136.728C338.605 136.728 339.298 136.915 339.917 137.288C340.546 137.661 341.042 138.163 341.405 138.792C341.767 139.421 341.949 140.131 341.949 140.92C341.949 141.709 341.762 142.424 341.389 143.064C341.026 143.693 340.53 144.195 339.901 144.568C339.282 144.941 338.583 145.128 337.805 145.128C337.357 145.128 336.919 145.059 336.493 144.92C336.077 144.771 335.693 144.563 335.341 144.296V145H333.757ZM337.629 143.736C338.151 143.736 338.615 143.613 339.021 143.368C339.437 143.123 339.767 142.792 340.013 142.376C340.258 141.949 340.381 141.469 340.381 140.936C340.381 140.403 340.258 139.923 340.013 139.496C339.767 139.069 339.437 138.733 339.021 138.488C338.615 138.243 338.151 138.12 337.629 138.12C337.17 138.12 336.743 138.205 336.349 138.376C335.954 138.547 335.623 138.787 335.357 139.096V142.776C335.623 143.075 335.954 143.309 336.349 143.48C336.754 143.651 337.181 143.736 337.629 143.736ZM343.475 145V136.856H345.075V145H343.475ZM344.275 135.544C344.009 135.544 343.779 135.448 343.587 135.256C343.395 135.053 343.299 134.819 343.299 134.552C343.299 134.275 343.395 134.045 343.587 133.864C343.779 133.672 344.009 133.576 344.275 133.576C344.553 133.576 344.787 133.672 344.979 133.864C345.171 134.045 345.267 134.275 345.267 134.552C345.267 134.819 345.171 135.053 344.979 135.256C344.787 135.448 344.553 135.544 344.275 135.544ZM350.448 145.144C349.658 145.144 349.056 144.963 348.64 144.6C348.224 144.227 348.016 143.688 348.016 142.984V138.2H346.288V136.856H348.016V134.776L349.6 134.392V136.856H352V138.2H349.6V142.616C349.6 143.032 349.69 143.331 349.872 143.512C350.064 143.683 350.373 143.768 350.8 143.768C351.024 143.768 351.221 143.752 351.392 143.72C351.573 143.688 351.765 143.64 351.968 143.576V144.92C351.754 144.995 351.504 145.048 351.216 145.08C350.938 145.123 350.682 145.144 350.448 145.144ZM353.178 145V136.856H354.778V137.896C355.034 137.512 355.349 137.213 355.722 137C356.106 136.776 356.538 136.664 357.018 136.664C357.349 136.675 357.621 136.723 357.834 136.808V138.248C357.685 138.184 357.53 138.141 357.37 138.12C357.21 138.088 357.05 138.072 356.89 138.072C356.421 138.072 356.005 138.2 355.642 138.456C355.28 138.701 354.992 139.064 354.778 139.544V145H353.178ZM362.159 145.16C361.529 145.16 360.975 145.027 360.495 144.76C360.015 144.493 359.641 144.12 359.375 143.64C359.108 143.149 358.975 142.589 358.975 141.96V136.856H360.559V141.688C360.559 142.328 360.74 142.835 361.103 143.208C361.476 143.581 361.972 143.768 362.591 143.768C363.028 143.768 363.417 143.677 363.759 143.496C364.1 143.304 364.377 143.037 364.591 142.696V136.856H366.191V145H364.591V144.168C363.961 144.829 363.151 145.16 362.159 145.16ZM368.085 145V136.856H369.685V137.64C370.293 137.011 371.055 136.696 371.973 136.696C372.527 136.696 373.018 136.819 373.445 137.064C373.882 137.309 374.229 137.64 374.485 138.056C374.826 137.608 375.226 137.272 375.685 137.048C376.143 136.813 376.661 136.696 377.237 136.696C377.845 136.696 378.373 136.829 378.821 137.096C379.279 137.363 379.637 137.736 379.893 138.216C380.159 138.696 380.293 139.251 380.293 139.88V145H378.693V140.152C378.693 139.512 378.522 139.011 378.181 138.648C377.85 138.275 377.397 138.088 376.821 138.088C376.426 138.088 376.069 138.179 375.749 138.36C375.429 138.541 375.151 138.819 374.917 139.192C374.938 139.299 374.954 139.411 374.965 139.528C374.975 139.645 374.981 139.763 374.981 139.88V145H373.397V140.152C373.397 139.512 373.226 139.011 372.885 138.648C372.554 138.275 372.101 138.088 371.525 138.088C371.141 138.088 370.794 138.173 370.485 138.344C370.175 138.504 369.909 138.749 369.685 139.08V145H368.085ZM84.944 169.264V157.856H86.528V158.64C87.2107 158.032 88.0427 157.728 89.024 157.728C89.792 157.728 90.4853 157.915 91.104 158.288C91.7333 158.661 92.2293 159.163 92.592 159.792C92.9547 160.421 93.136 161.131 93.136 161.92C93.136 162.709 92.9493 163.424 92.576 164.064C92.2133 164.693 91.7173 165.195 91.088 165.568C90.4693 165.941 89.7707 166.128 88.992 166.128C88.544 166.128 88.112 166.059 87.696 165.92C87.28 165.771 86.896 165.563 86.544 165.296V169.264H84.944ZM88.816 164.736C89.3387 164.736 89.8027 164.613 90.208 164.368C90.624 164.123 90.9547 163.792 91.2 163.376C91.4453 162.949 91.568 162.469 91.568 161.936C91.568 161.403 91.4453 160.923 91.2 160.496C90.9547 160.069 90.624 159.733 90.208 159.488C89.8027 159.243 89.3387 159.12 88.816 159.12C88.3573 159.12 87.9307 159.205 87.536 159.376C87.1413 159.547 86.8107 159.787 86.544 160.096V163.776C86.8107 164.075 87.1413 164.309 87.536 164.48C87.9413 164.651 88.368 164.736 88.816 164.736ZM94.6628 166V157.856H96.2628V158.896C96.5188 158.512 96.8334 158.213 97.2068 158C97.5908 157.776 98.0228 157.664 98.5028 157.664C98.8334 157.675 99.1054 157.723 99.3188 157.808V159.248C99.1694 159.184 99.0148 159.141 98.8548 159.12C98.6948 159.088 98.5348 159.072 98.3748 159.072C97.9054 159.072 97.4894 159.2 97.1268 159.456C96.7641 159.701 96.4761 160.064 96.2628 160.544V166H94.6628ZM104.004 166.16C103.214 166.16 102.494 165.973 101.844 165.6C101.204 165.227 100.697 164.72 100.324 164.08C99.9502 163.44 99.7635 162.725 99.7635 161.936C99.7635 161.147 99.9502 160.432 100.324 159.792C100.697 159.152 101.204 158.645 101.844 158.272C102.494 157.888 103.214 157.696 104.004 157.696C104.804 157.696 105.524 157.888 106.164 158.272C106.804 158.645 107.31 159.152 107.684 159.792C108.057 160.432 108.244 161.147 108.244 161.936C108.244 162.725 108.057 163.44 107.684 164.08C107.31 164.72 106.804 165.227 106.164 165.6C105.524 165.973 104.804 166.16 104.004 166.16ZM104.004 164.752C104.505 164.752 104.958 164.629 105.364 164.384C105.769 164.128 106.089 163.787 106.324 163.36C106.558 162.933 106.676 162.453 106.676 161.92C106.676 161.397 106.553 160.928 106.308 160.512C106.073 160.085 105.753 159.744 105.348 159.488C104.953 159.232 104.505 159.104 104.004 159.104C103.502 159.104 103.049 159.232 102.644 159.488C102.249 159.744 101.929 160.085 101.684 160.512C101.449 160.928 101.332 161.397 101.332 161.92C101.332 162.453 101.449 162.933 101.684 163.36C101.918 163.787 102.238 164.128 102.644 164.384C103.049 164.629 103.502 164.752 104.004 164.752ZM112.776 166.144C111.986 166.144 111.384 165.963 110.968 165.6C110.552 165.227 110.344 164.688 110.344 163.984V159.2H108.616V157.856H110.344V155.776L111.928 155.392V157.856H114.328V159.2H111.928V163.616C111.928 164.032 112.018 164.331 112.2 164.512C112.392 164.683 112.701 164.768 113.128 164.768C113.352 164.768 113.549 164.752 113.72 164.72C113.901 164.688 114.093 164.64 114.296 164.576V165.92C114.082 165.995 113.832 166.048 113.544 166.08C113.266 166.123 113.01 166.144 112.776 166.144ZM119.238 166.16C118.449 166.16 117.729 165.973 117.078 165.6C116.438 165.227 115.931 164.72 115.558 164.08C115.185 163.44 114.998 162.725 114.998 161.936C114.998 161.147 115.185 160.432 115.558 159.792C115.931 159.152 116.438 158.645 117.078 158.272C117.729 157.888 118.449 157.696 119.238 157.696C120.038 157.696 120.758 157.888 121.398 158.272C122.038 158.645 122.545 159.152 122.918 159.792C123.291 160.432 123.478 161.147 123.478 161.936C123.478 162.725 123.291 163.44 122.918 164.08C122.545 164.72 122.038 165.227 121.398 165.6C120.758 165.973 120.038 166.16 119.238 166.16ZM119.238 164.752C119.739 164.752 120.193 164.629 120.598 164.384C121.003 164.128 121.323 163.787 121.558 163.36C121.793 162.933 121.91 162.453 121.91 161.92C121.91 161.397 121.787 160.928 121.542 160.512C121.307 160.085 120.987 159.744 120.582 159.488C120.187 159.232 119.739 159.104 119.238 159.104C118.737 159.104 118.283 159.232 117.878 159.488C117.483 159.744 117.163 160.085 116.918 160.512C116.683 160.928 116.566 161.397 116.566 161.92C116.566 162.453 116.683 162.933 116.918 163.36C117.153 163.787 117.473 164.128 117.878 164.384C118.283 164.629 118.737 164.752 119.238 164.752ZM128.815 166.144C128.036 166.144 127.327 165.957 126.687 165.584C126.047 165.211 125.54 164.704 125.167 164.064C124.804 163.424 124.623 162.709 124.623 161.92C124.623 161.131 124.81 160.421 125.183 159.792C125.556 159.152 126.058 158.645 126.687 158.272C127.327 157.888 128.036 157.696 128.815 157.696C129.434 157.696 130.026 157.813 130.591 158.048C131.167 158.283 131.663 158.613 132.079 159.04L131.087 160.144C130.778 159.803 130.431 159.547 130.047 159.376C129.663 159.205 129.263 159.12 128.847 159.12C128.356 159.12 127.908 159.243 127.503 159.488C127.108 159.733 126.794 160.069 126.559 160.496C126.324 160.923 126.207 161.397 126.207 161.92C126.207 162.443 126.324 162.917 126.559 163.344C126.794 163.771 127.114 164.112 127.519 164.368C127.924 164.613 128.378 164.736 128.879 164.736C129.295 164.736 129.684 164.656 130.047 164.496C130.41 164.325 130.751 164.08 131.071 163.76L132.047 164.784C131.62 165.221 131.124 165.557 130.559 165.792C130.004 166.027 129.423 166.144 128.815 166.144ZM136.972 166.16C136.183 166.16 135.463 165.973 134.812 165.6C134.172 165.227 133.666 164.72 133.292 164.08C132.919 163.44 132.732 162.725 132.732 161.936C132.732 161.147 132.919 160.432 133.292 159.792C133.666 159.152 134.172 158.645 134.812 158.272C135.463 157.888 136.183 157.696 136.972 157.696C137.772 157.696 138.492 157.888 139.132 158.272C139.772 158.645 140.279 159.152 140.652 159.792C141.026 160.432 141.212 161.147 141.212 161.936C141.212 162.725 141.026 163.44 140.652 164.08C140.279 164.72 139.772 165.227 139.132 165.6C138.492 165.973 137.772 166.16 136.972 166.16ZM136.972 164.752C137.474 164.752 137.927 164.629 138.332 164.384C138.738 164.128 139.058 163.787 139.292 163.36C139.527 162.933 139.644 162.453 139.644 161.92C139.644 161.397 139.522 160.928 139.276 160.512C139.042 160.085 138.722 159.744 138.316 159.488C137.922 159.232 137.474 159.104 136.972 159.104C136.471 159.104 136.018 159.232 135.612 159.488C135.218 159.744 134.898 160.085 134.652 160.512C134.418 160.928 134.3 161.397 134.3 161.92C134.3 162.453 134.418 162.933 134.652 163.36C134.887 163.787 135.207 164.128 135.612 164.384C136.018 164.629 136.471 164.752 136.972 164.752ZM142.725 166V154.8L144.325 154.496V166H142.725ZM149.01 166.16C148.306 166.16 147.644 166.059 147.026 165.856C146.418 165.643 145.89 165.344 145.442 164.96L146.322 163.904C146.738 164.235 147.164 164.491 147.602 164.672C148.05 164.843 148.503 164.928 148.962 164.928C149.538 164.928 150.007 164.816 150.37 164.592C150.732 164.368 150.914 164.075 150.914 163.712C150.914 163.413 150.807 163.179 150.594 163.008C150.38 162.837 150.05 162.72 149.602 162.656L148.13 162.448C147.319 162.331 146.711 162.08 146.306 161.696C145.9 161.312 145.698 160.8 145.698 160.16C145.698 159.669 145.831 159.243 146.098 158.88C146.364 158.507 146.738 158.219 147.218 158.016C147.698 157.803 148.258 157.696 148.898 157.696C149.484 157.696 150.05 157.781 150.594 157.952C151.138 158.123 151.66 158.389 152.162 158.752L151.346 159.808C150.898 159.509 150.46 159.291 150.034 159.152C149.618 159.013 149.196 158.944 148.77 158.944C148.279 158.944 147.884 159.051 147.586 159.264C147.287 159.467 147.138 159.733 147.138 160.064C147.138 160.363 147.239 160.597 147.442 160.768C147.655 160.928 148.002 161.04 148.482 161.104L149.954 161.312C150.764 161.429 151.378 161.68 151.794 162.064C152.21 162.437 152.418 162.944 152.418 163.584C152.418 164.075 152.268 164.517 151.97 164.912C151.671 165.296 151.266 165.6 150.754 165.824C150.242 166.048 149.66 166.16 149.01 166.16ZM85.136 208V196.8H90.208C90.9547 196.8 91.6053 196.939 92.16 197.216C92.7253 197.493 93.1627 197.883 93.472 198.384C93.792 198.875 93.952 199.451 93.952 200.112C93.952 200.848 93.744 201.483 93.328 202.016C92.912 202.549 92.352 202.933 91.648 203.168L94.144 208H92.288L89.968 203.408H86.816V208H85.136ZM86.816 202H90.08C90.7413 202 91.2693 201.835 91.664 201.504C92.0693 201.163 92.272 200.704 92.272 200.128C92.272 199.573 92.0693 199.125 91.664 198.784C91.2693 198.443 90.7413 198.272 90.08 198.272H86.816V202ZM98.9105 208.144C98.1105 208.144 97.3852 207.957 96.7345 207.584C96.0945 207.211 95.5825 206.704 95.1985 206.064C94.8252 205.424 94.6385 204.709 94.6385 203.92C94.6385 203.141 94.8198 202.437 95.1825 201.808C95.5452 201.168 96.0358 200.661 96.6545 200.288C97.2732 199.904 97.9612 199.712 98.7185 199.712C99.4758 199.712 100.148 199.904 100.735 200.288C101.321 200.661 101.785 201.173 102.127 201.824C102.479 202.464 102.655 203.189 102.655 204V204.448H96.2385C96.3238 204.896 96.4892 205.296 96.7345 205.648C96.9905 206 97.3105 206.277 97.6945 206.48C98.0892 206.683 98.5158 206.784 98.9745 206.784C99.3692 206.784 99.7478 206.725 100.111 206.608C100.484 206.48 100.793 206.299 101.039 206.064L102.062 207.072C101.583 207.435 101.087 207.707 100.575 207.888C100.073 208.059 99.5185 208.144 98.9105 208.144ZM96.2545 203.248H101.071C101.007 202.821 100.857 202.448 100.623 202.128C100.399 201.797 100.116 201.541 99.7745 201.36C99.4438 201.168 99.0812 201.072 98.6865 201.072C98.2812 201.072 97.9078 201.163 97.5665 201.344C97.2252 201.525 96.9372 201.781 96.7025 202.112C96.4785 202.432 96.3292 202.811 96.2545 203.248ZM106.645 208.144C106.058 208.144 105.541 208.043 105.093 207.84C104.645 207.627 104.293 207.333 104.037 206.96C103.781 206.587 103.653 206.155 103.653 205.664C103.653 204.896 103.946 204.293 104.533 203.856C105.12 203.408 105.925 203.184 106.949 203.184C107.749 203.184 108.49 203.339 109.173 203.648V202.784C109.173 202.197 109.002 201.76 108.661 201.472C108.33 201.184 107.84 201.04 107.189 201.04C106.816 201.04 106.426 201.099 106.021 201.216C105.616 201.323 105.162 201.493 104.661 201.728L104.069 200.528C104.688 200.24 105.264 200.032 105.797 199.904C106.33 199.765 106.869 199.696 107.413 199.696C108.469 199.696 109.285 199.947 109.861 200.448C110.448 200.949 110.741 201.664 110.741 202.592V208H109.173V207.296C108.81 207.584 108.421 207.797 108.005 207.936C107.589 208.075 107.136 208.144 106.645 208.144ZM105.189 205.632C105.189 206.027 105.354 206.347 105.685 206.592C106.026 206.827 106.469 206.944 107.013 206.944C107.44 206.944 107.829 206.885 108.181 206.768C108.544 206.64 108.874 206.443 109.173 206.176V204.8C108.864 204.619 108.538 204.491 108.197 204.416C107.866 204.331 107.493 204.288 107.077 204.288C106.49 204.288 106.026 204.411 105.685 204.656C105.354 204.891 105.189 205.216 105.189 205.632ZM116.409 208.144C115.63 208.144 114.921 207.957 114.281 207.584C113.641 207.211 113.134 206.704 112.761 206.064C112.398 205.424 112.217 204.709 112.217 203.92C112.217 203.131 112.403 202.421 112.777 201.792C113.15 201.152 113.651 200.645 114.281 200.272C114.921 199.888 115.63 199.696 116.409 199.696C117.027 199.696 117.619 199.813 118.185 200.048C118.761 200.283 119.257 200.613 119.673 201.04L118.681 202.144C118.371 201.803 118.025 201.547 117.641 201.376C117.257 201.205 116.857 201.12 116.441 201.12C115.95 201.12 115.502 201.243 115.097 201.488C114.702 201.733 114.387 202.069 114.153 202.496C113.918 202.923 113.801 203.397 113.801 203.92C113.801 204.443 113.918 204.917 114.153 205.344C114.387 205.771 114.707 206.112 115.113 206.368C115.518 206.613 115.971 206.736 116.473 206.736C116.889 206.736 117.278 206.656 117.641 206.496C118.003 206.325 118.345 206.08 118.665 205.76L119.641 206.784C119.214 207.221 118.718 207.557 118.153 207.792C117.598 208.027 117.017 208.144 116.409 208.144ZM120.928 208V196.8L122.528 196.448V200.688C123.158 200.027 123.974 199.696 124.976 199.696C125.606 199.696 126.155 199.829 126.624 200.096C127.104 200.363 127.478 200.736 127.744 201.216C128.022 201.696 128.16 202.251 128.16 202.88V208H126.56V203.152C126.56 202.512 126.379 202.011 126.016 201.648C125.654 201.275 125.158 201.088 124.528 201.088C124.102 201.088 123.718 201.179 123.376 201.36C123.035 201.541 122.752 201.803 122.528 202.144V208H120.928ZM130.007 208V199.856H131.607V208H130.007ZM130.807 198.544C130.54 198.544 130.311 198.448 130.118 198.256C129.927 198.053 129.831 197.819 129.831 197.552C129.831 197.275 129.927 197.045 130.118 196.864C130.311 196.672 130.54 196.576 130.807 196.576C131.084 196.576 131.319 196.672 131.511 196.864C131.703 197.045 131.799 197.275 131.799 197.552C131.799 197.819 131.703 198.053 131.511 198.256C131.319 198.448 131.084 198.544 130.807 198.544ZM133.491 208V199.856H135.091V200.688C135.72 200.027 136.536 199.696 137.539 199.696C138.168 199.696 138.718 199.829 139.187 200.096C139.667 200.363 140.04 200.736 140.307 201.216C140.584 201.696 140.723 202.251 140.723 202.88V208H139.123V203.152C139.123 202.512 138.942 202.011 138.579 201.648C138.227 201.275 137.731 201.088 137.091 201.088C136.664 201.088 136.28 201.179 135.939 201.36C135.598 201.541 135.315 201.803 135.091 202.144V208H133.491ZM146.601 211.424C146.004 211.424 145.422 211.355 144.857 211.216C144.292 211.077 143.78 210.88 143.321 210.624L143.929 209.376C144.409 209.621 144.857 209.797 145.273 209.904C145.7 210.021 146.126 210.08 146.553 210.08C147.268 210.08 147.806 209.915 148.169 209.584C148.542 209.253 148.729 208.768 148.729 208.128V207.2C148.014 207.765 147.198 208.048 146.281 208.048C145.534 208.048 144.846 207.867 144.217 207.504C143.598 207.131 143.108 206.629 142.745 206C142.382 205.36 142.201 204.656 142.201 203.888C142.201 203.109 142.382 202.405 142.745 201.776C143.118 201.136 143.614 200.635 144.233 200.272C144.862 199.899 145.566 199.712 146.345 199.712C146.782 199.712 147.204 199.787 147.609 199.936C148.025 200.075 148.404 200.277 148.745 200.544V199.856H150.329V208.128C150.329 209.184 150.004 209.995 149.353 210.56C148.713 211.136 147.796 211.424 146.601 211.424ZM146.489 206.672C146.958 206.672 147.385 206.592 147.769 206.432C148.153 206.261 148.473 206.021 148.729 205.712V202.064C148.473 201.765 148.148 201.531 147.753 201.36C147.369 201.189 146.948 201.104 146.489 201.104C145.977 201.104 145.513 201.227 145.097 201.472C144.692 201.717 144.366 202.053 144.121 202.48C143.886 202.896 143.769 203.365 143.769 203.888C143.769 204.411 143.886 204.885 144.121 205.312C144.366 205.728 144.692 206.059 145.097 206.304C145.513 206.549 145.977 206.672 146.489 206.672ZM158.721 209.072V207.68C157.964 207.616 157.255 207.435 156.593 207.136C155.932 206.827 155.356 206.416 154.865 205.904L155.761 204.816C156.604 205.68 157.591 206.197 158.721 206.368V202.992L158.033 202.848C156.977 202.635 156.22 202.315 155.761 201.888C155.313 201.461 155.089 200.853 155.089 200.064C155.089 199.467 155.239 198.944 155.537 198.496C155.847 198.048 156.273 197.701 156.817 197.456C157.361 197.211 157.996 197.083 158.721 197.072V195.728H159.633V197.104C160.263 197.179 160.881 197.328 161.489 197.552C162.108 197.776 162.679 198.069 163.201 198.432L162.465 199.648C161.975 199.328 161.495 199.072 161.025 198.88C160.556 198.677 160.092 198.539 159.633 198.464V201.696L160.305 201.808C161.447 202.053 162.257 202.389 162.737 202.816C163.217 203.243 163.457 203.84 163.457 204.608C163.457 205.205 163.297 205.733 162.977 206.192C162.657 206.64 162.209 206.997 161.633 207.264C161.068 207.52 160.401 207.664 159.633 207.696V209.072H158.721ZM158.721 201.536V198.4C158.081 198.411 157.564 198.555 157.169 198.832C156.775 199.109 156.577 199.477 156.577 199.936C156.577 200.235 156.636 200.485 156.753 200.688C156.871 200.891 157.068 201.056 157.345 201.184C157.623 201.301 157.996 201.408 158.465 201.504L158.721 201.536ZM159.633 206.416C160.305 206.373 160.855 206.203 161.281 205.904C161.708 205.595 161.921 205.2 161.921 204.72C161.921 204.421 161.857 204.176 161.729 203.984C161.612 203.792 161.404 203.632 161.105 203.504C160.817 203.376 160.407 203.264 159.873 203.168L159.633 203.12V206.416ZM164.69 208V206.88L169.234 202.048C169.544 201.728 169.784 201.44 169.954 201.184C170.125 200.928 170.242 200.688 170.306 200.464C170.381 200.229 170.418 199.984 170.418 199.728C170.418 199.227 170.216 198.811 169.81 198.48C169.405 198.149 168.893 197.984 168.274 197.984C167.762 197.984 167.282 198.085 166.834 198.288C166.386 198.491 165.89 198.843 165.346 199.344L164.482 198.288C165.08 197.733 165.693 197.317 166.322 197.04C166.962 196.763 167.624 196.624 168.306 196.624C169.021 196.624 169.65 196.752 170.194 197.008C170.738 197.264 171.16 197.621 171.458 198.08C171.768 198.528 171.922 199.045 171.922 199.632C171.922 200.005 171.874 200.352 171.778 200.672C171.682 200.981 171.517 201.312 171.282 201.664C171.048 202.005 170.717 202.4 170.29 202.848L166.642 206.688L172.146 206.672V208H164.69ZM173.917 208V196.8H176.173L179.677 203.968L183.181 196.8H185.421V208H183.837V198.848L179.661 207.2L175.485 198.848V208H173.917ZM187.299 204.176V202.784H193.059V204.176H187.299ZM197.909 209.072V207.68C197.152 207.616 196.442 207.435 195.781 207.136C195.12 206.827 194.544 206.416 194.053 205.904L194.949 204.816C195.792 205.68 196.778 206.197 197.909 206.368V202.992L197.221 202.848C196.165 202.635 195.408 202.315 194.949 201.888C194.501 201.461 194.277 200.853 194.277 200.064C194.277 199.467 194.426 198.944 194.725 198.496C195.034 198.048 195.461 197.701 196.005 197.456C196.549 197.211 197.184 197.083 197.909 197.072V195.728H198.821V197.104C199.45 197.179 200.069 197.328 200.677 197.552C201.296 197.776 201.866 198.069 202.389 198.432L201.653 199.648C201.162 199.328 200.682 199.072 200.213 198.88C199.744 198.677 199.28 198.539 198.821 198.464V201.696L199.493 201.808C200.634 202.053 201.445 202.389 201.925 202.816C202.405 203.243 202.645 203.84 202.645 204.608C202.645 205.205 202.485 205.733 202.165 206.192C201.845 206.64 201.397 206.997 200.821 207.264C200.256 207.52 199.589 207.664 198.821 207.696V209.072H197.909ZM197.909 201.536V198.4C197.269 198.411 196.752 198.555 196.357 198.832C195.962 199.109 195.765 199.477 195.765 199.936C195.765 200.235 195.824 200.485 195.941 200.688C196.058 200.891 196.256 201.056 196.533 201.184C196.81 201.301 197.184 201.408 197.653 201.504L197.909 201.536ZM198.821 206.416C199.493 206.373 200.042 206.203 200.469 205.904C200.896 205.595 201.109 205.2 201.109 204.72C201.109 204.421 201.045 204.176 200.917 203.984C200.8 203.792 200.592 203.632 200.293 203.504C200.005 203.376 199.594 203.264 199.061 203.168L198.821 203.12V206.416ZM207.574 208.176C206.08 208.176 204.784 207.669 203.686 206.656L204.63 205.6C205.11 206.037 205.584 206.357 206.054 206.56C206.534 206.752 207.056 206.848 207.622 206.848C208.134 206.848 208.576 206.752 208.95 206.56C209.323 206.357 209.616 206.08 209.83 205.728C210.043 205.365 210.15 204.955 210.15 204.496C210.15 203.824 209.91 203.28 209.43 202.864C208.96 202.448 208.347 202.24 207.59 202.24C207.206 202.24 206.827 202.293 206.454 202.4C206.08 202.496 205.691 202.651 205.286 202.864L204.198 202.528L204.454 196.8H211.11V198.128H205.798L205.638 201.584C206.054 201.371 206.448 201.227 206.822 201.152C207.206 201.067 207.6 201.024 208.006 201.024C208.752 201.024 209.398 201.168 209.942 201.456C210.496 201.733 210.928 202.128 211.238 202.64C211.547 203.152 211.702 203.744 211.702 204.416C211.702 205.163 211.526 205.819 211.174 206.384C210.832 206.939 210.352 207.376 209.734 207.696C209.115 208.016 208.395 208.176 207.574 208.176ZM213.542 208V196.8H215.798L219.302 203.968L222.806 196.8H225.046V208H223.462V198.848L219.286 207.2L215.11 198.848V208H213.542ZM233.739 208V198.288H229.803V196.8H239.355V198.288H235.419V208H233.739ZM244.451 208L239.875 196.8H241.683L245.475 206.336L249.331 196.8H251.059L246.419 208H244.451ZM252.214 208V196.8H253.894V206.512H260.342V208H252.214ZM265.194 208V199.856H266.794V208H265.194ZM265.994 198.544C265.727 198.544 265.498 198.448 265.306 198.256C265.114 198.053 265.018 197.819 265.018 197.552C265.018 197.275 265.114 197.045 265.306 196.864C265.498 196.672 265.727 196.576 265.994 196.576C266.271 196.576 266.506 196.672 266.698 196.864C266.89 197.045 266.986 197.275 266.986 197.552C266.986 197.819 266.89 198.053 266.698 198.256C266.506 198.448 266.271 198.544 265.994 198.544ZM268.678 208V199.856H270.278V200.688C270.908 200.027 271.724 199.696 272.726 199.696C273.356 199.696 273.905 199.829 274.374 200.096C274.854 200.363 275.228 200.736 275.494 201.216C275.772 201.696 275.91 202.251 275.91 202.88V208H274.31V203.152C274.31 202.512 274.129 202.011 273.766 201.648C273.414 201.275 272.918 201.088 272.278 201.088C271.852 201.088 271.468 201.179 271.126 201.36C270.785 201.541 270.502 201.803 270.278 202.144V208H268.678ZM283.676 208.144C283.09 208.144 282.572 208.043 282.124 207.84C281.676 207.627 281.324 207.333 281.068 206.96C280.812 206.587 280.684 206.155 280.684 205.664C280.684 204.896 280.978 204.293 281.564 203.856C282.151 203.408 282.956 203.184 283.98 203.184C284.78 203.184 285.522 203.339 286.204 203.648V202.784C286.204 202.197 286.034 201.76 285.692 201.472C285.362 201.184 284.871 201.04 284.22 201.04C283.847 201.04 283.458 201.099 283.052 201.216C282.647 201.323 282.194 201.493 281.692 201.728L281.1 200.528C281.719 200.24 282.295 200.032 282.828 199.904C283.362 199.765 283.9 199.696 284.444 199.696C285.5 199.696 286.316 199.947 286.892 200.448C287.479 200.949 287.772 201.664 287.772 202.592V208H286.204V207.296C285.842 207.584 285.452 207.797 285.036 207.936C284.62 208.075 284.167 208.144 283.676 208.144ZM282.22 205.632C282.22 206.027 282.386 206.347 282.716 206.592C283.058 206.827 283.5 206.944 284.044 206.944C284.471 206.944 284.86 206.885 285.212 206.768C285.575 206.64 285.906 206.443 286.204 206.176V204.8C285.895 204.619 285.57 204.491 285.228 204.416C284.898 204.331 284.524 204.288 284.108 204.288C283.522 204.288 283.058 204.411 282.716 204.656C282.386 204.891 282.22 205.216 282.22 205.632ZM296.784 208.144C296.005 208.144 295.296 207.957 294.656 207.584C294.016 207.211 293.509 206.704 293.136 206.064C292.773 205.424 292.592 204.709 292.592 203.92C292.592 203.131 292.778 202.421 293.152 201.792C293.525 201.152 294.026 200.645 294.656 200.272C295.296 199.888 296.005 199.696 296.784 199.696C297.402 199.696 297.994 199.813 298.56 200.048C299.136 200.283 299.632 200.613 300.048 201.04L299.056 202.144C298.746 201.803 298.4 201.547 298.016 201.376C297.632 201.205 297.232 201.12 296.816 201.12C296.325 201.12 295.877 201.243 295.472 201.488C295.077 201.733 294.762 202.069 294.528 202.496C294.293 202.923 294.176 203.397 294.176 203.92C294.176 204.443 294.293 204.917 294.528 205.344C294.762 205.771 295.082 206.112 295.488 206.368C295.893 206.613 296.346 206.736 296.848 206.736C297.264 206.736 297.653 206.656 298.016 206.496C298.378 206.325 298.72 206.08 299.04 205.76L300.016 206.784C299.589 207.221 299.093 207.557 298.528 207.792C297.973 208.027 297.392 208.144 296.784 208.144ZM304.941 208.16C304.152 208.16 303.432 207.973 302.781 207.6C302.141 207.227 301.634 206.72 301.261 206.08C300.888 205.44 300.701 204.725 300.701 203.936C300.701 203.147 300.888 202.432 301.261 201.792C301.634 201.152 302.141 200.645 302.781 200.272C303.432 199.888 304.152 199.696 304.941 199.696C305.741 199.696 306.461 199.888 307.101 200.272C307.741 200.645 308.248 201.152 308.621 201.792C308.994 202.432 309.181 203.147 309.181 203.936C309.181 204.725 308.994 205.44 308.621 206.08C308.248 206.72 307.741 207.227 307.101 207.6C306.461 207.973 305.741 208.16 304.941 208.16ZM304.941 206.752C305.442 206.752 305.896 206.629 306.301 206.384C306.706 206.128 307.026 205.787 307.261 205.36C307.496 204.933 307.613 204.453 307.613 203.92C307.613 203.397 307.49 202.928 307.245 202.512C307.01 202.085 306.69 201.744 306.285 201.488C305.89 201.232 305.442 201.104 304.941 201.104C304.44 201.104 303.986 201.232 303.581 201.488C303.186 201.744 302.866 202.085 302.621 202.512C302.386 202.928 302.269 203.397 302.269 203.92C302.269 204.453 302.386 204.933 302.621 205.36C302.856 205.787 303.176 206.128 303.581 206.384C303.986 206.629 304.44 206.752 304.941 206.752ZM313.846 208.16C313.217 208.16 312.662 208.027 312.182 207.76C311.702 207.493 311.329 207.12 311.062 206.64C310.795 206.149 310.662 205.589 310.662 204.96V199.856H312.246V204.688C312.246 205.328 312.427 205.835 312.79 206.208C313.163 206.581 313.659 206.768 314.278 206.768C314.715 206.768 315.105 206.677 315.446 206.496C315.787 206.304 316.065 206.037 316.278 205.696V199.856H317.878V208H316.278V207.168C315.649 207.829 314.838 208.16 313.846 208.16ZM319.772 211.264V199.856H321.356V200.64C322.039 200.032 322.871 199.728 323.852 199.728C324.62 199.728 325.313 199.915 325.932 200.288C326.561 200.661 327.057 201.163 327.42 201.792C327.783 202.421 327.964 203.131 327.964 203.92C327.964 204.709 327.777 205.424 327.404 206.064C327.041 206.693 326.545 207.195 325.916 207.568C325.297 207.941 324.599 208.128 323.82 208.128C323.372 208.128 322.94 208.059 322.524 207.92C322.108 207.771 321.724 207.563 321.372 207.296V211.264H319.772ZM323.644 206.736C324.167 206.736 324.631 206.613 325.036 206.368C325.452 206.123 325.783 205.792 326.028 205.376C326.273 204.949 326.396 204.469 326.396 203.936C326.396 203.403 326.273 202.923 326.028 202.496C325.783 202.069 325.452 201.733 325.036 201.488C324.631 201.243 324.167 201.12 323.644 201.12C323.185 201.12 322.759 201.205 322.364 201.376C321.969 201.547 321.639 201.787 321.372 202.096V205.776C321.639 206.075 321.969 206.309 322.364 206.48C322.769 206.651 323.196 206.736 323.644 206.736ZM329.491 208V196.8L331.091 196.496V208H329.491ZM336.879 208.144C336.079 208.144 335.354 207.957 334.703 207.584C334.063 207.211 333.551 206.704 333.167 206.064C332.794 205.424 332.607 204.709 332.607 203.92C332.607 203.141 332.789 202.437 333.151 201.808C333.514 201.168 334.005 200.661 334.623 200.288C335.242 199.904 335.93 199.712 336.687 199.712C337.445 199.712 338.117 199.904 338.703 200.288C339.29 200.661 339.754 201.173 340.095 201.824C340.447 202.464 340.623 203.189 340.623 204V204.448H334.207C334.293 204.896 334.458 205.296 334.703 205.648C334.959 206 335.279 206.277 335.663 206.48C336.058 206.683 336.485 206.784 336.943 206.784C337.338 206.784 337.717 206.725 338.079 206.608C338.453 206.48 338.762 206.299 339.007 206.064L340.031 207.072C339.551 207.435 339.055 207.707 338.543 207.888C338.042 208.059 337.487 208.144 336.879 208.144ZM334.223 203.248H339.039C338.975 202.821 338.826 202.448 338.591 202.128C338.367 201.797 338.085 201.541 337.743 201.36C337.413 201.168 337.05 201.072 336.655 201.072C336.25 201.072 335.877 201.163 335.535 201.344C335.194 201.525 334.906 201.781 334.671 202.112C334.447 202.432 334.298 202.811 334.223 203.248ZM347.011 208L344.739 199.856H346.291L347.875 205.84L349.731 199.856H351.107L352.963 205.84L354.547 199.856H356.051L353.763 208H352.227L350.403 202.032L348.563 208H347.011ZM360.942 208.144C360.142 208.144 359.416 207.957 358.766 207.584C358.126 207.211 357.614 206.704 357.23 206.064C356.856 205.424 356.67 204.709 356.67 203.92C356.67 203.141 356.851 202.437 357.214 201.808C357.576 201.168 358.067 200.661 358.686 200.288C359.304 199.904 359.992 199.712 360.75 199.712C361.507 199.712 362.179 199.904 362.766 200.288C363.352 200.661 363.816 201.173 364.158 201.824C364.51 202.464 364.686 203.189 364.686 204V204.448H358.27C358.355 204.896 358.52 205.296 358.766 205.648C359.022 206 359.342 206.277 359.726 206.48C360.12 206.683 360.547 206.784 361.006 206.784C361.4 206.784 361.779 206.725 362.142 206.608C362.515 206.48 362.824 206.299 363.07 206.064L364.094 207.072C363.614 207.435 363.118 207.707 362.606 207.888C362.104 208.059 361.55 208.144 360.942 208.144ZM358.286 203.248H363.102C363.038 202.821 362.888 202.448 362.654 202.128C362.43 201.797 362.147 201.541 361.806 201.36C361.475 201.168 361.112 201.072 360.718 201.072C360.312 201.072 359.939 201.163 359.598 201.344C359.256 201.525 358.968 201.781 358.734 202.112C358.51 202.432 358.36 202.811 358.286 203.248ZM370.129 208.144C369.329 208.144 368.604 207.957 367.953 207.584C367.313 207.211 366.801 206.704 366.417 206.064C366.044 205.424 365.857 204.709 365.857 203.92C365.857 203.141 366.039 202.437 366.401 201.808C366.764 201.168 367.255 200.661 367.873 200.288C368.492 199.904 369.18 199.712 369.937 199.712C370.695 199.712 371.367 199.904 371.953 200.288C372.54 200.661 373.004 201.173 373.345 201.824C373.697 202.464 373.873 203.189 373.873 204V204.448H367.457C367.543 204.896 367.708 205.296 367.953 205.648C368.209 206 368.529 206.277 368.913 206.48C369.308 206.683 369.735 206.784 370.193 206.784C370.588 206.784 370.967 206.725 371.329 206.608C371.703 206.48 372.012 206.299 372.257 206.064L373.281 207.072C372.801 207.435 372.305 207.707 371.793 207.888C371.292 208.059 370.737 208.144 370.129 208.144ZM367.473 203.248H372.289C372.225 202.821 372.076 202.448 371.841 202.128C371.617 201.797 371.335 201.541 370.993 201.36C370.663 201.168 370.3 201.072 369.905 201.072C369.5 201.072 369.127 201.163 368.785 201.344C368.444 201.525 368.156 201.781 367.921 202.112C367.697 202.432 367.548 202.811 367.473 203.248ZM375.397 208V196.8L376.997 196.496V203.424L380.949 199.856H382.821L378.613 203.664L383.045 208H380.933L376.997 204.176V208H375.397ZM386.478 208.16C385.774 208.16 385.113 208.059 384.494 207.856C383.886 207.643 383.358 207.344 382.91 206.96L383.79 205.904C384.206 206.235 384.633 206.491 385.07 206.672C385.518 206.843 385.972 206.928 386.43 206.928C387.006 206.928 387.476 206.816 387.838 206.592C388.201 206.368 388.382 206.075 388.382 205.712C388.382 205.413 388.276 205.179 388.062 205.008C387.849 204.837 387.518 204.72 387.07 204.656L385.598 204.448C384.788 204.331 384.18 204.08 383.774 203.696C383.369 203.312 383.166 202.8 383.166 202.16C383.166 201.669 383.3 201.243 383.566 200.88C383.833 200.507 384.206 200.219 384.686 200.016C385.166 199.803 385.726 199.696 386.366 199.696C386.953 199.696 387.518 199.781 388.062 199.952C388.606 200.123 389.129 200.389 389.63 200.752L388.814 201.808C388.366 201.509 387.929 201.291 387.502 201.152C387.086 201.013 386.665 200.944 386.238 200.944C385.748 200.944 385.353 201.051 385.054 201.264C384.756 201.467 384.606 201.733 384.606 202.064C384.606 202.363 384.708 202.597 384.91 202.768C385.124 202.928 385.47 203.04 385.95 203.104L387.422 203.312C388.233 203.429 388.846 203.68 389.262 204.064C389.678 204.437 389.886 204.944 389.886 205.584C389.886 206.075 389.737 206.517 389.438 206.912C389.14 207.296 388.734 207.6 388.222 207.824C387.71 208.048 387.129 208.16 386.478 208.16ZM397.036 208.144C396.449 208.144 395.932 208.043 395.484 207.84C395.036 207.627 394.684 207.333 394.428 206.96C394.172 206.587 394.044 206.155 394.044 205.664C394.044 204.896 394.337 204.293 394.924 203.856C395.51 203.408 396.316 203.184 397.34 203.184C398.14 203.184 398.881 203.339 399.564 203.648V202.784C399.564 202.197 399.393 201.76 399.052 201.472C398.721 201.184 398.23 201.04 397.58 201.04C397.206 201.04 396.817 201.099 396.412 201.216C396.006 201.323 395.553 201.493 395.052 201.728L394.46 200.528C395.078 200.24 395.654 200.032 396.188 199.904C396.721 199.765 397.26 199.696 397.804 199.696C398.86 199.696 399.676 199.947 400.252 200.448C400.838 200.949 401.132 201.664 401.132 202.592V208H399.564V207.296C399.201 207.584 398.812 207.797 398.396 207.936C397.98 208.075 397.526 208.144 397.036 208.144ZM395.58 205.632C395.58 206.027 395.745 206.347 396.076 206.592C396.417 206.827 396.86 206.944 397.404 206.944C397.83 206.944 398.22 206.885 398.572 206.768C398.934 206.64 399.265 206.443 399.564 206.176V204.8C399.254 204.619 398.929 204.491 398.588 204.416C398.257 204.331 397.884 204.288 397.468 204.288C396.881 204.288 396.417 204.411 396.076 204.656C395.745 204.891 395.58 205.216 395.58 205.632ZM403.957 208V201.2H402.069V199.856H403.957V198.624C403.957 197.771 404.192 197.12 404.661 196.672C405.141 196.224 405.824 196 406.709 196C406.933 196 407.141 196.016 407.333 196.048C407.536 196.069 407.717 196.107 407.877 196.16V197.536C407.685 197.483 407.514 197.445 407.365 197.424C407.216 197.392 407.05 197.376 406.869 197.376C406.421 197.376 406.085 197.483 405.861 197.696C405.648 197.899 405.541 198.224 405.541 198.672V199.856H407.877V201.2H405.541V208H403.957ZM412.698 208.144C411.908 208.144 411.306 207.963 410.89 207.6C410.474 207.227 410.266 206.688 410.266 205.984V201.2H408.538V199.856H410.266V197.776L411.85 197.392V199.856H414.25V201.2H411.85V205.616C411.85 206.032 411.94 206.331 412.122 206.512C412.314 206.683 412.623 206.768 413.05 206.768C413.274 206.768 413.471 206.752 413.642 206.72C413.823 206.688 414.015 206.64 414.218 206.576V207.92C414.004 207.995 413.754 208.048 413.466 208.08C413.188 208.123 412.932 208.144 412.698 208.144ZM419.192 208.144C418.392 208.144 417.666 207.957 417.016 207.584C416.376 207.211 415.864 206.704 415.48 206.064C415.106 205.424 414.92 204.709 414.92 203.92C414.92 203.141 415.101 202.437 415.464 201.808C415.826 201.168 416.317 200.661 416.936 200.288C417.554 199.904 418.242 199.712 419 199.712C419.757 199.712 420.429 199.904 421.016 200.288C421.602 200.661 422.066 201.173 422.408 201.824C422.76 202.464 422.936 203.189 422.936 204V204.448H416.52C416.605 204.896 416.77 205.296 417.016 205.648C417.272 206 417.592 206.277 417.976 206.48C418.37 206.683 418.797 206.784 419.256 206.784C419.65 206.784 420.029 206.725 420.392 206.608C420.765 206.48 421.074 206.299 421.32 206.064L422.344 207.072C421.864 207.435 421.368 207.707 420.856 207.888C420.354 208.059 419.8 208.144 419.192 208.144ZM416.536 203.248H421.352C421.288 202.821 421.138 202.448 420.904 202.128C420.68 201.797 420.397 201.541 420.056 201.36C419.725 201.168 419.362 201.072 418.968 201.072C418.562 201.072 418.189 201.163 417.848 201.344C417.506 201.525 417.218 201.781 416.984 202.112C416.76 202.432 416.61 202.811 416.536 203.248ZM424.46 208V199.856H426.06V200.896C426.316 200.512 426.63 200.213 427.004 200C427.388 199.776 427.82 199.664 428.3 199.664C428.63 199.675 428.902 199.723 429.116 199.808V201.248C428.966 201.184 428.812 201.141 428.652 201.12C428.492 201.088 428.332 201.072 428.172 201.072C427.702 201.072 427.286 201.2 426.924 201.456C426.561 201.701 426.273 202.064 426.06 202.544V208H424.46ZM88.432 229.144C87.6427 229.144 87.04 228.963 86.624 228.6C86.208 228.227 86 227.688 86 226.984V222.2H84.272V220.856H86V218.776L87.584 218.392V220.856H89.984V222.2H87.584V226.616C87.584 227.032 87.6747 227.331 87.856 227.512C88.048 227.683 88.3573 227.768 88.784 227.768C89.008 227.768 89.2053 227.752 89.376 227.72C89.5573 227.688 89.7493 227.64 89.952 227.576V228.92C89.7387 228.995 89.488 229.048 89.2 229.08C88.9227 229.123 88.6667 229.144 88.432 229.144ZM91.1628 229V217.8L92.7628 217.448V221.688C93.3921 221.027 94.2081 220.696 95.2108 220.696C95.8401 220.696 96.3894 220.829 96.8588 221.096C97.3388 221.363 97.7121 221.736 97.9788 222.216C98.2561 222.696 98.3948 223.251 98.3948 223.88V229H96.7948V224.152C96.7948 223.512 96.6134 223.011 96.2508 222.648C95.8881 222.275 95.3921 222.088 94.7628 222.088C94.3361 222.088 93.9521 222.179 93.6108 222.36C93.2694 222.541 92.9868 222.803 92.7628 223.144V229H91.1628ZM104.145 229.144C103.345 229.144 102.62 228.957 101.969 228.584C101.329 228.211 100.817 227.704 100.433 227.064C100.06 226.424 99.8729 225.709 99.8729 224.92C99.8729 224.141 100.054 223.437 100.417 222.808C100.78 222.168 101.27 221.661 101.889 221.288C102.508 220.904 103.196 220.712 103.953 220.712C104.71 220.712 105.382 220.904 105.969 221.288C106.556 221.661 107.02 222.173 107.361 222.824C107.713 223.464 107.889 224.189 107.889 225V225.448H101.473C101.558 225.896 101.724 226.296 101.969 226.648C102.225 227 102.545 227.277 102.929 227.48C103.324 227.683 103.75 227.784 104.209 227.784C104.604 227.784 104.982 227.725 105.345 227.608C105.718 227.48 106.028 227.299 106.273 227.064L107.297 228.072C106.817 228.435 106.321 228.707 105.809 228.888C105.308 229.059 104.753 229.144 104.145 229.144ZM101.489 224.248H106.305C106.241 223.821 106.092 223.448 105.857 223.128C105.633 222.797 105.35 222.541 105.009 222.36C104.678 222.168 104.316 222.072 103.921 222.072C103.516 222.072 103.142 222.163 102.801 222.344C102.46 222.525 102.172 222.781 101.937 223.112C101.713 223.432 101.564 223.811 101.489 224.248ZM112.757 232.264V220.856H114.341V221.64C115.023 221.032 115.855 220.728 116.837 220.728C117.605 220.728 118.298 220.915 118.917 221.288C119.546 221.661 120.042 222.163 120.405 222.792C120.767 223.421 120.949 224.131 120.949 224.92C120.949 225.709 120.762 226.424 120.389 227.064C120.026 227.693 119.53 228.195 118.901 228.568C118.282 228.941 117.583 229.128 116.805 229.128C116.357 229.128 115.925 229.059 115.509 228.92C115.093 228.771 114.709 228.563 114.357 228.296V232.264H112.757ZM116.629 227.736C117.151 227.736 117.615 227.613 118.021 227.368C118.437 227.123 118.767 226.792 119.013 226.376C119.258 225.949 119.381 225.469 119.381 224.936C119.381 224.403 119.258 223.923 119.013 223.496C118.767 223.069 118.437 222.733 118.021 222.488C117.615 222.243 117.151 222.12 116.629 222.12C116.17 222.12 115.743 222.205 115.349 222.376C114.954 222.547 114.623 222.787 114.357 223.096V226.776C114.623 227.075 114.954 227.309 115.349 227.48C115.754 227.651 116.181 227.736 116.629 227.736ZM122.475 229V217.8L124.075 217.496V229H122.475ZM128.536 229.144C127.949 229.144 127.432 229.043 126.984 228.84C126.536 228.627 126.184 228.333 125.928 227.96C125.672 227.587 125.544 227.155 125.544 226.664C125.544 225.896 125.837 225.293 126.424 224.856C127.01 224.408 127.816 224.184 128.84 224.184C129.64 224.184 130.381 224.339 131.064 224.648V223.784C131.064 223.197 130.893 222.76 130.552 222.472C130.221 222.184 129.73 222.04 129.08 222.04C128.706 222.04 128.317 222.099 127.912 222.216C127.506 222.323 127.053 222.493 126.552 222.728L125.96 221.528C126.578 221.24 127.154 221.032 127.688 220.904C128.221 220.765 128.76 220.696 129.304 220.696C130.36 220.696 131.176 220.947 131.752 221.448C132.338 221.949 132.632 222.664 132.632 223.592V229H131.064V228.296C130.701 228.584 130.312 228.797 129.896 228.936C129.48 229.075 129.026 229.144 128.536 229.144ZM127.08 226.632C127.08 227.027 127.245 227.347 127.576 227.592C127.917 227.827 128.36 227.944 128.904 227.944C129.33 227.944 129.72 227.885 130.072 227.768C130.434 227.64 130.765 227.443 131.064 227.176V225.8C130.754 225.619 130.429 225.491 130.088 225.416C129.757 225.331 129.384 225.288 128.968 225.288C128.381 225.288 127.917 225.411 127.576 225.656C127.245 225.891 127.08 226.216 127.08 226.632ZM137.729 229.144C136.94 229.144 136.337 228.963 135.921 228.6C135.505 228.227 135.297 227.688 135.297 226.984V222.2H133.569V220.856H135.297V218.776L136.881 218.392V220.856H139.281V222.2H136.881V226.616C136.881 227.032 136.972 227.331 137.153 227.512C137.345 227.683 137.654 227.768 138.081 227.768C138.305 227.768 138.502 227.752 138.673 227.72C138.854 227.688 139.046 227.64 139.249 227.576V228.92C139.036 228.995 138.785 229.048 138.497 229.08C138.22 229.123 137.964 229.144 137.729 229.144ZM141.832 229V222.2H139.944V220.856H141.832V219.624C141.832 218.771 142.067 218.12 142.536 217.672C143.016 217.224 143.699 217 144.584 217C144.808 217 145.016 217.016 145.208 217.048C145.411 217.069 145.592 217.107 145.752 217.16V218.536C145.56 218.483 145.389 218.445 145.24 218.424C145.091 218.392 144.925 218.376 144.744 218.376C144.296 218.376 143.96 218.483 143.736 218.696C143.523 218.899 143.416 219.224 143.416 219.672V220.856H145.752V222.2H143.416V229H141.832ZM150.457 229.16C149.667 229.16 148.947 228.973 148.297 228.6C147.657 228.227 147.15 227.72 146.777 227.08C146.403 226.44 146.217 225.725 146.217 224.936C146.217 224.147 146.403 223.432 146.777 222.792C147.15 222.152 147.657 221.645 148.297 221.272C148.947 220.888 149.667 220.696 150.457 220.696C151.257 220.696 151.977 220.888 152.617 221.272C153.257 221.645 153.763 222.152 154.137 222.792C154.51 223.432 154.697 224.147 154.697 224.936C154.697 225.725 154.51 226.44 154.137 227.08C153.763 227.72 153.257 228.227 152.617 228.6C151.977 228.973 151.257 229.16 150.457 229.16ZM150.457 227.752C150.958 227.752 151.411 227.629 151.817 227.384C152.222 227.128 152.542 226.787 152.777 226.36C153.011 225.933 153.129 225.453 153.129 224.92C153.129 224.397 153.006 223.928 152.761 223.512C152.526 223.085 152.206 222.744 151.801 222.488C151.406 222.232 150.958 222.104 150.457 222.104C149.955 222.104 149.502 222.232 149.097 222.488C148.702 222.744 148.382 223.085 148.137 223.512C147.902 223.928 147.785 224.397 147.785 224.92C147.785 225.453 147.902 225.933 148.137 226.36C148.371 226.787 148.691 227.128 149.097 227.384C149.502 227.629 149.955 227.752 150.457 227.752ZM156.21 229V220.856H157.81V221.896C158.066 221.512 158.38 221.213 158.754 221C159.138 220.776 159.57 220.664 160.05 220.664C160.38 220.675 160.652 220.723 160.866 220.808V222.248C160.716 222.184 160.562 222.141 160.402 222.12C160.242 222.088 160.082 222.072 159.922 222.072C159.452 222.072 159.036 222.2 158.674 222.456C158.311 222.701 158.023 223.064 157.81 223.544V229H156.21ZM162.147 229V220.856H163.747V221.64C164.355 221.011 165.118 220.696 166.035 220.696C166.59 220.696 167.08 220.819 167.507 221.064C167.944 221.309 168.291 221.64 168.547 222.056C168.888 221.608 169.288 221.272 169.747 221.048C170.206 220.813 170.723 220.696 171.299 220.696C171.907 220.696 172.435 220.829 172.883 221.096C173.342 221.363 173.699 221.736 173.955 222.216C174.222 222.696 174.355 223.251 174.355 223.88V229H172.755V224.152C172.755 223.512 172.584 223.011 172.243 222.648C171.912 222.275 171.459 222.088 170.883 222.088C170.488 222.088 170.131 222.179 169.811 222.36C169.491 222.541 169.214 222.819 168.979 223.192C169 223.299 169.016 223.411 169.027 223.528C169.038 223.645 169.043 223.763 169.043 223.88V229H167.459V224.152C167.459 223.512 167.288 223.011 166.947 222.648C166.616 222.275 166.163 222.088 165.587 222.088C165.203 222.088 164.856 222.173 164.547 222.344C164.238 222.504 163.971 222.749 163.747 223.08V229H162.147ZM179.538 229V217.8L181.138 217.496V229H179.538ZM185.598 229.144C185.011 229.144 184.494 229.043 184.046 228.84C183.598 228.627 183.246 228.333 182.99 227.96C182.734 227.587 182.606 227.155 182.606 226.664C182.606 225.896 182.899 225.293 183.486 224.856C184.073 224.408 184.878 224.184 185.902 224.184C186.702 224.184 187.443 224.339 188.126 224.648V223.784C188.126 223.197 187.955 222.76 187.614 222.472C187.283 222.184 186.793 222.04 186.142 222.04C185.769 222.04 185.379 222.099 184.974 222.216C184.569 222.323 184.115 222.493 183.614 222.728L183.022 221.528C183.641 221.24 184.217 221.032 184.75 220.904C185.283 220.765 185.822 220.696 186.366 220.696C187.422 220.696 188.238 220.947 188.814 221.448C189.401 221.949 189.694 222.664 189.694 223.592V229H188.126V228.296C187.763 228.584 187.374 228.797 186.958 228.936C186.542 229.075 186.089 229.144 185.598 229.144ZM184.142 226.632C184.142 227.027 184.307 227.347 184.638 227.592C184.979 227.827 185.422 227.944 185.966 227.944C186.393 227.944 186.782 227.885 187.134 227.768C187.497 227.64 187.827 227.443 188.126 227.176V225.8C187.817 225.619 187.491 225.491 187.15 225.416C186.819 225.331 186.446 225.288 186.03 225.288C185.443 225.288 184.979 225.411 184.638 225.656C184.307 225.891 184.142 226.216 184.142 226.632ZM194.612 229.16C193.982 229.16 193.428 229.027 192.948 228.76C192.468 228.493 192.094 228.12 191.828 227.64C191.561 227.149 191.428 226.589 191.428 225.96V220.856H193.012V225.688C193.012 226.328 193.193 226.835 193.556 227.208C193.929 227.581 194.425 227.768 195.044 227.768C195.481 227.768 195.87 227.677 196.212 227.496C196.553 227.304 196.83 227.037 197.044 226.696V220.856H198.644V229H197.044V228.168C196.414 228.829 195.604 229.16 194.612 229.16ZM200.538 229V220.856H202.138V221.688C202.767 221.027 203.583 220.696 204.586 220.696C205.215 220.696 205.764 220.829 206.234 221.096C206.714 221.363 207.087 221.736 207.354 222.216C207.631 222.696 207.77 223.251 207.77 223.88V229H206.17V224.152C206.17 223.512 205.988 223.011 205.626 222.648C205.274 222.275 204.778 222.088 204.138 222.088C203.711 222.088 203.327 222.179 202.986 222.36C202.644 222.541 202.362 222.803 202.138 223.144V229H200.538ZM213.44 229.144C212.661 229.144 211.952 228.957 211.312 228.584C210.672 228.211 210.165 227.704 209.792 227.064C209.429 226.424 209.248 225.709 209.248 224.92C209.248 224.131 209.435 223.421 209.808 222.792C210.181 222.152 210.683 221.645 211.312 221.272C211.952 220.888 212.661 220.696 213.44 220.696C214.059 220.696 214.651 220.813 215.216 221.048C215.792 221.283 216.288 221.613 216.704 222.04L215.712 223.144C215.403 222.803 215.056 222.547 214.672 222.376C214.288 222.205 213.888 222.12 213.472 222.12C212.981 222.12 212.533 222.243 212.128 222.488C211.733 222.733 211.419 223.069 211.184 223.496C210.949 223.923 210.832 224.397 210.832 224.92C210.832 225.443 210.949 225.917 211.184 226.344C211.419 226.771 211.739 227.112 212.144 227.368C212.549 227.613 213.003 227.736 213.504 227.736C213.92 227.736 214.309 227.656 214.672 227.496C215.035 227.325 215.376 227.08 215.696 226.76L216.672 227.784C216.245 228.221 215.749 228.557 215.184 228.792C214.629 229.027 214.048 229.144 213.44 229.144ZM217.96 229V217.8L219.56 217.448V221.688C220.189 221.027 221.005 220.696 222.008 220.696C222.637 220.696 223.186 220.829 223.656 221.096C224.136 221.363 224.509 221.736 224.776 222.216C225.053 222.696 225.192 223.251 225.192 223.88V229H223.592V224.152C223.592 223.512 223.41 223.011 223.048 222.648C222.685 222.275 222.189 222.088 221.56 222.088C221.133 222.088 220.749 222.179 220.408 222.36C220.066 222.541 219.784 222.803 219.56 223.144V229H217.96Z" fill="white"/>
<circle cx="70" cy="98.5" r="3" fill="white"/>
<circle cx="70" cy="139" r="3" fill="white"/>
<circle cx="70" cy="202" r="3" fill="white"/>
<defs>
<filter id="filter0_b_546_208" x="5" y="-23.9058" width="488" height="329.406" filterUnits="userSpaceOnUse" color-interpolation-filters="sRGB">
<feFlood flood-opacity="0" result="BackgroundImageFix"/>
<feGaussianBlur in="BackgroundImageFix" stdDeviation="14"/>
<feComposite in2="SourceAlpha" operator="in" result="effect1_backgroundBlur_546_208"/>
<feBlend mode="normal" in="SourceGraphic" in2="effect1_backgroundBlur_546_208" result="shape"/>
</filter>
<linearGradient id="paint0_linear_546_208" x1="61.1069" y1="-56.4993" x2="547.686" y2="434.403" gradientUnits="userSpaceOnUse">
<stop stop-color="#16161A" stop-opacity="0"/>
<stop offset="0.414911" stop-color="white" stop-opacity="0.13"/>
<stop offset="1" stop-color="#16161A" stop-opacity="0"/>
</linearGradient>
</defs>
</svg>
