<svg width="676" height="749" viewBox="0 0 676 749" fill="none" xmlns="http://www.w3.org/2000/svg">
<g filter="url(#filter0_f_904_315)">
<ellipse cx="319" cy="357.5" rx="174" ry="174.5" fill="#11FF37" fill-opacity="0.14"/>
</g>
<path d="M-84.6433 746.093H-24.1408L56.8809 665.071H84.1983L107.258 642.012V614.113L145.971 575.391H210.409V574.496H145.604L106.363 613.746V641.645L83.8315 664.177H56.5052L-24.5166 745.198H-84.6433V746.093Z" fill="url(#paint0_linear_904_315)" fill-opacity="0.55"/>
<path d="M210.239 571.589C212.1 571.589 213.602 573.092 213.602 574.952C213.602 576.813 212.1 578.316 210.239 578.316C208.379 578.316 206.876 576.813 206.876 574.952C206.876 573.092 208.379 571.589 210.239 571.589Z" fill="url(#paint1_linear_904_315)" fill-opacity="0.44"/>
<path d="M-65.5547 723.123H-51.3504L-30.0887 701.852V681.359L30.5032 620.768H64.8512L85.129 600.49L84.4939 599.864L64.4755 619.873H30.1275L-30.9832 680.984V701.485L-51.7171 722.228H-65.5547V723.123Z" fill="url(#paint2_linear_904_315)" fill-opacity="0.33"/>
<path d="M82.3112 597.914C83.6261 596.599 85.755 596.599 87.0699 597.914C88.3848 599.229 88.3848 601.358 87.0699 602.672C85.755 603.987 83.6261 603.987 82.3112 602.672C80.9964 601.358 80.9964 599.229 82.3112 597.914Z" fill="url(#paint3_linear_904_315)" fill-opacity="0.33"/>
<path d="M-33.6571 724.67H-22.9502L29.5825 672.146L28.9474 671.511L-23.3169 723.776H-33.6571V724.67Z" fill="url(#paint4_linear_904_315)" fill-opacity="0.33"/>
<path d="M26.7645 669.57C28.0794 668.256 30.2083 668.256 31.5232 669.57C32.8381 670.885 32.8381 673.014 31.5232 674.329C30.2083 675.644 28.0794 675.644 26.7645 674.329C25.4497 673.014 25.4497 670.885 26.7645 669.57Z" fill="url(#paint5_linear_904_315)" fill-opacity="0.33"/>
<path d="M5.6815 658.353L21.4422 642.593H83.197L94.3779 631.412L93.7428 630.777L82.8212 641.698H21.0665L5.04646 657.718L5.6815 658.353Z" fill="url(#paint6_linear_904_315)" fill-opacity="0.33"/>
<path d="M3.10513 655.536C1.79024 656.851 1.79024 658.98 3.10513 660.295C4.42001 661.61 6.54887 661.61 7.86375 660.295C9.17864 658.98 9.17864 656.851 7.86375 655.536C6.54887 654.221 4.42001 654.221 3.10513 655.536Z" fill="url(#paint7_linear_904_315)" fill-opacity="0.33"/>
<path d="M91.5602 628.836C92.8751 627.521 95.0039 627.521 96.3188 628.836C97.6337 630.151 97.6337 632.28 96.3188 633.595C95.0039 634.909 92.8751 634.909 91.5602 633.595C90.2453 632.28 90.2453 630.151 91.5602 628.836Z" fill="url(#paint8_linear_904_315)" fill-opacity="0.33"/>
<path d="M-71.8792 674.982L-26.404 629.516V596.751L7.04055 563.307H92.0338L102.571 552.77L101.936 552.135L91.6581 562.412H6.66489L-27.2985 596.375V629.14L-72.5143 674.356L-71.8792 674.982Z" fill="url(#paint9_linear_904_315)" fill-opacity="0.66"/>
<path d="M99.7535 550.193C101.068 548.879 103.197 548.879 104.512 550.193C105.827 551.508 105.827 553.637 104.512 554.952C103.197 556.267 101.068 556.267 99.7535 554.952C98.4386 553.637 98.4386 551.508 99.7535 550.193Z" fill="url(#paint10_linear_904_315)" fill-opacity="0.33"/>
<path d="M-14.0418 615.428H-13.1474V595.856L4.03558 578.674H40.4587V577.779H3.65986L-14.0418 595.481V615.428Z" fill="url(#paint11_linear_904_315)" fill-opacity="0.33"/>
<path d="M40.2886 574.863C42.1491 574.863 43.6518 576.366 43.6518 578.226C43.6518 580.087 42.1491 581.59 40.2886 581.59C38.428 581.59 36.9253 580.087 36.9253 578.226C36.9253 576.366 38.428 574.863 40.2886 574.863Z" fill="url(#paint12_linear_904_315)" fill-opacity="0.33"/>
<path d="M7.76572 606.546L18.7946 595.517H53.6793L72.025 577.171L71.3899 576.536L53.3036 594.622H18.4189L7.13062 605.91L7.76572 606.546Z" fill="url(#paint13_linear_904_315)" fill-opacity="0.33"/>
<path d="M5.18966 603.737C3.87478 605.052 3.87478 607.181 5.18966 608.496C6.50454 609.811 8.6334 609.811 9.94829 608.496C11.2632 607.181 11.2632 605.052 9.94829 603.737C8.6334 602.422 6.50454 602.422 5.18966 603.737Z" fill="url(#paint14_linear_904_315)" fill-opacity="0.33"/>
<path d="M69.2165 574.595C70.5314 573.28 72.6603 573.28 73.9751 574.595C75.29 575.91 75.29 578.039 73.9751 579.353C72.6603 580.668 70.5314 580.668 69.2165 579.353C67.9016 578.039 67.9016 575.91 69.2165 574.595Z" fill="url(#paint15_linear_904_315)" fill-opacity="0.33"/>
<path d="M82.1949 616.68L98.8321 600.043V578.414L118.833 558.405H130.201V557.51H118.466L97.9377 578.039V599.676L81.5598 616.054L82.1949 616.68Z" fill="url(#paint16_linear_904_315)" fill-opacity="0.33"/>
<path d="M79.6186 613.871C78.3037 615.186 78.3037 617.315 79.6186 618.63C80.9335 619.945 83.0624 619.945 84.3772 618.63C85.6921 617.315 85.6921 615.186 84.3772 613.871C83.0624 612.556 80.9335 612.556 79.6186 613.871Z" fill="url(#paint17_linear_904_315)" fill-opacity="0.33"/>
<path d="M130.032 554.594C131.892 554.594 133.395 556.097 133.395 557.958C133.395 559.818 131.892 561.321 130.032 561.321C128.171 561.321 126.668 559.818 126.668 557.958C126.668 556.097 128.171 554.594 130.032 554.594Z" fill="url(#paint18_linear_904_315)" fill-opacity="0.33"/>
<path d="M157.135 550.011L157.768 550.643L151.455 556.956L150.823 556.323L157.135 550.011Z" fill="url(#paint19_linear_904_315)" fill-opacity="0.33"/>
<path d="M149.8 555.104C149.013 555.891 149.013 557.17 149.8 557.957C150.587 558.745 151.866 558.745 152.653 557.957C153.44 557.17 153.44 555.891 152.653 555.104C151.866 554.317 150.587 554.317 149.8 555.104Z" fill="url(#paint20_linear_904_315)" fill-opacity="0.33"/>
<path d="M155.963 548.941C156.75 548.154 158.029 548.154 158.816 548.941C159.603 549.728 159.603 551.007 158.816 551.794C158.029 552.582 156.75 552.582 155.963 551.794C155.175 551.007 155.175 549.728 155.963 548.941Z" fill="url(#paint21_linear_904_315)" fill-opacity="0.33"/>
<path d="M165.08 549.977L165.712 550.61L159.4 556.922L158.767 556.289L165.08 549.977Z" fill="url(#paint22_linear_904_315)" fill-opacity="0.33"/>
<path d="M157.725 555.104C156.938 555.891 156.938 557.17 157.725 557.957C158.512 558.745 159.791 558.745 160.578 557.957C161.365 557.17 161.365 555.891 160.578 555.104C159.791 554.317 158.512 554.317 157.725 555.104Z" fill="url(#paint23_linear_904_315)" fill-opacity="0.33"/>
<path d="M163.897 548.941C164.684 548.154 165.963 548.154 166.75 548.941C167.537 549.728 167.537 551.007 166.75 551.794C165.963 552.582 164.684 552.582 163.897 551.794C163.109 551.007 163.109 549.728 163.897 548.941Z" fill="url(#paint24_linear_904_315)" fill-opacity="0.33"/>
<path d="M173.016 549.979L173.648 550.611L167.336 556.924L166.703 556.291L173.016 549.979Z" fill="url(#paint25_linear_904_315)" fill-opacity="0.33"/>
<path d="M165.659 555.104C164.872 555.891 164.872 557.17 165.659 557.957C166.446 558.745 167.725 558.745 168.512 557.957C169.3 557.17 169.3 555.891 168.512 555.104C167.725 554.317 166.446 554.317 165.659 555.104Z" fill="url(#paint26_linear_904_315)" fill-opacity="0.33"/>
<path d="M171.831 548.941C172.618 548.154 173.897 548.154 174.684 548.941C175.472 549.728 175.472 551.007 174.684 551.794C173.897 552.582 172.618 552.582 171.831 551.794C171.044 551.007 171.044 549.728 171.831 548.941Z" fill="url(#paint27_linear_904_315)" fill-opacity="0.33"/>
<path d="M180.936 549.974L181.569 550.607L175.257 556.919L174.624 556.287L180.936 549.974Z" fill="url(#paint28_linear_904_315)" fill-opacity="0.33"/>
<path d="M173.593 555.104C172.806 555.891 172.806 557.17 173.593 557.957C174.38 558.745 175.659 558.745 176.446 557.957C177.233 557.17 177.233 555.891 176.446 555.104C175.659 554.317 174.38 554.317 173.593 555.104Z" fill="url(#paint29_linear_904_315)" fill-opacity="0.33"/>
<path d="M179.765 548.941C180.552 548.154 181.831 548.154 182.618 548.941C183.405 549.728 183.405 551.007 182.618 551.794C181.831 552.582 180.552 552.582 179.765 551.794C178.977 551.007 178.977 549.728 179.765 548.941Z" fill="url(#paint30_linear_904_315)" fill-opacity="0.33"/>
<path d="M188.872 549.976L189.504 550.609L183.192 556.921L182.56 556.289L188.872 549.976Z" fill="url(#paint31_linear_904_315)" fill-opacity="0.33"/>
<path d="M181.527 555.104C180.74 555.891 180.74 557.17 181.527 557.957C182.314 558.745 183.593 558.745 184.38 557.957C185.167 557.17 185.167 555.891 184.38 555.104C183.593 554.317 182.314 554.317 181.527 555.104Z" fill="url(#paint32_linear_904_315)" fill-opacity="0.33"/>
<path d="M187.699 548.941C188.486 548.154 189.765 548.154 190.552 548.941C191.339 549.728 191.339 551.007 190.552 551.794C189.765 552.582 188.486 552.582 187.699 551.794C186.912 551.007 186.912 549.728 187.699 548.941Z" fill="url(#paint33_linear_904_315)" fill-opacity="0.33"/>
<path d="M196.807 549.978L197.44 550.61L191.128 556.923L190.495 556.29L196.807 549.978Z" fill="url(#paint34_linear_904_315)" fill-opacity="0.33"/>
<path d="M189.461 555.104C188.673 555.891 188.673 557.17 189.461 557.957C190.248 558.745 191.527 558.745 192.314 557.957C193.101 557.17 193.101 555.891 192.314 555.104C191.527 554.317 190.248 554.317 189.461 555.104Z" fill="url(#paint35_linear_904_315)" fill-opacity="0.33"/>
<path d="M195.623 548.941C196.41 548.154 197.69 548.154 198.477 548.941C199.264 549.728 199.264 551.007 198.477 551.794C197.69 552.582 196.41 552.582 195.623 551.794C194.836 551.007 194.836 549.728 195.623 548.941Z" fill="url(#paint36_linear_904_315)" fill-opacity="0.33"/>
<path d="M204.735 550.016L205.367 550.648L199.055 556.96L198.423 556.328L204.735 550.016Z" fill="url(#paint37_linear_904_315)" fill-opacity="0.33"/>
<path d="M197.386 555.104C196.599 555.891 196.599 557.17 197.386 557.957C198.173 558.745 199.452 558.745 200.239 557.957C201.027 557.17 201.027 555.891 200.239 555.104C199.452 554.317 198.173 554.317 197.386 555.104Z" fill="url(#paint38_linear_904_315)" fill-opacity="0.33"/>
<path d="M203.558 548.941C204.345 548.154 205.624 548.154 206.411 548.941C207.198 549.728 207.198 551.007 206.411 551.794C205.624 552.582 204.345 552.582 203.558 551.794C202.771 551.007 202.771 549.728 203.558 548.941Z" fill="url(#paint39_linear_904_315)" fill-opacity="0.33"/>
<path d="M212.679 549.982L213.312 550.614L207 556.927L206.367 556.294L212.679 549.982Z" fill="url(#paint40_linear_904_315)" fill-opacity="0.33"/>
<path d="M205.32 555.104C204.533 555.891 204.533 557.17 205.32 557.957C206.107 558.745 207.386 558.745 208.173 557.957C208.961 557.17 208.961 555.891 208.173 555.104C207.386 554.317 206.107 554.317 205.32 555.104Z" fill="url(#paint41_linear_904_315)" fill-opacity="0.33"/>
<path d="M211.492 548.941C212.279 548.154 213.558 548.154 214.345 548.941C215.132 549.728 215.132 551.007 214.345 551.794C213.558 552.582 212.279 552.582 211.492 551.794C210.705 551.007 210.705 549.728 211.492 548.941Z" fill="url(#paint42_linear_904_315)" fill-opacity="0.33"/>
<path d="M145.604 509.495H210.409V508.6H145.971L107.258 469.887V441.988L84.1983 418.929H56.8809L-24.1408 337.916H-84.6433V338.81H-24.5166L56.5052 419.823H83.8315L106.363 442.355V470.254L145.604 509.495Z" fill="url(#paint43_linear_904_315)" fill-opacity="0.33"/>
<path d="M210.239 505.684C212.099 505.684 213.602 507.187 213.602 509.048C213.602 510.908 212.099 512.411 210.239 512.411C208.378 512.411 206.876 510.908 206.876 509.048C206.876 507.187 208.378 505.684 210.239 505.684Z" fill="url(#paint44_linear_904_315)" fill-opacity="0.33"/>
<path d="M84.4939 484.136L85.129 483.51L64.8512 463.232H30.5032L-30.0887 402.64V382.148L-51.3504 360.877H-65.5547V361.772H-51.7171L-30.9832 382.514V403.007L30.1275 464.127H64.4755L84.4939 484.136Z" fill="url(#paint45_linear_904_315)" fill-opacity="0.33"/>
<path d="M87.0697 481.327C88.3846 482.642 88.3846 484.771 87.0697 486.086C85.7549 487.401 83.626 487.401 82.3111 486.086C80.9962 484.771 80.9962 482.642 82.3111 481.327C83.626 480.012 85.7549 480.012 87.0697 481.327Z" fill="url(#paint46_linear_904_315)" fill-opacity="0.33"/>
<path d="M28.9477 412.489L29.5828 411.853L-22.9499 359.33H-33.6567V360.224H-23.3166L28.9477 412.489Z" fill="url(#paint47_linear_904_315)" fill-opacity="0.33"/>
<path d="M31.5236 409.68C32.8385 410.995 32.8385 413.124 31.5236 414.439C30.2087 415.754 28.0799 415.754 26.765 414.439C25.4501 413.124 25.4501 410.995 26.765 409.68C28.0799 408.365 30.2087 408.365 31.5236 409.68Z" fill="url(#paint48_linear_904_315)" fill-opacity="0.33"/>
<path d="M93.7428 453.223L94.3779 452.588L83.197 441.407H21.4422L5.6815 425.646L5.04646 426.281L21.0665 442.302H82.8212L93.7428 453.223Z" fill="url(#paint49_linear_904_315)" fill-opacity="0.33"/>
<path d="M7.85503 423.705C6.54014 422.39 4.41128 422.39 3.0964 423.705C1.78152 425.02 1.78152 427.149 3.0964 428.464C4.41128 429.779 6.54014 429.779 7.85503 428.464C9.16991 427.149 9.16991 425.02 7.85503 423.705Z" fill="url(#paint50_linear_904_315)" fill-opacity="0.33"/>
<path d="M96.3186 450.405C97.6335 451.72 97.6335 453.849 96.3186 455.164C95.0038 456.479 92.8749 456.479 91.56 455.164C90.2451 453.849 90.2451 451.72 91.56 450.405C92.8749 449.091 95.0038 449.091 96.3186 450.405Z" fill="url(#paint51_linear_904_315)" fill-opacity="0.33"/>
<path d="M101.936 531.866L102.571 531.231L92.0338 520.694H7.04055L-26.404 487.249V454.484L-71.8792 409.018L-72.5143 409.644L-27.2985 454.86V487.625L6.66489 521.588H91.6581L101.936 531.866Z" fill="url(#paint52_linear_904_315)" fill-opacity="0.33"/>
<path d="M104.512 529.048C105.827 530.363 105.827 532.492 104.512 533.807C103.197 535.121 101.068 535.121 99.7533 533.807C98.4384 532.492 98.4384 530.363 99.7533 529.048C101.068 527.733 103.197 527.733 104.512 529.048Z" fill="url(#paint53_linear_904_315)" fill-opacity="0.33"/>
<path d="M3.65986 506.221H40.4587V505.326H4.03558L-13.1474 488.144V468.572H-14.0418V488.519L3.65986 506.221Z" fill="url(#paint54_linear_904_315)" fill-opacity="0.33"/>
<path d="M40.2885 502.41C42.149 502.41 43.6517 503.913 43.6517 505.774C43.6517 507.634 42.149 509.137 40.2885 509.137C38.428 509.137 36.9252 507.634 36.9252 505.774C36.9252 503.913 38.428 502.41 40.2885 502.41Z" fill="url(#paint55_linear_904_315)" fill-opacity="0.33"/>
<path d="M71.3896 507.464L72.0246 506.829L53.6789 488.483H18.7943L7.76536 477.454L7.13026 478.09L18.4186 489.378H53.3032L71.3896 507.464Z" fill="url(#paint56_linear_904_315)" fill-opacity="0.33"/>
<path d="M9.94804 475.514C8.63316 474.199 6.5043 474.199 5.18942 475.514C3.87453 476.828 3.87453 478.957 5.18942 480.272C6.5043 481.587 8.63316 481.587 9.94804 480.272C11.2629 478.957 11.2629 476.828 9.94804 475.514Z" fill="url(#paint57_linear_904_315)" fill-opacity="0.33"/>
<path d="M73.9657 504.647C75.2806 505.962 75.2806 508.091 73.9657 509.405C72.6509 510.72 70.522 510.72 69.2071 509.405C67.8922 508.091 67.8922 505.962 69.2071 504.647C70.522 503.332 72.6509 503.332 73.9657 504.647Z" fill="url(#paint58_linear_904_315)" fill-opacity="0.33"/>
<path d="M118.466 526.49H130.201V525.595H118.833L98.8321 505.586V483.957L82.1949 467.32L81.5598 467.946L97.9377 484.324V505.962L118.466 526.49Z" fill="url(#paint59_linear_904_315)" fill-opacity="0.66"/>
<path d="M84.3772 465.37C83.0624 464.055 80.9335 464.055 79.6186 465.37C78.3037 466.685 78.3037 468.814 79.6186 470.129C80.9335 471.444 83.0624 471.444 84.3772 470.129C85.6921 468.814 85.6921 466.685 84.3772 465.37Z" fill="url(#paint60_linear_904_315)" fill-opacity="0.33"/>
<path d="M130.031 522.679C131.892 522.679 133.395 524.182 133.395 526.043C133.395 527.903 131.892 529.406 130.031 529.406C128.171 529.406 126.668 527.903 126.668 526.043C126.668 524.182 128.171 522.679 130.031 522.679Z" fill="url(#paint61_linear_904_315)" fill-opacity="0.33"/>
<path d="M151.466 527.075L157.779 533.387L157.146 534.019L150.834 527.707L151.466 527.075Z" fill="url(#paint62_linear_904_315)" fill-opacity="0.33"/>
<path d="M152.654 526.043C151.866 525.255 150.587 525.255 149.8 526.043C149.013 526.83 149.013 528.109 149.8 528.896C150.587 529.683 151.866 529.683 152.654 528.896C153.441 528.109 153.441 526.83 152.654 526.043Z" fill="url(#paint63_linear_904_315)" fill-opacity="0.33"/>
<path d="M158.825 532.205C159.613 532.993 159.613 534.272 158.825 535.059C158.038 535.846 156.759 535.846 155.972 535.059C155.185 534.272 155.185 532.993 155.972 532.205C156.759 531.418 158.038 531.418 158.825 532.205Z" fill="url(#paint64_linear_904_315)" fill-opacity="0.33"/>
<path d="M159.402 527.077L165.714 533.389L165.081 534.022L158.769 527.709L159.402 527.077Z" fill="url(#paint65_linear_904_315)" fill-opacity="0.33"/>
<path d="M160.587 526.043C159.8 525.255 158.521 525.255 157.734 526.043C156.947 526.83 156.947 528.109 157.734 528.896C158.521 529.683 159.8 529.683 160.587 528.896C161.374 528.109 161.374 526.83 160.587 526.043Z" fill="url(#paint66_linear_904_315)" fill-opacity="0.33"/>
<path d="M166.75 532.205C167.537 532.993 167.537 534.272 166.75 535.059C165.963 535.846 164.684 535.846 163.897 535.059C163.109 534.272 163.109 532.993 163.897 532.205C164.684 531.418 165.963 531.418 166.75 532.205Z" fill="url(#paint67_linear_904_315)" fill-opacity="0.33"/>
<path d="M167.338 527.078L173.65 533.391L173.018 534.023L166.705 527.711L167.338 527.078Z" fill="url(#paint68_linear_904_315)" fill-opacity="0.33"/>
<path d="M168.512 526.043C167.725 525.255 166.446 525.255 165.659 526.043C164.872 526.83 164.872 528.109 165.659 528.896C166.446 529.683 167.725 529.683 168.512 528.896C169.3 528.109 169.3 526.83 168.512 526.043Z" fill="url(#paint69_linear_904_315)" fill-opacity="0.33"/>
<path d="M174.684 532.205C175.471 532.993 175.471 534.272 174.684 535.059C173.897 535.846 172.618 535.846 171.831 535.059C171.044 534.272 171.044 532.993 171.831 532.205C172.618 531.418 173.897 531.418 174.684 532.205Z" fill="url(#paint70_linear_904_315)" fill-opacity="0.33"/>
<path d="M175.256 527.116L181.568 533.428L180.936 534.061L174.623 527.749L175.256 527.116Z" fill="url(#paint71_linear_904_315)" fill-opacity="0.33"/>
<path d="M176.446 526.043C175.659 525.255 174.38 525.255 173.593 526.043C172.806 526.83 172.806 528.109 173.593 528.896C174.38 529.683 175.659 529.683 176.446 528.896C177.233 528.109 177.233 526.83 176.446 526.043Z" fill="url(#paint72_linear_904_315)" fill-opacity="0.33"/>
<path d="M182.618 532.205C183.405 532.993 183.405 534.272 182.618 535.059C181.831 535.846 180.552 535.846 179.765 535.059C178.977 534.272 178.977 532.993 179.765 532.205C180.552 531.418 181.831 531.418 182.618 532.205Z" fill="url(#paint73_linear_904_315)" fill-opacity="0.33"/>
<path d="M183.194 527.076L189.506 533.388L188.874 534.021L182.562 527.708L183.194 527.076Z" fill="url(#paint74_linear_904_315)" fill-opacity="0.33"/>
<path d="M184.38 526.043C183.593 525.255 182.314 525.255 181.527 526.043C180.74 526.83 180.74 528.109 181.527 528.896C182.314 529.683 183.593 529.683 184.38 528.896C185.167 528.109 185.167 526.83 184.38 526.043Z" fill="url(#paint75_linear_904_315)" fill-opacity="0.33"/>
<path d="M190.552 532.205C191.339 532.993 191.339 534.272 190.552 535.059C189.765 535.846 188.486 535.846 187.698 535.059C186.911 534.272 186.911 532.993 187.698 532.205C188.486 531.418 189.765 531.418 190.552 532.205Z" fill="url(#paint76_linear_904_315)" fill-opacity="0.33"/>
<path d="M191.13 527.078L197.442 533.39L196.81 534.022L190.498 527.71L191.13 527.078Z" fill="url(#paint77_linear_904_315)" fill-opacity="0.33"/>
<path d="M192.314 526.043C191.527 525.255 190.248 525.255 189.461 526.043C188.674 526.83 188.674 528.109 189.461 528.896C190.248 529.683 191.527 529.683 192.314 528.896C193.102 528.109 193.102 526.83 192.314 526.043Z" fill="url(#paint78_linear_904_315)" fill-opacity="0.33"/>
<path d="M198.486 532.205C199.273 532.993 199.273 534.272 198.486 535.059C197.699 535.846 196.42 535.846 195.633 535.059C194.846 534.272 194.846 532.993 195.633 532.205C196.42 531.418 197.699 531.418 198.486 532.205Z" fill="url(#paint79_linear_904_315)" fill-opacity="0.33"/>
<path d="M199.048 527.115L205.36 533.427L204.728 534.06L198.415 527.748L199.048 527.115Z" fill="url(#paint80_linear_904_315)" fill-opacity="0.33"/>
<path d="M200.248 526.043C199.461 525.255 198.182 525.255 197.395 526.043C196.607 526.83 196.607 528.109 197.395 528.896C198.182 529.683 199.461 529.683 200.248 528.896C201.035 528.109 201.035 526.83 200.248 526.043Z" fill="url(#paint81_linear_904_315)" fill-opacity="0.33"/>
<path d="M206.411 532.205C207.198 532.993 207.198 534.272 206.411 535.059C205.624 535.846 204.345 535.846 203.558 535.059C202.771 534.272 202.771 532.993 203.558 532.205C204.345 531.418 205.624 531.418 206.411 532.205Z" fill="url(#paint82_linear_904_315)" fill-opacity="0.33"/>
<path d="M206.992 527.081L213.305 533.394L212.672 534.026L206.36 527.714L206.992 527.081Z" fill="url(#paint83_linear_904_315)" fill-opacity="0.33"/>
<path d="M208.173 526.043C207.386 525.255 206.107 525.255 205.32 526.043C204.533 526.83 204.533 528.109 205.32 528.896C206.107 529.683 207.386 529.683 208.173 528.896C208.961 528.109 208.961 526.83 208.173 526.043Z" fill="url(#paint84_linear_904_315)" fill-opacity="0.33"/>
<path d="M214.345 532.205C215.132 532.993 215.132 534.272 214.345 535.059C213.558 535.846 212.279 535.846 211.492 535.059C210.705 534.272 210.705 532.993 211.492 532.205C212.279 531.418 213.558 531.418 214.345 532.205Z" fill="url(#paint85_linear_904_315)" fill-opacity="0.33"/>
<defs>
<filter id="filter0_f_904_315" x="-38" y="0" width="714" height="715" filterUnits="userSpaceOnUse" color-interpolation-filters="sRGB">
<feFlood flood-opacity="0" result="BackgroundImageFix"/>
<feBlend mode="normal" in="SourceGraphic" in2="BackgroundImageFix" result="shape"/>
<feGaussianBlur stdDeviation="91.5" result="effect1_foregroundBlur_904_315"/>
</filter>
<linearGradient id="paint0_linear_904_315" x1="109.82" y1="722.266" x2="122.883" y2="551.771" gradientUnits="userSpaceOnUse">
<stop stop-color="white"/>
<stop offset="1" stop-color="white" stop-opacity="0"/>
</linearGradient>
<linearGradient id="paint1_linear_904_315" x1="217.569" y1="570.87" x2="214.176" y2="579.4" gradientUnits="userSpaceOnUse">
<stop stop-color="white"/>
<stop offset="1" stop-color="white" stop-opacity="0"/>
</linearGradient>
<linearGradient id="paint2_linear_904_315" x1="173.987" y1="586.687" x2="120.716" y2="750.395" gradientUnits="userSpaceOnUse">
<stop stop-color="white"/>
<stop offset="1" stop-color="white" stop-opacity="0"/>
</linearGradient>
<linearGradient id="paint3_linear_904_315" x1="92.0253" y1="596.208" x2="88.6298" y2="604.744" gradientUnits="userSpaceOnUse">
<stop stop-color="white"/>
<stop offset="1" stop-color="white" stop-opacity="0"/>
</linearGradient>
<linearGradient id="paint4_linear_904_315" x1="66.8749" y1="665.828" x2="43.3916" y2="736.055" gradientUnits="userSpaceOnUse">
<stop stop-color="white"/>
<stop offset="1" stop-color="white" stop-opacity="0"/>
</linearGradient>
<linearGradient id="paint5_linear_904_315" x1="36.4786" y1="667.865" x2="33.0831" y2="676.4" gradientUnits="userSpaceOnUse">
<stop stop-color="white"/>
<stop offset="1" stop-color="white" stop-opacity="0"/>
</linearGradient>
<linearGradient id="paint6_linear_904_315" x1="147.057" y1="627.829" x2="142.157" y2="667.732" gradientUnits="userSpaceOnUse">
<stop stop-color="white"/>
<stop offset="1" stop-color="white" stop-opacity="0"/>
</linearGradient>
<linearGradient id="paint7_linear_904_315" x1="12.8192" y1="653.83" x2="9.42363" y2="662.366" gradientUnits="userSpaceOnUse">
<stop stop-color="white"/>
<stop offset="1" stop-color="white" stop-opacity="0"/>
</linearGradient>
<linearGradient id="paint8_linear_904_315" x1="101.274" y1="627.13" x2="97.8787" y2="635.666" gradientUnits="userSpaceOnUse">
<stop stop-color="white"/>
<stop offset="1" stop-color="white" stop-opacity="0"/>
</linearGradient>
<linearGradient id="paint9_linear_904_315" x1="58.0168" y1="598.542" x2="94.6248" y2="542.03" gradientUnits="userSpaceOnUse">
<stop stop-color="white"/>
<stop offset="1" stop-color="white" stop-opacity="0"/>
</linearGradient>
<linearGradient id="paint10_linear_904_315" x1="109.468" y1="548.488" x2="106.072" y2="557.023" gradientUnits="userSpaceOnUse">
<stop stop-color="white"/>
<stop offset="1" stop-color="white" stop-opacity="0"/>
</linearGradient>
<linearGradient id="paint11_linear_904_315" x1="72.5977" y1="573.754" x2="58.4686" y2="625.17" gradientUnits="userSpaceOnUse">
<stop stop-color="white"/>
<stop offset="1" stop-color="white" stop-opacity="0"/>
</linearGradient>
<linearGradient id="paint12_linear_904_315" x1="47.6184" y1="574.144" x2="44.2251" y2="582.674" gradientUnits="userSpaceOnUse">
<stop stop-color="white"/>
<stop offset="1" stop-color="white" stop-opacity="0"/>
</linearGradient>
<linearGradient id="paint13_linear_904_315" x1="110.293" y1="573.328" x2="102.45" y2="615.963" gradientUnits="userSpaceOnUse">
<stop stop-color="white"/>
<stop offset="1" stop-color="white" stop-opacity="0"/>
</linearGradient>
<linearGradient id="paint14_linear_904_315" x1="14.9037" y1="602.031" x2="11.5082" y2="610.567" gradientUnits="userSpaceOnUse">
<stop stop-color="white"/>
<stop offset="1" stop-color="white" stop-opacity="0"/>
</linearGradient>
<linearGradient id="paint15_linear_904_315" x1="78.9305" y1="572.889" x2="75.535" y2="581.425" gradientUnits="userSpaceOnUse">
<stop stop-color="white"/>
<stop offset="1" stop-color="white" stop-opacity="0"/>
</linearGradient>
<linearGradient id="paint16_linear_904_315" x1="158.886" y1="551.185" x2="124.809" y2="621.604" gradientUnits="userSpaceOnUse">
<stop stop-color="white"/>
<stop offset="1" stop-color="white" stop-opacity="0"/>
</linearGradient>
<linearGradient id="paint17_linear_904_315" x1="89.3326" y1="612.165" x2="85.9371" y2="620.701" gradientUnits="userSpaceOnUse">
<stop stop-color="white"/>
<stop offset="1" stop-color="white" stop-opacity="0"/>
</linearGradient>
<linearGradient id="paint18_linear_904_315" x1="137.361" y1="553.875" x2="133.968" y2="562.405" gradientUnits="userSpaceOnUse">
<stop stop-color="white"/>
<stop offset="1" stop-color="white" stop-opacity="0"/>
</linearGradient>
<linearGradient id="paint19_linear_904_315" x1="158.815" y1="550.342" x2="156.066" y2="548.699" gradientUnits="userSpaceOnUse">
<stop stop-color="white"/>
<stop offset="1" stop-color="white" stop-opacity="0"/>
</linearGradient>
<linearGradient id="paint20_linear_904_315" x1="155.622" y1="554.082" x2="153.587" y2="559.198" gradientUnits="userSpaceOnUse">
<stop stop-color="white"/>
<stop offset="1" stop-color="white" stop-opacity="0"/>
</linearGradient>
<linearGradient id="paint21_linear_904_315" x1="161.785" y1="547.919" x2="159.75" y2="553.035" gradientUnits="userSpaceOnUse">
<stop stop-color="white"/>
<stop offset="1" stop-color="white" stop-opacity="0"/>
</linearGradient>
<linearGradient id="paint22_linear_904_315" x1="166.76" y1="550.308" x2="164.011" y2="548.665" gradientUnits="userSpaceOnUse">
<stop stop-color="white"/>
<stop offset="1" stop-color="white" stop-opacity="0"/>
</linearGradient>
<linearGradient id="paint23_linear_904_315" x1="163.547" y1="554.082" x2="161.512" y2="559.198" gradientUnits="userSpaceOnUse">
<stop stop-color="white"/>
<stop offset="1" stop-color="white" stop-opacity="0"/>
</linearGradient>
<linearGradient id="paint24_linear_904_315" x1="169.719" y1="547.919" x2="167.684" y2="553.035" gradientUnits="userSpaceOnUse">
<stop stop-color="white"/>
<stop offset="1" stop-color="white" stop-opacity="0"/>
</linearGradient>
<linearGradient id="paint25_linear_904_315" x1="174.696" y1="550.31" x2="171.947" y2="548.667" gradientUnits="userSpaceOnUse">
<stop stop-color="white"/>
<stop offset="1" stop-color="white" stop-opacity="0"/>
</linearGradient>
<linearGradient id="paint26_linear_904_315" x1="171.482" y1="554.082" x2="169.447" y2="559.198" gradientUnits="userSpaceOnUse">
<stop stop-color="white"/>
<stop offset="1" stop-color="white" stop-opacity="0"/>
</linearGradient>
<linearGradient id="paint27_linear_904_315" x1="177.654" y1="547.919" x2="175.619" y2="553.035" gradientUnits="userSpaceOnUse">
<stop stop-color="white"/>
<stop offset="1" stop-color="white" stop-opacity="0"/>
</linearGradient>
<linearGradient id="paint28_linear_904_315" x1="182.617" y1="550.305" x2="179.867" y2="548.662" gradientUnits="userSpaceOnUse">
<stop stop-color="white"/>
<stop offset="1" stop-color="white" stop-opacity="0"/>
</linearGradient>
<linearGradient id="paint29_linear_904_315" x1="179.415" y1="554.082" x2="177.38" y2="559.198" gradientUnits="userSpaceOnUse">
<stop stop-color="white"/>
<stop offset="1" stop-color="white" stop-opacity="0"/>
</linearGradient>
<linearGradient id="paint30_linear_904_315" x1="185.587" y1="547.919" x2="183.552" y2="553.035" gradientUnits="userSpaceOnUse">
<stop stop-color="white"/>
<stop offset="1" stop-color="white" stop-opacity="0"/>
</linearGradient>
<linearGradient id="paint31_linear_904_315" x1="190.552" y1="550.307" x2="187.803" y2="548.664" gradientUnits="userSpaceOnUse">
<stop stop-color="white"/>
<stop offset="1" stop-color="white" stop-opacity="0"/>
</linearGradient>
<linearGradient id="paint32_linear_904_315" x1="187.349" y1="554.082" x2="185.314" y2="559.198" gradientUnits="userSpaceOnUse">
<stop stop-color="white"/>
<stop offset="1" stop-color="white" stop-opacity="0"/>
</linearGradient>
<linearGradient id="paint33_linear_904_315" x1="193.521" y1="547.919" x2="191.486" y2="553.035" gradientUnits="userSpaceOnUse">
<stop stop-color="white"/>
<stop offset="1" stop-color="white" stop-opacity="0"/>
</linearGradient>
<linearGradient id="paint34_linear_904_315" x1="198.488" y1="550.309" x2="195.739" y2="548.666" gradientUnits="userSpaceOnUse">
<stop stop-color="white"/>
<stop offset="1" stop-color="white" stop-opacity="0"/>
</linearGradient>
<linearGradient id="paint35_linear_904_315" x1="195.283" y1="554.082" x2="193.248" y2="559.198" gradientUnits="userSpaceOnUse">
<stop stop-color="white"/>
<stop offset="1" stop-color="white" stop-opacity="0"/>
</linearGradient>
<linearGradient id="paint36_linear_904_315" x1="201.446" y1="547.919" x2="199.411" y2="553.035" gradientUnits="userSpaceOnUse">
<stop stop-color="white"/>
<stop offset="1" stop-color="white" stop-opacity="0"/>
</linearGradient>
<linearGradient id="paint37_linear_904_315" x1="206.415" y1="550.346" x2="203.666" y2="548.703" gradientUnits="userSpaceOnUse">
<stop stop-color="white"/>
<stop offset="1" stop-color="white" stop-opacity="0"/>
</linearGradient>
<linearGradient id="paint38_linear_904_315" x1="203.209" y1="554.082" x2="201.174" y2="559.198" gradientUnits="userSpaceOnUse">
<stop stop-color="white"/>
<stop offset="1" stop-color="white" stop-opacity="0"/>
</linearGradient>
<linearGradient id="paint39_linear_904_315" x1="209.38" y1="547.919" x2="207.345" y2="553.035" gradientUnits="userSpaceOnUse">
<stop stop-color="white"/>
<stop offset="1" stop-color="white" stop-opacity="0"/>
</linearGradient>
<linearGradient id="paint40_linear_904_315" x1="214.36" y1="550.313" x2="211.611" y2="548.67" gradientUnits="userSpaceOnUse">
<stop stop-color="white"/>
<stop offset="1" stop-color="white" stop-opacity="0"/>
</linearGradient>
<linearGradient id="paint41_linear_904_315" x1="211.143" y1="554.082" x2="209.108" y2="559.198" gradientUnits="userSpaceOnUse">
<stop stop-color="white"/>
<stop offset="1" stop-color="white" stop-opacity="0"/>
</linearGradient>
<linearGradient id="paint42_linear_904_315" x1="217.314" y1="547.919" x2="215.279" y2="553.035" gradientUnits="userSpaceOnUse">
<stop stop-color="white"/>
<stop offset="1" stop-color="white" stop-opacity="0"/>
</linearGradient>
<linearGradient id="paint43_linear_904_315" x1="384.402" y1="319.573" x2="329.064" y2="558.787" gradientUnits="userSpaceOnUse">
<stop stop-color="white"/>
<stop offset="1" stop-color="white" stop-opacity="0"/>
</linearGradient>
<linearGradient id="paint44_linear_904_315" x1="217.569" y1="504.965" x2="214.175" y2="513.495" gradientUnits="userSpaceOnUse">
<stop stop-color="white"/>
<stop offset="1" stop-color="white" stop-opacity="0"/>
</linearGradient>
<linearGradient id="paint45_linear_904_315" x1="173.987" y1="347.7" x2="120.716" y2="511.408" gradientUnits="userSpaceOnUse">
<stop stop-color="white"/>
<stop offset="1" stop-color="white" stop-opacity="0"/>
</linearGradient>
<linearGradient id="paint46_linear_904_315" x1="92.0252" y1="479.622" x2="88.6296" y2="488.157" gradientUnits="userSpaceOnUse">
<stop stop-color="white"/>
<stop offset="1" stop-color="white" stop-opacity="0"/>
</linearGradient>
<linearGradient id="paint47_linear_904_315" x1="66.8752" y1="353.647" x2="43.3918" y2="423.874" gradientUnits="userSpaceOnUse">
<stop stop-color="white"/>
<stop offset="1" stop-color="white" stop-opacity="0"/>
</linearGradient>
<linearGradient id="paint48_linear_904_315" x1="36.479" y1="407.974" x2="33.0835" y2="416.51" gradientUnits="userSpaceOnUse">
<stop stop-color="white"/>
<stop offset="1" stop-color="white" stop-opacity="0"/>
</linearGradient>
<linearGradient id="paint49_linear_904_315" x1="147.057" y1="422.698" x2="142.157" y2="462.601" gradientUnits="userSpaceOnUse">
<stop stop-color="white"/>
<stop offset="1" stop-color="white" stop-opacity="0"/>
</linearGradient>
<linearGradient id="paint50_linear_904_315" x1="12.8104" y1="421.999" x2="9.41491" y2="430.535" gradientUnits="userSpaceOnUse">
<stop stop-color="white"/>
<stop offset="1" stop-color="white" stop-opacity="0"/>
</linearGradient>
<linearGradient id="paint51_linear_904_315" x1="101.274" y1="448.7" x2="97.8785" y2="457.235" gradientUnits="userSpaceOnUse">
<stop stop-color="white"/>
<stop offset="1" stop-color="white" stop-opacity="0"/>
</linearGradient>
<linearGradient id="paint52_linear_904_315" x1="205.818" y1="395.885" x2="159.095" y2="563.282" gradientUnits="userSpaceOnUse">
<stop stop-color="white"/>
<stop offset="1" stop-color="white" stop-opacity="0"/>
</linearGradient>
<linearGradient id="paint53_linear_904_315" x1="109.467" y1="527.342" x2="106.072" y2="535.878" gradientUnits="userSpaceOnUse">
<stop stop-color="white"/>
<stop offset="1" stop-color="white" stop-opacity="0"/>
</linearGradient>
<linearGradient id="paint54_linear_904_315" x1="72.5977" y1="464.548" x2="58.4686" y2="515.963" gradientUnits="userSpaceOnUse">
<stop stop-color="white"/>
<stop offset="1" stop-color="white" stop-opacity="0"/>
</linearGradient>
<linearGradient id="paint55_linear_904_315" x1="47.6183" y1="501.691" x2="44.2251" y2="510.221" gradientUnits="userSpaceOnUse">
<stop stop-color="white"/>
<stop offset="1" stop-color="white" stop-opacity="0"/>
</linearGradient>
<linearGradient id="paint56_linear_904_315" x1="110.293" y1="474.246" x2="102.45" y2="516.882" gradientUnits="userSpaceOnUse">
<stop stop-color="white"/>
<stop offset="1" stop-color="white" stop-opacity="0"/>
</linearGradient>
<linearGradient id="paint57_linear_904_315" x1="14.9034" y1="473.808" x2="11.5079" y2="482.343" gradientUnits="userSpaceOnUse">
<stop stop-color="white"/>
<stop offset="1" stop-color="white" stop-opacity="0"/>
</linearGradient>
<linearGradient id="paint58_linear_904_315" x1="78.9211" y1="502.941" x2="75.5256" y2="511.477" gradientUnits="userSpaceOnUse">
<stop stop-color="white"/>
<stop offset="1" stop-color="white" stop-opacity="0"/>
</linearGradient>
<linearGradient id="paint59_linear_904_315" x1="158.886" y1="460.995" x2="124.809" y2="531.414" gradientUnits="userSpaceOnUse">
<stop stop-color="white"/>
<stop offset="1" stop-color="white" stop-opacity="0"/>
</linearGradient>
<linearGradient id="paint60_linear_904_315" x1="89.3326" y1="463.664" x2="85.9371" y2="472.2" gradientUnits="userSpaceOnUse">
<stop stop-color="white"/>
<stop offset="1" stop-color="white" stop-opacity="0"/>
</linearGradient>
<linearGradient id="paint61_linear_904_315" x1="137.361" y1="521.96" x2="133.968" y2="530.49" gradientUnits="userSpaceOnUse">
<stop stop-color="white"/>
<stop offset="1" stop-color="white" stop-opacity="0"/>
</linearGradient>
<linearGradient id="paint62_linear_904_315" x1="161.569" y1="537.042" x2="160.604" y2="537.932" gradientUnits="userSpaceOnUse">
<stop stop-color="white"/>
<stop offset="1" stop-color="white" stop-opacity="0"/>
</linearGradient>
<linearGradient id="paint63_linear_904_315" x1="155.623" y1="525.021" x2="153.588" y2="530.137" gradientUnits="userSpaceOnUse">
<stop stop-color="white"/>
<stop offset="1" stop-color="white" stop-opacity="0"/>
</linearGradient>
<linearGradient id="paint64_linear_904_315" x1="161.795" y1="531.184" x2="159.76" y2="536.3" gradientUnits="userSpaceOnUse">
<stop stop-color="white"/>
<stop offset="1" stop-color="white" stop-opacity="0"/>
</linearGradient>
<linearGradient id="paint65_linear_904_315" x1="169.504" y1="537.044" x2="168.539" y2="537.934" gradientUnits="userSpaceOnUse">
<stop stop-color="white"/>
<stop offset="1" stop-color="white" stop-opacity="0"/>
</linearGradient>
<linearGradient id="paint66_linear_904_315" x1="163.556" y1="525.021" x2="161.521" y2="530.137" gradientUnits="userSpaceOnUse">
<stop stop-color="white"/>
<stop offset="1" stop-color="white" stop-opacity="0"/>
</linearGradient>
<linearGradient id="paint67_linear_904_315" x1="169.719" y1="531.184" x2="167.684" y2="536.3" gradientUnits="userSpaceOnUse">
<stop stop-color="white"/>
<stop offset="1" stop-color="white" stop-opacity="0"/>
</linearGradient>
<linearGradient id="paint68_linear_904_315" x1="177.44" y1="537.045" x2="176.476" y2="537.936" gradientUnits="userSpaceOnUse">
<stop stop-color="white"/>
<stop offset="1" stop-color="white" stop-opacity="0"/>
</linearGradient>
<linearGradient id="paint69_linear_904_315" x1="171.482" y1="525.021" x2="169.447" y2="530.137" gradientUnits="userSpaceOnUse">
<stop stop-color="white"/>
<stop offset="1" stop-color="white" stop-opacity="0"/>
</linearGradient>
<linearGradient id="paint70_linear_904_315" x1="177.654" y1="531.184" x2="175.619" y2="536.3" gradientUnits="userSpaceOnUse">
<stop stop-color="white"/>
<stop offset="1" stop-color="white" stop-opacity="0"/>
</linearGradient>
<linearGradient id="paint71_linear_904_315" x1="185.358" y1="537.083" x2="184.393" y2="537.974" gradientUnits="userSpaceOnUse">
<stop stop-color="white"/>
<stop offset="1" stop-color="white" stop-opacity="0"/>
</linearGradient>
<linearGradient id="paint72_linear_904_315" x1="179.415" y1="525.021" x2="177.38" y2="530.137" gradientUnits="userSpaceOnUse">
<stop stop-color="white"/>
<stop offset="1" stop-color="white" stop-opacity="0"/>
</linearGradient>
<linearGradient id="paint73_linear_904_315" x1="185.587" y1="531.184" x2="183.552" y2="536.3" gradientUnits="userSpaceOnUse">
<stop stop-color="white"/>
<stop offset="1" stop-color="white" stop-opacity="0"/>
</linearGradient>
<linearGradient id="paint74_linear_904_315" x1="193.296" y1="537.043" x2="192.332" y2="537.933" gradientUnits="userSpaceOnUse">
<stop stop-color="white"/>
<stop offset="1" stop-color="white" stop-opacity="0"/>
</linearGradient>
<linearGradient id="paint75_linear_904_315" x1="187.349" y1="525.021" x2="185.314" y2="530.137" gradientUnits="userSpaceOnUse">
<stop stop-color="white"/>
<stop offset="1" stop-color="white" stop-opacity="0"/>
</linearGradient>
<linearGradient id="paint76_linear_904_315" x1="193.521" y1="531.184" x2="191.486" y2="536.3" gradientUnits="userSpaceOnUse">
<stop stop-color="white"/>
<stop offset="1" stop-color="white" stop-opacity="0"/>
</linearGradient>
<linearGradient id="paint77_linear_904_315" x1="201.232" y1="537.045" x2="200.268" y2="537.935" gradientUnits="userSpaceOnUse">
<stop stop-color="white"/>
<stop offset="1" stop-color="white" stop-opacity="0"/>
</linearGradient>
<linearGradient id="paint78_linear_904_315" x1="195.284" y1="525.021" x2="193.249" y2="530.137" gradientUnits="userSpaceOnUse">
<stop stop-color="white"/>
<stop offset="1" stop-color="white" stop-opacity="0"/>
</linearGradient>
<linearGradient id="paint79_linear_904_315" x1="201.456" y1="531.184" x2="199.421" y2="536.3" gradientUnits="userSpaceOnUse">
<stop stop-color="white"/>
<stop offset="1" stop-color="white" stop-opacity="0"/>
</linearGradient>
<linearGradient id="paint80_linear_904_315" x1="209.15" y1="537.082" x2="208.186" y2="537.973" gradientUnits="userSpaceOnUse">
<stop stop-color="white"/>
<stop offset="1" stop-color="white" stop-opacity="0"/>
</linearGradient>
<linearGradient id="paint81_linear_904_315" x1="203.217" y1="525.021" x2="201.182" y2="530.137" gradientUnits="userSpaceOnUse">
<stop stop-color="white"/>
<stop offset="1" stop-color="white" stop-opacity="0"/>
</linearGradient>
<linearGradient id="paint82_linear_904_315" x1="209.38" y1="531.184" x2="207.345" y2="536.3" gradientUnits="userSpaceOnUse">
<stop stop-color="white"/>
<stop offset="1" stop-color="white" stop-opacity="0"/>
</linearGradient>
<linearGradient id="paint83_linear_904_315" x1="217.095" y1="537.048" x2="216.13" y2="537.939" gradientUnits="userSpaceOnUse">
<stop stop-color="white"/>
<stop offset="1" stop-color="white" stop-opacity="0"/>
</linearGradient>
<linearGradient id="paint84_linear_904_315" x1="211.143" y1="525.021" x2="209.108" y2="530.137" gradientUnits="userSpaceOnUse">
<stop stop-color="white"/>
<stop offset="1" stop-color="white" stop-opacity="0"/>
</linearGradient>
<linearGradient id="paint85_linear_904_315" x1="217.314" y1="531.184" x2="215.279" y2="536.3" gradientUnits="userSpaceOnUse">
<stop stop-color="white"/>
<stop offset="1" stop-color="white" stop-opacity="0"/>
</linearGradient>
</defs>
</svg>
