<svg width="1370" height="445" viewBox="0 0 1370 445" fill="none" xmlns="http://www.w3.org/2000/svg">
<path d="M1012.6 44.1844L1003.66 33.5192V11.0461L1012.6 0H1099.55L1110.12 11.0461V33.5192L1099.55 44.1844H1012.6Z" fill="white"/>
<path d="M97.144 99.7305H147.047L200.942 154.014V241.752L263.487 301.085V400.184" stroke="#10FF37" stroke-width="0.6" stroke-dasharray="5 5"/>
<path d="M1135.12 18.9362H1185.03L1238.92 73.2198V160.957L1301.47 220.291V378.092" stroke="#10FF37" stroke-width="0.6" stroke-dasharray="5 5"/>
<path d="M228.222 445L220.903 436.163V417.542L228.222 408.39H299.417L308.067 417.542V436.163L299.417 445H228.222Z" fill="#21FF45"/>
<path d="M7.31909 133.816L0 124.979V106.358L7.31909 97.2057H78.5138L87.1637 106.358V124.979L78.5138 133.816H7.31909Z" fill="#21FF45"/>
<path d="M485.056 136.34L477.737 127.504V108.883L485.056 99.7305H556.251L564.9 108.883V127.504L556.251 136.34H485.056Z" fill="#21FF45"/>
<path d="M776.489 444.369L769.169 435.532V416.911L776.489 407.759H847.683L856.333 416.911V435.532L847.683 444.369H776.489Z" fill="#21FF45"/>
<path d="M1290.16 444.369L1282.84 435.532V416.911L1290.16 407.759H1361.35L1370 416.911V435.532L1361.35 444.369H1290.16Z" fill="#21FF45"/>
<rect x="259.495" y="393.872" width="7.98446" height="7.57447" fill="#10FF37"/>
<rect x="1297.47" y="374.936" width="7.98446" height="7.57447" fill="#10FF37"/>
<rect x="456.445" y="107.305" width="7.98446" height="7.57447" fill="#10FF37"/>
<rect x="751.87" y="414.071" width="7.98446" height="7.57447" fill="#10FF37"/>
<rect x="862.322" y="388.823" width="7.98446" height="7.57447" fill="#10FF37"/>
<rect x="572.22" y="109.83" width="7.98446" height="7.57447" fill="#10FF37"/>
<rect x="315.386" y="422.908" width="7.98446" height="7.57447" fill="#10FF37"/>
<rect x="93.1519" y="95.9432" width="7.98446" height="7.57447" fill="#10FF37"/>
<path d="M315.386 426.695H349.986L368.616 405.865V157.801L420.515 110.461H460.437" stroke="#10FF37" stroke-width="0.6" stroke-dasharray="5 5"/>
<path d="M574.881 112.986H620.126L673.356 161.589V386.298L702.632 417.858H754.531" stroke="#10FF37" stroke-width="0.6" stroke-dasharray="5 5"/>
<path d="M958.8 22.7234H932.851L879.621 71.3262V380.617L866.314 393.241" stroke="#10FF37" stroke-width="0.6" stroke-dasharray="5 5"/>
<path d="M19.524 119L19.524 116.516C19.524 116.282 19.581 116.072 19.695 115.886C19.809 115.7 19.959 115.553 20.145 115.445C20.331 115.331 20.538 115.274 20.766 115.274H24.654C24.684 115.274 24.708 115.265 24.726 115.247C24.75 115.223 24.762 115.196 24.762 115.166V113.807C24.762 113.777 24.75 113.753 24.726 113.735C24.708 113.711 24.684 113.699 24.654 113.699H20.811C20.781 113.699 20.754 113.711 20.73 113.735C20.712 113.753 20.703 113.777 20.703 113.807V114.248H19.524V113.762C19.524 113.528 19.581 113.318 19.695 113.132C19.809 112.946 19.959 112.799 20.145 112.691C20.331 112.577 20.538 112.52 20.766 112.52H24.699C24.927 112.52 25.134 112.577 25.32 112.691C25.512 112.799 25.662 112.946 25.77 113.132C25.884 113.318 25.941 113.528 25.941 113.762V115.22C25.941 115.442 25.884 115.649 25.77 115.841C25.662 116.027 25.512 116.177 25.32 116.291C25.134 116.405 24.927 116.462 24.699 116.462H20.811C20.781 116.462 20.754 116.474 20.73 116.498C20.712 116.516 20.703 116.54 20.703 116.57V117.713C20.703 117.743 20.712 117.77 20.73 117.794C20.754 117.812 20.781 117.821 20.811 117.821H25.941V119H19.524ZM35.2567 119C35.0287 119 34.8217 118.94 34.6357 118.82C34.4497 118.694 34.2997 118.532 34.1857 118.334C34.0717 118.136 34.0147 117.926 34.0147 117.704V113.789C34.0147 113.555 34.0717 113.345 34.1857 113.159C34.2997 112.967 34.4497 112.814 34.6357 112.7C34.8217 112.58 35.0287 112.52 35.2567 112.52H39.1897C39.4177 112.52 39.6247 112.58 39.8107 112.7C39.9967 112.814 40.1467 112.967 40.2607 113.159C40.3747 113.345 40.4317 113.555 40.4317 113.789V117.704C40.4317 117.926 40.3747 118.136 40.2607 118.334C40.1467 118.532 39.9967 118.694 39.8107 118.82C39.6247 118.94 39.4177 119 39.1897 119H35.2567ZM35.7337 117.758H39.1447C39.1747 117.758 39.1987 117.749 39.2167 117.731C39.2407 117.707 39.2527 117.68 39.2527 117.65V114.824L35.7337 117.758ZM35.1937 116.66L38.7127 113.726H35.3017C35.2717 113.726 35.2447 113.738 35.2207 113.762C35.2027 113.78 35.1937 113.804 35.1937 113.834V116.66ZM48.5406 119V116.516C48.5406 116.282 48.5976 116.072 48.7116 115.886C48.8256 115.7 48.9756 115.553 49.1616 115.445C49.3476 115.331 49.5546 115.274 49.7826 115.274H53.6706C53.7006 115.274 53.7246 115.265 53.7426 115.247C53.7666 115.223 53.7786 115.196 53.7786 115.166V113.807C53.7786 113.777 53.7666 113.753 53.7426 113.735C53.7246 113.711 53.7006 113.699 53.6706 113.699H49.8276C49.7976 113.699 49.7706 113.711 49.7466 113.735C49.7286 113.753 49.7196 113.777 49.7196 113.807V114.248H48.5406V113.762C48.5406 113.528 48.5976 113.318 48.7116 113.132C48.8256 112.946 48.9756 112.799 49.1616 112.691C49.3476 112.577 49.5546 112.52 49.7826 112.52H53.7156C53.9436 112.52 54.1506 112.577 54.3366 112.691C54.5286 112.799 54.6786 112.946 54.7866 113.132C54.9006 113.318 54.9576 113.528 54.9576 113.762V115.22C54.9576 115.442 54.9006 115.649 54.7866 115.841C54.6786 116.027 54.5286 116.177 54.3366 116.291C54.1506 116.405 53.9436 116.462 53.7156 116.462H49.8276C49.7976 116.462 49.7706 116.474 49.7466 116.498C49.7286 116.516 49.7196 116.54 49.7196 116.57V117.713C49.7196 117.743 49.7286 117.77 49.7466 117.794C49.7706 117.812 49.7976 117.821 49.8276 117.821H54.9576V119H48.5406ZM63.0313 119V116.516C63.0313 116.282 63.0883 116.072 63.2023 115.886C63.3163 115.7 63.4663 115.553 63.6523 115.445C63.8383 115.331 64.0453 115.274 64.2733 115.274H68.1613C68.1913 115.274 68.2153 115.265 68.2333 115.247C68.2573 115.223 68.2693 115.196 68.2693 115.166V113.807C68.2693 113.777 68.2573 113.753 68.2333 113.735C68.2153 113.711 68.1913 113.699 68.1613 113.699L64.3183 113.699C64.2883 113.699 64.2613 113.711 64.2373 113.735C64.2193 113.753 64.2103 113.777 64.2103 113.807V114.248H63.0313V113.762C63.0313 113.528 63.0883 113.318 63.2023 113.132C63.3163 112.946 63.4663 112.799 63.6523 112.691C63.8383 112.577 64.0453 112.52 64.2733 112.52L68.2063 112.52C68.4343 112.52 68.6413 112.577 68.8273 112.691C69.0193 112.799 69.1693 112.946 69.2773 113.132C69.3913 113.318 69.4483 113.528 69.4483 113.762V115.22C69.4483 115.442 69.3913 115.649 69.2773 115.841C69.1693 116.027 69.0193 116.177 68.8273 116.291C68.6413 116.405 68.4343 116.462 68.2063 116.462H64.3183C64.2883 116.462 64.2613 116.474 64.2373 116.498C64.2193 116.516 64.2103 116.54 64.2103 116.57V117.713C64.2103 117.743 64.2193 117.77 64.2373 117.794C64.2613 117.812 64.2883 117.821 64.3183 117.821L69.4483 117.821V119L63.0313 119Z" fill="black"/>
<path d="M239.524 427V424.516C239.524 424.282 239.581 424.072 239.695 423.886C239.809 423.7 239.959 423.553 240.145 423.445C240.331 423.331 240.538 423.274 240.766 423.274H244.654C244.684 423.274 244.708 423.265 244.726 423.247C244.75 423.223 244.762 423.196 244.762 423.166V421.807C244.762 421.777 244.75 421.753 244.726 421.735C244.708 421.711 244.684 421.699 244.654 421.699H240.811C240.781 421.699 240.754 421.711 240.73 421.735C240.712 421.753 240.703 421.777 240.703 421.807V422.248H239.524V421.762C239.524 421.528 239.581 421.318 239.695 421.132C239.809 420.946 239.959 420.799 240.145 420.691C240.331 420.577 240.538 420.52 240.766 420.52H244.699C244.927 420.52 245.134 420.577 245.32 420.691C245.512 420.799 245.662 420.946 245.77 421.132C245.884 421.318 245.941 421.528 245.941 421.762V423.22C245.941 423.442 245.884 423.649 245.77 423.841C245.662 424.027 245.512 424.177 245.32 424.291C245.134 424.405 244.927 424.462 244.699 424.462H240.811C240.781 424.462 240.754 424.474 240.73 424.498C240.712 424.516 240.703 424.54 240.703 424.57V425.713C240.703 425.743 240.712 425.77 240.73 425.794C240.754 425.812 240.781 425.821 240.811 425.821H245.941V427H239.524ZM255.257 427C255.029 427 254.822 426.94 254.636 426.82C254.45 426.694 254.3 426.532 254.186 426.334C254.072 426.136 254.015 425.926 254.015 425.704V421.789C254.015 421.555 254.072 421.345 254.186 421.159C254.3 420.967 254.45 420.814 254.636 420.7C254.822 420.58 255.029 420.52 255.257 420.52H259.19C259.418 420.52 259.625 420.58 259.811 420.7C259.997 420.814 260.147 420.967 260.261 421.159C260.375 421.345 260.432 421.555 260.432 421.789V425.704C260.432 425.926 260.375 426.136 260.261 426.334C260.147 426.532 259.997 426.694 259.811 426.82C259.625 426.94 259.418 427 259.19 427H255.257ZM255.734 425.758H259.145C259.175 425.758 259.199 425.749 259.217 425.731C259.241 425.707 259.253 425.68 259.253 425.65V422.824L255.734 425.758ZM255.194 424.66L258.713 421.726H255.302C255.272 421.726 255.245 421.738 255.221 421.762C255.203 421.78 255.194 421.804 255.194 421.834V424.66ZM268.541 427V424.516C268.541 424.282 268.598 424.072 268.712 423.886C268.826 423.7 268.976 423.553 269.162 423.445C269.348 423.331 269.555 423.274 269.783 423.274H273.671C273.701 423.274 273.725 423.265 273.743 423.247C273.767 423.223 273.779 423.196 273.779 423.166V421.807C273.779 421.777 273.767 421.753 273.743 421.735C273.725 421.711 273.701 421.699 273.671 421.699H269.828C269.798 421.699 269.771 421.711 269.747 421.735C269.729 421.753 269.72 421.777 269.72 421.807V422.248H268.541V421.762C268.541 421.528 268.598 421.318 268.712 421.132C268.826 420.946 268.976 420.799 269.162 420.691C269.348 420.577 269.555 420.52 269.783 420.52H273.716C273.944 420.52 274.151 420.577 274.337 420.691C274.529 420.799 274.679 420.946 274.787 421.132C274.901 421.318 274.958 421.528 274.958 421.762V423.22C274.958 423.442 274.901 423.649 274.787 423.841C274.679 424.027 274.529 424.177 274.337 424.291C274.151 424.405 273.944 424.462 273.716 424.462H269.828C269.798 424.462 269.771 424.474 269.747 424.498C269.729 424.516 269.72 424.54 269.72 424.57V425.713C269.72 425.743 269.729 425.77 269.747 425.794C269.771 425.812 269.798 425.821 269.828 425.821H274.958V427H268.541ZM283.031 427V424.516C283.031 424.282 283.088 424.072 283.202 423.886C283.316 423.7 283.466 423.553 283.652 423.445C283.838 423.331 284.045 423.274 284.273 423.274H288.161C288.191 423.274 288.215 423.265 288.233 423.247C288.257 423.223 288.269 423.196 288.269 423.166V421.807C288.269 421.777 288.257 421.753 288.233 421.735C288.215 421.711 288.191 421.699 288.161 421.699H284.318C284.288 421.699 284.261 421.711 284.237 421.735C284.219 421.753 284.21 421.777 284.21 421.807V422.248H283.031V421.762C283.031 421.528 283.088 421.318 283.202 421.132C283.316 420.946 283.466 420.799 283.652 420.691C283.838 420.577 284.045 420.52 284.273 420.52H288.206C288.434 420.52 288.641 420.577 288.827 420.691C289.019 420.799 289.169 420.946 289.277 421.132C289.391 421.318 289.448 421.528 289.448 421.762V423.22C289.448 423.442 289.391 423.649 289.277 423.841C289.169 424.027 289.019 424.177 288.827 424.291C288.641 424.405 288.434 424.462 288.206 424.462H284.318C284.288 424.462 284.261 424.474 284.237 424.498C284.219 424.516 284.21 424.54 284.21 424.57V425.713C284.21 425.743 284.219 425.77 284.237 425.794C284.261 425.812 284.288 425.821 284.318 425.821H289.448V427H283.031Z" fill="black"/>
<path d="M788.542 426V423.516C788.542 423.282 788.599 423.072 788.713 422.886C788.827 422.7 788.977 422.553 789.163 422.445C789.349 422.331 789.556 422.274 789.784 422.274H793.672C793.702 422.274 793.726 422.265 793.744 422.247C793.768 422.223 793.78 422.196 793.78 422.166V420.807C793.78 420.777 793.768 420.753 793.744 420.735C793.726 420.711 793.702 420.699 793.672 420.699H789.829C789.799 420.699 789.772 420.711 789.748 420.735C789.73 420.753 789.721 420.777 789.721 420.807V421.248H788.542V420.762C788.542 420.528 788.599 420.318 788.713 420.132C788.827 419.946 788.977 419.799 789.163 419.691C789.349 419.577 789.556 419.52 789.784 419.52H793.717C793.945 419.52 794.152 419.577 794.338 419.691C794.53 419.799 794.68 419.946 794.788 420.132C794.902 420.318 794.959 420.528 794.959 420.762V422.22C794.959 422.442 794.902 422.649 794.788 422.841C794.68 423.027 794.53 423.177 794.338 423.291C794.152 423.405 793.945 423.462 793.717 423.462H789.829C789.799 423.462 789.772 423.474 789.748 423.498C789.73 423.516 789.721 423.54 789.721 423.57V424.713C789.721 424.743 789.73 424.77 789.748 424.794C789.772 424.812 789.799 424.821 789.829 424.821H794.959V426H788.542ZM804.274 426C804.046 426 803.839 425.94 803.653 425.82C803.467 425.694 803.317 425.532 803.203 425.334C803.089 425.136 803.032 424.926 803.032 424.704V420.789C803.032 420.555 803.089 420.345 803.203 420.159C803.317 419.967 803.467 419.814 803.653 419.7C803.839 419.58 804.046 419.52 804.274 419.52H808.207C808.435 419.52 808.642 419.58 808.828 419.7C809.014 419.814 809.164 419.967 809.278 420.159C809.392 420.345 809.449 420.555 809.449 420.789V424.704C809.449 424.926 809.392 425.136 809.278 425.334C809.164 425.532 809.014 425.694 808.828 425.82C808.642 425.94 808.435 426 808.207 426H804.274ZM804.751 424.758H808.162C808.192 424.758 808.216 424.749 808.234 424.731C808.258 424.707 808.27 424.68 808.27 424.65V421.824L804.751 424.758ZM804.211 423.66L807.73 420.726H804.319C804.289 420.726 804.262 420.738 804.238 420.762C804.22 420.78 804.211 420.804 804.211 420.834V423.66ZM817.558 426V423.516C817.558 423.282 817.615 423.072 817.729 422.886C817.843 422.7 817.993 422.553 818.179 422.445C818.365 422.331 818.572 422.274 818.8 422.274H822.688C822.718 422.274 822.742 422.265 822.76 422.247C822.784 422.223 822.796 422.196 822.796 422.166V420.807C822.796 420.777 822.784 420.753 822.76 420.735C822.742 420.711 822.718 420.699 822.688 420.699H818.845C818.815 420.699 818.788 420.711 818.764 420.735C818.746 420.753 818.737 420.777 818.737 420.807V421.248H817.558V420.762C817.558 420.528 817.615 420.318 817.729 420.132C817.843 419.946 817.993 419.799 818.179 419.691C818.365 419.577 818.572 419.52 818.8 419.52H822.733C822.961 419.52 823.168 419.577 823.354 419.691C823.546 419.799 823.696 419.946 823.804 420.132C823.918 420.318 823.975 420.528 823.975 420.762V422.22C823.975 422.442 823.918 422.649 823.804 422.841C823.696 423.027 823.546 423.177 823.354 423.291C823.168 423.405 822.961 423.462 822.733 423.462H818.845C818.815 423.462 818.788 423.474 818.764 423.498C818.746 423.516 818.737 423.54 818.737 423.57V424.713C818.737 424.743 818.746 424.77 818.764 424.794C818.788 424.812 818.815 424.821 818.845 424.821H823.975V426H817.558ZM833.264 426C833.03 426 832.82 425.943 832.634 425.829C832.448 425.715 832.298 425.565 832.184 425.379C832.07 425.193 832.013 424.986 832.013 424.758V424.371H833.192V424.713C833.192 424.743 833.201 424.77 833.219 424.794C833.243 424.812 833.27 424.821 833.3 424.821H837.143C837.173 424.821 837.2 424.812 837.224 424.794C837.248 424.77 837.26 424.743 837.26 424.713V423.417C837.26 423.387 837.248 423.363 837.224 423.345C837.2 423.321 837.173 423.309 837.143 423.309H833.129V422.13H836.891C836.921 422.13 836.945 422.121 836.963 422.103C836.987 422.079 836.999 422.052 836.999 422.022V420.807C836.999 420.777 836.987 420.753 836.963 420.735C836.945 420.711 836.921 420.699 836.891 420.699H833.3C833.27 420.699 833.243 420.711 833.219 420.735C833.201 420.753 833.192 420.777 833.192 420.807V421.23H832.013V420.762C832.013 420.528 832.07 420.318 832.184 420.132C832.298 419.946 832.448 419.799 832.634 419.691C832.82 419.577 833.03 419.52 833.264 419.52H836.936C837.17 419.52 837.38 419.577 837.566 419.691C837.752 419.799 837.899 419.946 838.007 420.132C838.121 420.318 838.178 420.528 838.178 420.762V422.076C838.178 422.148 838.172 422.223 838.16 422.301C838.148 422.373 838.13 422.442 838.106 422.508C838.214 422.622 838.295 422.757 838.349 422.913C838.409 423.063 838.439 423.216 838.439 423.372V424.758C838.439 424.986 838.382 425.193 838.268 425.379C838.154 425.565 838.004 425.715 837.818 425.829C837.632 425.943 837.425 426 837.197 426H833.264Z" fill="black"/>
<path d="M1032.54 23V20.516C1032.54 20.282 1032.6 20.072 1032.71 19.886C1032.83 19.7 1032.98 19.553 1033.16 19.445C1033.35 19.331 1033.56 19.274 1033.78 19.274H1037.67C1037.7 19.274 1037.73 19.265 1037.74 19.247C1037.77 19.223 1037.78 19.196 1037.78 19.166V17.807C1037.78 17.777 1037.77 17.753 1037.74 17.735C1037.73 17.711 1037.7 17.699 1037.67 17.699H1033.83C1033.8 17.699 1033.77 17.711 1033.75 17.735C1033.73 17.753 1033.72 17.777 1033.72 17.807V18.248H1032.54V17.762C1032.54 17.528 1032.6 17.318 1032.71 17.132C1032.83 16.946 1032.98 16.799 1033.16 16.691C1033.35 16.577 1033.56 16.52 1033.78 16.52H1037.72C1037.94 16.52 1038.15 16.577 1038.34 16.691C1038.53 16.799 1038.68 16.946 1038.79 17.132C1038.9 17.318 1038.96 17.528 1038.96 17.762V19.22C1038.96 19.442 1038.9 19.649 1038.79 19.841C1038.68 20.027 1038.53 20.177 1038.34 20.291C1038.15 20.405 1037.94 20.462 1037.72 20.462H1033.83C1033.8 20.462 1033.77 20.474 1033.75 20.498C1033.73 20.516 1033.72 20.54 1033.72 20.57V21.713C1033.72 21.743 1033.73 21.77 1033.75 21.794C1033.77 21.812 1033.8 21.821 1033.83 21.821H1038.96V23H1032.54ZM1048.27 23C1048.05 23 1047.84 22.94 1047.65 22.82C1047.47 22.694 1047.32 22.532 1047.2 22.334C1047.09 22.136 1047.03 21.926 1047.03 21.704V17.789C1047.03 17.555 1047.09 17.345 1047.2 17.159C1047.32 16.967 1047.47 16.814 1047.65 16.7C1047.84 16.58 1048.05 16.52 1048.27 16.52H1052.21C1052.44 16.52 1052.64 16.58 1052.83 16.7C1053.01 16.814 1053.16 16.967 1053.28 17.159C1053.39 17.345 1053.45 17.555 1053.45 17.789V21.704C1053.45 21.926 1053.39 22.136 1053.28 22.334C1053.16 22.532 1053.01 22.694 1052.83 22.82C1052.64 22.94 1052.44 23 1052.21 23L1048.27 23ZM1048.75 21.758H1052.16C1052.19 21.758 1052.22 21.749 1052.23 21.731C1052.26 21.707 1052.27 21.68 1052.27 21.65V18.824L1048.75 21.758ZM1048.21 20.66L1051.73 17.726H1048.32C1048.29 17.726 1048.26 17.738 1048.24 17.762C1048.22 17.78 1048.21 17.804 1048.21 17.834V20.66ZM1061.56 23V20.516C1061.56 20.282 1061.62 20.072 1061.73 19.886C1061.84 19.7 1061.99 19.553 1062.18 19.445C1062.37 19.331 1062.57 19.274 1062.8 19.274H1066.69C1066.72 19.274 1066.74 19.265 1066.76 19.247C1066.78 19.223 1066.8 19.196 1066.8 19.166V17.807C1066.8 17.777 1066.78 17.753 1066.76 17.735C1066.74 17.711 1066.72 17.699 1066.69 17.699H1062.85C1062.82 17.699 1062.79 17.711 1062.76 17.735C1062.75 17.753 1062.74 17.777 1062.74 17.807V18.248H1061.56V17.762C1061.56 17.528 1061.62 17.318 1061.73 17.132C1061.84 16.946 1061.99 16.799 1062.18 16.691C1062.37 16.577 1062.57 16.52 1062.8 16.52H1066.73C1066.96 16.52 1067.17 16.577 1067.35 16.691C1067.55 16.799 1067.7 16.946 1067.8 17.132C1067.92 17.318 1067.98 17.528 1067.98 17.762V19.22C1067.98 19.442 1067.92 19.649 1067.8 19.841C1067.7 20.027 1067.55 20.177 1067.35 20.291C1067.17 20.405 1066.96 20.462 1066.73 20.462H1062.85C1062.82 20.462 1062.79 20.474 1062.76 20.498C1062.75 20.516 1062.74 20.54 1062.74 20.57V21.713C1062.74 21.743 1062.75 21.77 1062.76 21.794C1062.79 21.812 1062.82 21.821 1062.85 21.821H1067.98V23H1061.56ZM1077.26 23C1077.03 23 1076.82 22.943 1076.63 22.829C1076.45 22.715 1076.3 22.565 1076.18 22.379C1076.07 22.193 1076.01 21.986 1076.01 21.758V21.371H1077.19V21.713C1077.19 21.743 1077.2 21.77 1077.22 21.794C1077.24 21.812 1077.27 21.821 1077.3 21.821H1081.14C1081.17 21.821 1081.2 21.812 1081.22 21.794C1081.25 21.77 1081.26 21.743 1081.26 21.713V20.417C1081.26 20.387 1081.25 20.363 1081.22 20.345C1081.2 20.321 1081.17 20.309 1081.14 20.309H1077.13V19.13H1080.89C1080.92 19.13 1080.94 19.121 1080.96 19.103C1080.99 19.079 1081 19.052 1081 19.022V17.807C1081 17.777 1080.99 17.753 1080.96 17.735C1080.94 17.711 1080.92 17.699 1080.89 17.699H1077.3C1077.27 17.699 1077.24 17.711 1077.22 17.735C1077.2 17.753 1077.19 17.777 1077.19 17.807V18.23H1076.01V17.762C1076.01 17.528 1076.07 17.318 1076.18 17.132C1076.3 16.946 1076.45 16.799 1076.63 16.691C1076.82 16.577 1077.03 16.52 1077.26 16.52H1080.94C1081.17 16.52 1081.38 16.577 1081.57 16.691C1081.75 16.799 1081.9 16.946 1082.01 17.132C1082.12 17.318 1082.18 17.528 1082.18 17.762V19.076C1082.18 19.148 1082.17 19.223 1082.16 19.301C1082.15 19.373 1082.13 19.442 1082.11 19.508C1082.21 19.622 1082.29 19.757 1082.35 19.913C1082.41 20.063 1082.44 20.216 1082.44 20.372V21.758C1082.44 21.986 1082.38 22.193 1082.27 22.379C1082.15 22.565 1082 22.715 1081.82 22.829C1081.63 22.943 1081.42 23 1081.2 23H1077.26Z" fill="black"/>
<path d="M496.542 120V117.516C496.542 117.282 496.599 117.072 496.713 116.886C496.827 116.7 496.977 116.553 497.163 116.445C497.349 116.331 497.556 116.274 497.784 116.274H501.672C501.702 116.274 501.726 116.265 501.744 116.247C501.768 116.223 501.78 116.196 501.78 116.166V114.807C501.78 114.777 501.768 114.753 501.744 114.735C501.726 114.711 501.702 114.699 501.672 114.699H497.829C497.799 114.699 497.772 114.711 497.748 114.735C497.73 114.753 497.721 114.777 497.721 114.807V115.248H496.542V114.762C496.542 114.528 496.599 114.318 496.713 114.132C496.827 113.946 496.977 113.799 497.163 113.691C497.349 113.577 497.556 113.52 497.784 113.52H501.717C501.945 113.52 502.152 113.577 502.338 113.691C502.53 113.799 502.68 113.946 502.788 114.132C502.902 114.318 502.959 114.528 502.959 114.762V116.22C502.959 116.442 502.902 116.649 502.788 116.841C502.68 117.027 502.53 117.177 502.338 117.291C502.152 117.405 501.945 117.462 501.717 117.462H497.829C497.799 117.462 497.772 117.474 497.748 117.498C497.73 117.516 497.721 117.54 497.721 117.57V118.713C497.721 118.743 497.73 118.77 497.748 118.794C497.772 118.812 497.799 118.821 497.829 118.821H502.959V120H496.542ZM512.274 120C512.046 120 511.839 119.94 511.653 119.82C511.467 119.694 511.317 119.532 511.203 119.334C511.089 119.136 511.032 118.926 511.032 118.704V114.789C511.032 114.555 511.089 114.345 511.203 114.159C511.317 113.967 511.467 113.814 511.653 113.7C511.839 113.58 512.046 113.52 512.274 113.52H516.207C516.435 113.52 516.642 113.58 516.828 113.7C517.014 113.814 517.164 113.967 517.278 114.159C517.392 114.345 517.449 114.555 517.449 114.789V118.704C517.449 118.926 517.392 119.136 517.278 119.334C517.164 119.532 517.014 119.694 516.828 119.82C516.642 119.94 516.435 120 516.207 120H512.274ZM512.751 118.758H516.162C516.192 118.758 516.216 118.749 516.234 118.731C516.258 118.707 516.27 118.68 516.27 118.65V115.824L512.751 118.758ZM512.211 117.66L515.73 114.726H512.319C512.289 114.726 512.262 114.738 512.238 114.762C512.22 114.78 512.211 114.804 512.211 114.834V117.66ZM525.558 120V117.516C525.558 117.282 525.615 117.072 525.729 116.886C525.843 116.7 525.993 116.553 526.179 116.445C526.365 116.331 526.572 116.274 526.8 116.274H530.688C530.718 116.274 530.742 116.265 530.76 116.247C530.784 116.223 530.796 116.196 530.796 116.166V114.807C530.796 114.777 530.784 114.753 530.76 114.735C530.742 114.711 530.718 114.699 530.688 114.699H526.845C526.815 114.699 526.788 114.711 526.764 114.735C526.746 114.753 526.737 114.777 526.737 114.807V115.248H525.558V114.762C525.558 114.528 525.615 114.318 525.729 114.132C525.843 113.946 525.993 113.799 526.179 113.691C526.365 113.577 526.572 113.52 526.8 113.52H530.733C530.961 113.52 531.168 113.577 531.354 113.691C531.546 113.799 531.696 113.946 531.804 114.132C531.918 114.318 531.975 114.528 531.975 114.762V116.22C531.975 116.442 531.918 116.649 531.804 116.841C531.696 117.027 531.546 117.177 531.354 117.291C531.168 117.405 530.961 117.462 530.733 117.462H526.845C526.815 117.462 526.788 117.474 526.764 117.498C526.746 117.516 526.737 117.54 526.737 117.57V118.713C526.737 118.743 526.746 118.77 526.764 118.794C526.788 118.812 526.815 118.821 526.845 118.821H531.975V120H525.558ZM541.264 120C541.03 120 540.82 119.943 540.634 119.829C540.448 119.715 540.298 119.565 540.184 119.379C540.07 119.193 540.013 118.986 540.013 118.758V118.371H541.192V118.713C541.192 118.743 541.201 118.77 541.219 118.794C541.243 118.812 541.27 118.821 541.3 118.821H545.143C545.173 118.821 545.2 118.812 545.224 118.794C545.248 118.77 545.26 118.743 545.26 118.713V117.417C545.26 117.387 545.248 117.363 545.224 117.345C545.2 117.321 545.173 117.309 545.143 117.309H541.129V116.13H544.891C544.921 116.13 544.945 116.121 544.963 116.103C544.987 116.079 544.999 116.052 544.999 116.022V114.807C544.999 114.777 544.987 114.753 544.963 114.735C544.945 114.711 544.921 114.699 544.891 114.699L541.3 114.699C541.27 114.699 541.243 114.711 541.219 114.735C541.201 114.753 541.192 114.777 541.192 114.807V115.23H540.013V114.762C540.013 114.528 540.07 114.318 540.184 114.132C540.298 113.946 540.448 113.799 540.634 113.691C540.82 113.577 541.03 113.52 541.264 113.52L544.936 113.52C545.17 113.52 545.38 113.577 545.566 113.691C545.752 113.799 545.899 113.946 546.007 114.132C546.121 114.318 546.178 114.528 546.178 114.762V116.076C546.178 116.148 546.172 116.223 546.16 116.301C546.148 116.373 546.13 116.442 546.106 116.508C546.214 116.622 546.295 116.757 546.349 116.913C546.409 117.063 546.439 117.216 546.439 117.372V118.758C546.439 118.986 546.382 119.193 546.268 119.379C546.154 119.565 546.004 119.715 545.818 119.829C545.632 119.943 545.425 120 545.197 120H541.264Z" fill="black"/>
<path d="M1301.54 429V426.516C1301.54 426.282 1301.6 426.072 1301.71 425.886C1301.83 425.7 1301.98 425.553 1302.16 425.445C1302.35 425.331 1302.56 425.274 1302.78 425.274H1306.67C1306.7 425.274 1306.73 425.265 1306.74 425.247C1306.77 425.223 1306.78 425.196 1306.78 425.166V423.807C1306.78 423.777 1306.77 423.753 1306.74 423.735C1306.73 423.711 1306.7 423.699 1306.67 423.699H1302.83C1302.8 423.699 1302.77 423.711 1302.75 423.735C1302.73 423.753 1302.72 423.777 1302.72 423.807V424.248H1301.54V423.762C1301.54 423.528 1301.6 423.318 1301.71 423.132C1301.83 422.946 1301.98 422.799 1302.16 422.691C1302.35 422.577 1302.56 422.52 1302.78 422.52H1306.72C1306.94 422.52 1307.15 422.577 1307.34 422.691C1307.53 422.799 1307.68 422.946 1307.79 423.132C1307.9 423.318 1307.96 423.528 1307.96 423.762V425.22C1307.96 425.442 1307.9 425.649 1307.79 425.841C1307.68 426.027 1307.53 426.177 1307.34 426.291C1307.15 426.405 1306.94 426.462 1306.72 426.462H1302.83C1302.8 426.462 1302.77 426.474 1302.75 426.498C1302.73 426.516 1302.72 426.54 1302.72 426.57V427.713C1302.72 427.743 1302.73 427.77 1302.75 427.794C1302.77 427.812 1302.8 427.821 1302.83 427.821H1307.96V429H1301.54ZM1317.27 429C1317.05 429 1316.84 428.94 1316.65 428.82C1316.47 428.694 1316.32 428.532 1316.2 428.334C1316.09 428.136 1316.03 427.926 1316.03 427.704V423.789C1316.03 423.555 1316.09 423.345 1316.2 423.159C1316.32 422.967 1316.47 422.814 1316.65 422.7C1316.84 422.58 1317.05 422.52 1317.27 422.52H1321.21C1321.44 422.52 1321.64 422.58 1321.83 422.7C1322.01 422.814 1322.16 422.967 1322.28 423.159C1322.39 423.345 1322.45 423.555 1322.45 423.789V427.704C1322.45 427.926 1322.39 428.136 1322.28 428.334C1322.16 428.532 1322.01 428.694 1321.83 428.82C1321.64 428.94 1321.44 429 1321.21 429H1317.27ZM1317.75 427.758H1321.16C1321.19 427.758 1321.22 427.749 1321.23 427.731C1321.26 427.707 1321.27 427.68 1321.27 427.65V424.824L1317.75 427.758ZM1317.21 426.66L1320.73 423.726H1317.32C1317.29 423.726 1317.26 423.738 1317.24 423.762C1317.22 423.78 1317.21 423.804 1317.21 423.834V426.66ZM1330.56 429V426.516C1330.56 426.282 1330.62 426.072 1330.73 425.886C1330.84 425.7 1330.99 425.553 1331.18 425.445C1331.37 425.331 1331.57 425.274 1331.8 425.274H1335.69C1335.72 425.274 1335.74 425.265 1335.76 425.247C1335.78 425.223 1335.8 425.196 1335.8 425.166V423.807C1335.8 423.777 1335.78 423.753 1335.76 423.735C1335.74 423.711 1335.72 423.699 1335.69 423.699H1331.85C1331.82 423.699 1331.79 423.711 1331.76 423.735C1331.75 423.753 1331.74 423.777 1331.74 423.807V424.248H1330.56V423.762C1330.56 423.528 1330.62 423.318 1330.73 423.132C1330.84 422.946 1330.99 422.799 1331.18 422.691C1331.37 422.577 1331.57 422.52 1331.8 422.52H1335.73C1335.96 422.52 1336.17 422.577 1336.35 422.691C1336.55 422.799 1336.7 422.946 1336.8 423.132C1336.92 423.318 1336.98 423.528 1336.98 423.762V425.22C1336.98 425.442 1336.92 425.649 1336.8 425.841C1336.7 426.027 1336.55 426.177 1336.35 426.291C1336.17 426.405 1335.96 426.462 1335.73 426.462H1331.85C1331.82 426.462 1331.79 426.474 1331.76 426.498C1331.75 426.516 1331.74 426.54 1331.74 426.57V427.713C1331.74 427.743 1331.75 427.77 1331.76 427.794C1331.79 427.812 1331.82 427.821 1331.85 427.821H1336.98V429H1330.56ZM1346.26 429C1346.03 429 1345.82 428.943 1345.63 428.829C1345.45 428.715 1345.3 428.565 1345.18 428.379C1345.07 428.193 1345.01 427.986 1345.01 427.758V427.371H1346.19V427.713C1346.19 427.743 1346.2 427.77 1346.22 427.794C1346.24 427.812 1346.27 427.821 1346.3 427.821H1350.14C1350.17 427.821 1350.2 427.812 1350.22 427.794C1350.25 427.77 1350.26 427.743 1350.26 427.713V426.417C1350.26 426.387 1350.25 426.363 1350.22 426.345C1350.2 426.321 1350.17 426.309 1350.14 426.309H1346.13V425.13H1349.89C1349.92 425.13 1349.94 425.121 1349.96 425.103C1349.99 425.079 1350 425.052 1350 425.022V423.807C1350 423.777 1349.99 423.753 1349.96 423.735C1349.94 423.711 1349.92 423.699 1349.89 423.699H1346.3C1346.27 423.699 1346.24 423.711 1346.22 423.735C1346.2 423.753 1346.19 423.777 1346.19 423.807V424.23H1345.01V423.762C1345.01 423.528 1345.07 423.318 1345.18 423.132C1345.3 422.946 1345.45 422.799 1345.63 422.691C1345.82 422.577 1346.03 422.52 1346.26 422.52H1349.94C1350.17 422.52 1350.38 422.577 1350.57 422.691C1350.75 422.799 1350.9 422.946 1351.01 423.132C1351.12 423.318 1351.18 423.528 1351.18 423.762V425.076C1351.18 425.148 1351.17 425.223 1351.16 425.301C1351.15 425.373 1351.13 425.442 1351.11 425.508C1351.21 425.622 1351.29 425.757 1351.35 425.913C1351.41 426.063 1351.44 426.216 1351.44 426.372V427.758C1351.44 427.986 1351.38 428.193 1351.27 428.379C1351.15 428.565 1351 428.715 1350.82 428.829C1350.63 428.943 1350.42 429 1350.2 429H1346.26Z" fill="black"/>
</svg>
