<svg width="373" height="978" viewBox="0 0 373 978" fill="none" xmlns="http://www.w3.org/2000/svg">
<g filter="url(#filter0_f_903_295)">
<ellipse cx="-64" cy="540" rx="254" ry="255" fill="#11FF37" fill-opacity="0.14"/>
</g>
<path d="M-338.65 817.375H-218.354L-57.2582 656.279H-2.94319L42.9062 610.43V554.959L119.879 477.968H248.001V476.19H119.15L41.1277 554.23V609.701L-3.67242 654.501H-58.0052L-219.101 815.596H-338.65V817.375Z" fill="url(#paint0_linear_903_295)" fill-opacity="0.66"/>
<path d="M247.663 470.41C251.362 470.41 254.35 473.398 254.35 477.097C254.35 480.796 251.362 483.784 247.663 483.784C243.964 483.784 240.976 480.796 240.976 477.097C240.976 473.398 243.964 470.41 247.663 470.41Z" fill="url(#paint1_linear_903_295)" fill-opacity="0.33"/>
<path d="M-6.69603 522.751C-4.08165 520.136 0.151161 520.136 2.76554 522.751C5.37991 525.365 5.37991 529.598 2.76554 532.212C0.151161 534.827 -4.08165 534.827 -6.69603 532.212C-9.3104 529.598 -9.3104 525.365 -6.69603 522.751Z" fill="url(#paint2_linear_903_295)" fill-opacity="0.33"/>
<path d="M-159.058 642.923L-127.721 611.586H-4.93445L17.2966 589.355L16.0339 588.092L-5.6815 609.807H-128.468L-160.321 641.66L-159.058 642.923Z" fill="url(#paint3_linear_903_295)" fill-opacity="0.33"/>
<path d="M11.6941 584.233C14.3085 581.618 18.5413 581.618 21.1557 584.233C23.77 586.847 23.77 591.08 21.1557 593.694C18.5413 596.309 14.3085 596.309 11.6941 593.694C9.07973 591.08 9.07973 586.847 11.6941 584.233Z" fill="url(#paint4_linear_903_295)" fill-opacity="0.33"/>
<path d="M-313.271 675.985L-222.853 585.585V520.439L-156.356 453.941H12.6363L33.5868 432.99L32.324 431.728L11.8892 452.163H-157.103L-224.632 519.692V584.838L-314.534 674.74L-313.271 675.985Z" fill="url(#paint5_linear_903_295)" fill-opacity="0.33"/>
<path d="M27.9845 427.868C30.5988 425.254 34.8316 425.254 37.446 427.868C40.0604 430.483 40.0604 434.716 37.446 437.33C34.8316 439.944 30.5988 439.944 27.9845 437.33C25.3701 434.716 25.3701 430.483 27.9845 427.868Z" fill="url(#paint6_linear_903_295)" fill-opacity="0.33"/>
<path d="M-6.92706 560.063L26.1527 526.983V483.979L65.9197 444.195H88.5243V442.416H65.1906L24.3743 483.233V526.254L-8.18983 558.818L-6.92706 560.063Z" fill="url(#paint7_linear_903_295)" fill-opacity="0.66"/>
<path d="M-12.0491 554.479C-14.6634 557.093 -14.6634 561.326 -12.0491 563.94C-9.43468 566.555 -5.20187 566.555 -2.58749 563.94C0.026885 561.326 0.026885 557.093 -2.58749 554.479C-5.20187 551.864 -9.43468 551.864 -12.0491 554.479Z" fill="url(#paint8_linear_903_295)" fill-opacity="0.33"/>
<path d="M88.1862 436.619C91.8855 436.619 94.8734 439.606 94.8734 443.306C94.8734 447.005 91.8855 449.993 88.1862 449.993C84.487 449.993 81.4991 447.005 81.4991 443.306C81.4991 439.606 84.487 436.619 88.1862 436.619Z" fill="url(#paint9_linear_903_295)" fill-opacity="0.33"/>
<path d="M142.076 427.506L143.334 428.763L130.783 441.314L129.525 440.056L142.076 427.506Z" fill="url(#paint10_linear_903_295)" fill-opacity="0.33"/>
<path d="M127.491 437.632C125.926 439.197 125.926 441.74 127.491 443.305C129.056 444.87 131.599 444.87 133.164 443.305C134.729 441.74 134.729 439.197 133.164 437.632C131.599 436.067 129.056 436.067 127.491 437.632Z" fill="url(#paint11_linear_903_295)" fill-opacity="0.33"/>
<path d="M139.745 425.379C141.31 423.813 143.853 423.813 145.418 425.379C146.983 426.944 146.983 429.487 145.418 431.052C143.853 432.617 141.31 432.617 139.745 431.052C138.18 429.487 138.18 426.944 139.745 425.379Z" fill="url(#paint12_linear_903_295)" fill-opacity="0.33"/>
<path d="M157.872 427.438L159.13 428.696L146.579 441.247L145.322 439.989L157.872 427.438Z" fill="url(#paint13_linear_903_295)" fill-opacity="0.33"/>
<path d="M143.249 437.632C141.684 439.197 141.684 441.74 143.249 443.305C144.814 444.87 147.357 444.87 148.922 443.305C150.487 441.74 150.487 439.197 148.922 437.632C147.357 436.067 144.814 436.067 143.249 437.632Z" fill="url(#paint14_linear_903_295)" fill-opacity="0.33"/>
<path d="M155.52 425.379C157.085 423.813 159.628 423.813 161.193 425.379C162.759 426.944 162.759 429.487 161.193 431.052C159.628 432.617 157.085 432.617 155.52 431.052C153.955 429.487 153.955 426.944 155.52 425.379Z" fill="url(#paint15_linear_903_295)" fill-opacity="0.33"/>
<path d="M173.651 427.442L174.909 428.699L162.358 441.25L161.101 439.993L173.651 427.442Z" fill="url(#paint16_linear_903_295)" fill-opacity="0.33"/>
<path d="M159.024 437.632C157.459 439.197 157.459 441.74 159.024 443.305C160.589 444.87 163.132 444.87 164.698 443.305C166.263 441.74 166.263 439.197 164.698 437.632C163.132 436.067 160.589 436.067 159.024 437.632Z" fill="url(#paint17_linear_903_295)" fill-opacity="0.33"/>
<path d="M171.295 425.379C172.861 423.813 175.404 423.813 176.969 425.379C178.534 426.944 178.534 429.487 176.969 431.052C175.404 432.617 172.861 432.617 171.295 431.052C169.73 429.487 169.73 426.944 171.295 425.379Z" fill="url(#paint18_linear_903_295)" fill-opacity="0.33"/>
<path d="M189.4 427.433L190.657 428.69L178.107 441.241L176.849 439.983L189.4 427.433Z" fill="url(#paint19_linear_903_295)" fill-opacity="0.33"/>
<path d="M174.799 437.632C173.234 439.197 173.234 441.74 174.799 443.305C176.364 444.87 178.907 444.87 180.472 443.305C182.037 441.74 182.037 439.197 180.472 437.632C178.907 436.067 176.364 436.067 174.799 437.632Z" fill="url(#paint20_linear_903_295)" fill-opacity="0.33"/>
<path d="M187.07 425.379C188.635 423.813 191.178 423.813 192.743 425.379C194.308 426.944 194.308 429.487 192.743 431.052C191.178 432.617 188.635 432.617 187.07 431.052C185.505 429.487 185.505 426.944 187.07 425.379Z" fill="url(#paint21_linear_903_295)" fill-opacity="0.33"/>
<path d="M205.179 427.437L206.436 428.694L193.886 441.245L192.628 439.987L205.179 427.437Z" fill="url(#paint22_linear_903_295)" fill-opacity="0.33"/>
<path d="M190.574 437.632C189.009 439.197 189.009 441.74 190.574 443.305C192.139 444.87 194.683 444.87 196.248 443.305C197.813 441.74 197.813 439.197 196.248 437.632C194.683 436.067 192.139 436.067 190.574 437.632Z" fill="url(#paint23_linear_903_295)" fill-opacity="0.33"/>
<path d="M202.845 425.379C204.41 423.813 206.954 423.813 208.519 425.379C210.084 426.944 210.084 429.487 208.519 431.052C206.954 432.617 204.41 432.617 202.845 431.052C201.28 429.487 201.28 426.944 202.845 425.379Z" fill="url(#paint24_linear_903_295)" fill-opacity="0.33"/>
<path d="M220.956 427.44L222.214 428.698L209.663 441.248L208.406 439.991L220.956 427.44Z" fill="url(#paint25_linear_903_295)" fill-opacity="0.33"/>
<path d="M206.349 437.632C204.783 439.197 204.783 441.74 206.349 443.305C207.914 444.87 210.457 444.87 212.022 443.305C213.587 441.74 213.587 439.197 212.022 437.632C210.457 436.067 207.914 436.067 206.349 437.632Z" fill="url(#paint26_linear_903_295)" fill-opacity="0.33"/>
<path d="M218.603 425.379C220.168 423.813 222.711 423.813 224.276 425.379C225.841 426.944 225.841 429.487 224.276 431.052C222.711 432.617 220.168 432.617 218.603 431.052C217.037 429.487 217.037 426.944 218.603 425.379Z" fill="url(#paint27_linear_903_295)" fill-opacity="0.33"/>
<path d="M236.718 427.515L237.976 428.772L225.425 441.323L224.167 440.066L236.718 427.515Z" fill="url(#paint28_linear_903_295)" fill-opacity="0.33"/>
<path d="M222.107 437.632C220.541 439.197 220.541 441.74 222.107 443.305C223.672 444.87 226.215 444.87 227.78 443.305C229.345 441.74 229.345 439.197 227.78 437.632C226.215 436.067 223.672 436.067 222.107 437.632Z" fill="url(#paint29_linear_903_295)" fill-opacity="0.33"/>
<path d="M234.378 425.379C235.943 423.813 238.486 423.813 240.051 425.379C241.616 426.944 241.616 429.487 240.051 431.052C238.486 432.617 235.943 432.617 234.378 431.052C232.813 429.487 232.813 426.944 234.378 425.379Z" fill="url(#paint30_linear_903_295)" fill-opacity="0.33"/>
<path d="M252.515 427.447L253.773 428.705L241.222 441.256L239.964 439.998L252.515 427.447Z" fill="url(#paint31_linear_903_295)" fill-opacity="0.33"/>
<path d="M237.882 437.632C236.317 439.197 236.317 441.74 237.882 443.305C239.447 444.87 241.99 444.87 243.555 443.305C245.12 441.74 245.12 439.197 243.555 437.632C241.99 436.067 239.447 436.067 237.882 437.632Z" fill="url(#paint32_linear_903_295)" fill-opacity="0.33"/>
<path d="M250.153 425.379C251.718 423.813 254.262 423.813 255.827 425.379C257.392 426.944 257.392 429.487 255.827 431.052C254.262 432.617 251.718 432.617 250.153 431.052C248.588 429.487 248.588 426.944 250.153 425.379Z" fill="url(#paint33_linear_903_295)" fill-opacity="0.33"/>
<path d="M119.15 346.947H248.001V345.169H119.879L42.9062 268.196V212.725L-2.94319 166.875H-57.2582L-218.354 5.79785H-338.65V7.57634H-219.101L-58.0052 168.654H-3.67242L41.1277 213.454V268.925L119.15 346.947Z" fill="url(#paint34_linear_903_295)" fill-opacity="0.99"/>
<path d="M247.663 339.371C251.362 339.371 254.35 342.359 254.35 346.058C254.35 349.757 251.362 352.745 247.663 352.745C243.964 352.745 240.976 349.757 240.976 346.058C240.976 342.359 243.964 339.371 247.663 339.371Z" fill="url(#paint35_linear_903_295)" fill-opacity="0.44"/>
<path d="M2.76578 290.942C5.38016 293.557 5.38016 297.79 2.76578 300.404C0.151405 303.018 -4.08141 303.018 -6.69578 300.404C-9.31016 297.79 -9.31016 293.557 -6.69578 290.942C-4.08141 288.328 0.151405 288.328 2.76578 290.942Z" fill="url(#paint36_linear_903_295)" fill-opacity="0.33"/>
<path d="M16.0339 235.062L17.2966 233.799L-4.93445 211.568H-127.721L-159.058 180.231L-160.321 181.494L-128.468 213.347H-5.6815L16.0339 235.062Z" fill="url(#paint37_linear_903_295)" fill-opacity="0.33"/>
<path d="M21.1559 229.46C23.7703 232.075 23.7703 236.307 21.1559 238.922C18.5415 241.536 14.3087 241.536 11.6944 238.922C9.07998 236.307 9.07998 232.075 11.6944 229.46C14.3087 226.846 18.5415 226.846 21.1559 229.46Z" fill="url(#paint38_linear_903_295)" fill-opacity="0.33"/>
<path d="M32.324 391.427L33.5868 390.164L12.6363 369.214H-156.356L-222.853 302.716V237.57L-313.271 147.17L-314.534 148.415L-224.632 238.317V303.463L-157.103 370.992H11.8892L32.324 391.427Z" fill="url(#paint39_linear_903_295)" fill-opacity="0.33"/>
<path d="M37.4461 385.825C40.0605 388.44 40.0605 392.672 37.4461 395.287C34.8317 397.901 30.5989 397.901 27.9845 395.287C25.3701 392.672 25.3701 388.44 27.9845 385.825C30.5989 383.211 34.8317 383.211 37.4461 385.825Z" fill="url(#paint40_linear_903_295)" fill-opacity="0.33"/>
<path d="M65.1906 380.738H88.5243V378.96H65.9197L26.1527 339.175V296.171L-6.92706 263.091L-8.18983 264.336L24.3743 296.9V339.922L65.1906 380.738Z" fill="url(#paint41_linear_903_295)" fill-opacity="0.66"/>
<path d="M-2.58749 259.214C-5.20187 256.6 -9.43468 256.6 -12.0491 259.214C-14.6634 261.829 -14.6634 266.062 -12.0491 268.676C-9.43468 271.29 -5.20187 271.29 -2.58749 268.676C0.026885 266.062 0.026885 261.829 -2.58749 259.214Z" fill="url(#paint42_linear_903_295)" fill-opacity="0.33"/>
<path d="M88.186 373.162C91.8853 373.162 94.8732 376.15 94.8732 379.849C94.8732 383.548 91.8853 386.536 88.186 386.536C84.4868 386.536 81.4989 383.548 81.4989 379.849C81.4989 376.15 84.4868 373.162 88.186 373.162Z" fill="url(#paint43_linear_903_295)" fill-opacity="0.33"/>
<path d="M130.804 381.902L143.355 394.452L142.098 395.71L129.547 383.159L130.804 381.902Z" fill="url(#paint44_linear_903_295)" fill-opacity="0.33"/>
<path d="M133.165 379.849C131.6 378.284 129.056 378.284 127.491 379.849C125.926 381.414 125.926 383.957 127.491 385.522C129.056 387.088 131.6 387.088 133.165 385.522C134.73 383.957 134.73 381.414 133.165 379.849Z" fill="url(#paint45_linear_903_295)" fill-opacity="0.33"/>
<path d="M145.436 392.103C147.001 393.668 147.001 396.211 145.436 397.776C143.871 399.341 141.328 399.341 139.763 397.776C138.198 396.211 138.198 393.668 139.763 392.103C141.328 390.538 143.871 390.538 145.436 392.103Z" fill="url(#paint46_linear_903_295)" fill-opacity="0.33"/>
<path d="M146.583 381.906L159.133 394.456L157.876 395.714L145.325 383.163L146.583 381.906Z" fill="url(#paint47_linear_903_295)" fill-opacity="0.33"/>
<path d="M148.94 379.849C147.374 378.284 144.831 378.284 143.266 379.849C141.701 381.414 141.701 383.957 143.266 385.522C144.831 387.088 147.374 387.088 148.94 385.522C150.505 383.957 150.505 381.414 148.94 379.849Z" fill="url(#paint48_linear_903_295)" fill-opacity="0.33"/>
<path d="M161.194 392.103C162.759 393.668 162.759 396.211 161.194 397.776C159.628 399.341 157.085 399.341 155.52 397.776C153.955 396.211 153.955 393.668 155.52 392.103C157.085 390.538 159.628 390.538 161.194 392.103Z" fill="url(#paint49_linear_903_295)" fill-opacity="0.33"/>
<path d="M162.362 381.909L174.912 394.46L173.655 395.717L161.104 383.167L162.362 381.909Z" fill="url(#paint50_linear_903_295)" fill-opacity="0.33"/>
<path d="M164.698 379.849C163.132 378.284 160.589 378.284 159.024 379.849C157.459 381.414 157.459 383.957 159.024 385.522C160.589 387.088 163.132 387.088 164.698 385.522C166.263 383.957 166.263 381.414 164.698 379.849Z" fill="url(#paint51_linear_903_295)" fill-opacity="0.33"/>
<path d="M176.969 392.103C178.534 393.668 178.534 396.211 176.969 397.776C175.404 399.341 172.861 399.341 171.296 397.776C169.73 396.211 169.73 393.668 171.296 392.103C172.861 390.538 175.404 390.538 176.969 392.103Z" fill="url(#paint52_linear_903_295)" fill-opacity="0.33"/>
<path d="M178.105 381.984L190.656 394.535L189.398 395.792L176.847 383.242L178.105 381.984Z" fill="url(#paint53_linear_903_295)" fill-opacity="0.33"/>
<path d="M180.472 379.849C178.907 378.284 176.364 378.284 174.799 379.849C173.234 381.414 173.234 383.957 174.799 385.522C176.364 387.088 178.907 387.088 180.472 385.522C182.037 383.957 182.037 381.414 180.472 379.849Z" fill="url(#paint54_linear_903_295)" fill-opacity="0.33"/>
<path d="M192.744 392.103C194.309 393.668 194.309 396.211 192.744 397.776C191.178 399.341 188.635 399.341 187.07 397.776C185.505 396.211 185.505 393.668 187.07 392.103C188.635 390.538 191.178 390.538 192.744 392.103Z" fill="url(#paint55_linear_903_295)" fill-opacity="0.33"/>
<path d="M193.889 381.904L206.44 394.455L205.182 395.712L192.631 383.162L193.889 381.904Z" fill="url(#paint56_linear_903_295)" fill-opacity="0.33"/>
<path d="M196.248 379.849C194.683 378.284 192.139 378.284 190.574 379.849C189.009 381.414 189.009 383.957 190.574 385.522C192.139 387.088 194.683 387.088 196.248 385.522C197.813 383.957 197.813 381.414 196.248 379.849Z" fill="url(#paint57_linear_903_295)" fill-opacity="0.33"/>
<path d="M208.519 392.103C210.084 393.668 210.084 396.211 208.519 397.776C206.954 399.341 204.411 399.341 202.846 397.776C201.281 396.211 201.281 393.668 202.846 392.103C204.411 390.538 206.954 390.538 208.519 392.103Z" fill="url(#paint58_linear_903_295)" fill-opacity="0.33"/>
<path d="M209.668 381.908L222.219 394.458L220.961 395.716L208.41 383.165L209.668 381.908Z" fill="url(#paint59_linear_903_295)" fill-opacity="0.33"/>
<path d="M212.023 379.849C210.458 378.284 207.915 378.284 206.35 379.849C204.784 381.414 204.784 383.957 206.35 385.522C207.915 387.088 210.458 387.088 212.023 385.522C213.588 383.957 213.588 381.414 212.023 379.849Z" fill="url(#paint60_linear_903_295)" fill-opacity="0.33"/>
<path d="M224.294 392.103C225.859 393.668 225.859 396.211 224.294 397.776C222.729 399.341 220.186 399.341 218.621 397.776C217.056 396.211 217.056 393.668 218.621 392.103C220.186 390.538 222.729 390.538 224.294 392.103Z" fill="url(#paint61_linear_903_295)" fill-opacity="0.33"/>
<path d="M225.411 381.982L237.962 394.533L236.704 395.79L224.153 383.24L225.411 381.982Z" fill="url(#paint62_linear_903_295)" fill-opacity="0.33"/>
<path d="M227.797 379.849C226.232 378.284 223.689 378.284 222.124 379.849C220.559 381.414 220.559 383.957 222.124 385.522C223.689 387.088 226.232 387.088 227.797 385.522C229.362 383.957 229.362 381.414 227.797 379.849Z" fill="url(#paint63_linear_903_295)" fill-opacity="0.33"/>
<path d="M240.051 392.103C241.616 393.668 241.616 396.211 240.051 397.776C238.486 399.341 235.943 399.341 234.378 397.776C232.813 396.211 232.813 393.668 234.378 392.103C235.943 390.538 238.486 390.538 240.051 392.103Z" fill="url(#paint64_linear_903_295)" fill-opacity="0.33"/>
<path d="M241.207 381.915L253.758 394.465L252.5 395.723L239.95 383.172L241.207 381.915Z" fill="url(#paint65_linear_903_295)" fill-opacity="0.33"/>
<path d="M243.555 379.849C241.99 378.284 239.447 378.284 237.882 379.849C236.317 381.414 236.317 383.957 237.882 385.522C239.447 387.088 241.99 387.088 243.555 385.522C245.12 383.957 245.12 381.414 243.555 379.849Z" fill="url(#paint66_linear_903_295)" fill-opacity="0.33"/>
<path d="M255.827 392.103C257.392 393.668 257.392 396.211 255.827 397.776C254.262 399.341 251.718 399.341 250.153 397.776C248.588 396.211 248.588 393.668 250.153 392.103C251.718 390.538 254.262 390.538 255.827 392.103Z" fill="url(#paint67_linear_903_295)" fill-opacity="0.33"/>
<g filter="url(#filter1_d_903_295)">
<path d="M129 478C129 481.866 125.866 485 122 485C118.134 485 115 481.866 115 478C115 474.134 118.134 471 122 471C125.866 471 129 474.134 129 478Z" fill="#1AFF24"/>
<path d="M128.5 478C128.5 481.59 125.59 484.5 122 484.5C118.41 484.5 115.5 481.59 115.5 478C115.5 474.41 118.41 471.5 122 471.5C125.59 471.5 128.5 474.41 128.5 478Z" stroke="white" stroke-opacity="0.42"/>
</g>
<defs>
<filter id="filter0_f_903_295" x="-501" y="102" width="874" height="876" filterUnits="userSpaceOnUse" color-interpolation-filters="sRGB">
<feFlood flood-opacity="0" result="BackgroundImageFix"/>
<feBlend mode="normal" in="SourceGraphic" in2="BackgroundImageFix" result="shape"/>
<feGaussianBlur stdDeviation="91.5" result="effect1_foregroundBlur_903_295"/>
</filter>
<filter id="filter1_d_903_295" x="106" y="462" width="32" height="32" filterUnits="userSpaceOnUse" color-interpolation-filters="sRGB">
<feFlood flood-opacity="0" result="BackgroundImageFix"/>
<feColorMatrix in="SourceAlpha" type="matrix" values="0 0 0 0 0 0 0 0 0 0 0 0 0 0 0 0 0 0 127 0" result="hardAlpha"/>
<feOffset/>
<feGaussianBlur stdDeviation="4.5"/>
<feComposite in2="hardAlpha" operator="out"/>
<feColorMatrix type="matrix" values="0 0 0 0 0.108333 0 0 0 0 1 0 0 0 0 0.253034 0 0 0 1 0"/>
<feBlend mode="normal" in2="BackgroundImageFix" result="effect1_dropShadow_903_295"/>
<feBlend mode="normal" in="SourceGraphic" in2="effect1_dropShadow_903_295" result="shape"/>
</filter>
<linearGradient id="paint0_linear_903_295" x1="-171.5" y1="647" x2="122.789" y2="395.611" gradientUnits="userSpaceOnUse">
<stop stop-color="white"/>
<stop offset="1" stop-color="white" stop-opacity="0"/>
</linearGradient>
<linearGradient id="paint1_linear_903_295" x1="262.237" y1="468.98" x2="255.49" y2="485.94" gradientUnits="userSpaceOnUse">
<stop stop-color="white"/>
<stop offset="1" stop-color="white" stop-opacity="0"/>
</linearGradient>
<linearGradient id="paint2_linear_903_295" x1="12.6184" y1="519.359" x2="5.86708" y2="536.331" gradientUnits="userSpaceOnUse">
<stop stop-color="white"/>
<stop offset="1" stop-color="white" stop-opacity="0"/>
</linearGradient>
<linearGradient id="paint3_linear_903_295" x1="122.038" y1="582.23" x2="112.295" y2="661.569" gradientUnits="userSpaceOnUse">
<stop stop-color="white"/>
<stop offset="1" stop-color="white" stop-opacity="0"/>
</linearGradient>
<linearGradient id="paint4_linear_903_295" x1="31.0085" y1="580.841" x2="24.2572" y2="597.813" gradientUnits="userSpaceOnUse">
<stop stop-color="white"/>
<stop offset="1" stop-color="white" stop-opacity="0"/>
</linearGradient>
<linearGradient id="paint5_linear_903_295" x1="238.874" y1="405.615" x2="145.974" y2="738.451" gradientUnits="userSpaceOnUse">
<stop stop-color="white"/>
<stop offset="1" stop-color="white" stop-opacity="0"/>
</linearGradient>
<linearGradient id="paint6_linear_903_295" x1="47.2988" y1="424.477" x2="40.5475" y2="441.448" gradientUnits="userSpaceOnUse">
<stop stop-color="white"/>
<stop offset="1" stop-color="white" stop-opacity="0"/>
</linearGradient>
<linearGradient id="paint7_linear_903_295" x1="145.557" y1="429.839" x2="77.8033" y2="569.853" gradientUnits="userSpaceOnUse">
<stop stop-color="white"/>
<stop offset="1" stop-color="white" stop-opacity="0"/>
</linearGradient>
<linearGradient id="paint8_linear_903_295" x1="7.26533" y1="551.087" x2="0.514005" y2="568.059" gradientUnits="userSpaceOnUse">
<stop stop-color="white"/>
<stop offset="1" stop-color="white" stop-opacity="0"/>
</linearGradient>
<linearGradient id="paint9_linear_903_295" x1="102.76" y1="435.189" x2="96.0133" y2="452.149" gradientUnits="userSpaceOnUse">
<stop stop-color="white"/>
<stop offset="1" stop-color="white" stop-opacity="0"/>
</linearGradient>
<linearGradient id="paint10_linear_903_295" x1="145.417" y1="428.163" x2="139.951" y2="424.897" gradientUnits="userSpaceOnUse">
<stop stop-color="white"/>
<stop offset="1" stop-color="white" stop-opacity="0"/>
</linearGradient>
<linearGradient id="paint11_linear_903_295" x1="139.068" y1="435.601" x2="135.022" y2="445.772" gradientUnits="userSpaceOnUse">
<stop stop-color="white"/>
<stop offset="1" stop-color="white" stop-opacity="0"/>
</linearGradient>
<linearGradient id="paint12_linear_903_295" x1="151.322" y1="423.347" x2="147.276" y2="433.519" gradientUnits="userSpaceOnUse">
<stop stop-color="white"/>
<stop offset="1" stop-color="white" stop-opacity="0"/>
</linearGradient>
<linearGradient id="paint13_linear_903_295" x1="161.213" y1="428.096" x2="155.747" y2="424.829" gradientUnits="userSpaceOnUse">
<stop stop-color="white"/>
<stop offset="1" stop-color="white" stop-opacity="0"/>
</linearGradient>
<linearGradient id="paint14_linear_903_295" x1="154.826" y1="435.601" x2="150.78" y2="445.772" gradientUnits="userSpaceOnUse">
<stop stop-color="white"/>
<stop offset="1" stop-color="white" stop-opacity="0"/>
</linearGradient>
<linearGradient id="paint15_linear_903_295" x1="167.097" y1="423.347" x2="163.051" y2="433.519" gradientUnits="userSpaceOnUse">
<stop stop-color="white"/>
<stop offset="1" stop-color="white" stop-opacity="0"/>
</linearGradient>
<linearGradient id="paint16_linear_903_295" x1="176.992" y1="428.099" x2="171.526" y2="424.833" gradientUnits="userSpaceOnUse">
<stop stop-color="white"/>
<stop offset="1" stop-color="white" stop-opacity="0"/>
</linearGradient>
<linearGradient id="paint17_linear_903_295" x1="170.601" y1="435.601" x2="166.555" y2="445.772" gradientUnits="userSpaceOnUse">
<stop stop-color="white"/>
<stop offset="1" stop-color="white" stop-opacity="0"/>
</linearGradient>
<linearGradient id="paint18_linear_903_295" x1="182.873" y1="423.347" x2="178.826" y2="433.519" gradientUnits="userSpaceOnUse">
<stop stop-color="white"/>
<stop offset="1" stop-color="white" stop-opacity="0"/>
</linearGradient>
<linearGradient id="paint19_linear_903_295" x1="192.741" y1="428.09" x2="187.275" y2="424.824" gradientUnits="userSpaceOnUse">
<stop stop-color="white"/>
<stop offset="1" stop-color="white" stop-opacity="0"/>
</linearGradient>
<linearGradient id="paint20_linear_903_295" x1="186.376" y1="435.601" x2="182.33" y2="445.772" gradientUnits="userSpaceOnUse">
<stop stop-color="white"/>
<stop offset="1" stop-color="white" stop-opacity="0"/>
</linearGradient>
<linearGradient id="paint21_linear_903_295" x1="198.647" y1="423.347" x2="194.601" y2="433.519" gradientUnits="userSpaceOnUse">
<stop stop-color="white"/>
<stop offset="1" stop-color="white" stop-opacity="0"/>
</linearGradient>
<linearGradient id="paint22_linear_903_295" x1="208.52" y1="428.094" x2="203.053" y2="424.828" gradientUnits="userSpaceOnUse">
<stop stop-color="white"/>
<stop offset="1" stop-color="white" stop-opacity="0"/>
</linearGradient>
<linearGradient id="paint23_linear_903_295" x1="202.151" y1="435.601" x2="198.105" y2="445.772" gradientUnits="userSpaceOnUse">
<stop stop-color="white"/>
<stop offset="1" stop-color="white" stop-opacity="0"/>
</linearGradient>
<linearGradient id="paint24_linear_903_295" x1="214.423" y1="423.347" x2="210.376" y2="433.519" gradientUnits="userSpaceOnUse">
<stop stop-color="white"/>
<stop offset="1" stop-color="white" stop-opacity="0"/>
</linearGradient>
<linearGradient id="paint25_linear_903_295" x1="224.297" y1="428.098" x2="218.831" y2="424.831" gradientUnits="userSpaceOnUse">
<stop stop-color="white"/>
<stop offset="1" stop-color="white" stop-opacity="0"/>
</linearGradient>
<linearGradient id="paint26_linear_903_295" x1="217.926" y1="435.601" x2="213.879" y2="445.772" gradientUnits="userSpaceOnUse">
<stop stop-color="white"/>
<stop offset="1" stop-color="white" stop-opacity="0"/>
</linearGradient>
<linearGradient id="paint27_linear_903_295" x1="230.18" y1="423.347" x2="226.133" y2="433.519" gradientUnits="userSpaceOnUse">
<stop stop-color="white"/>
<stop offset="1" stop-color="white" stop-opacity="0"/>
</linearGradient>
<linearGradient id="paint28_linear_903_295" x1="240.059" y1="428.172" x2="234.593" y2="424.906" gradientUnits="userSpaceOnUse">
<stop stop-color="white"/>
<stop offset="1" stop-color="white" stop-opacity="0"/>
</linearGradient>
<linearGradient id="paint29_linear_903_295" x1="233.684" y1="435.601" x2="229.637" y2="445.772" gradientUnits="userSpaceOnUse">
<stop stop-color="white"/>
<stop offset="1" stop-color="white" stop-opacity="0"/>
</linearGradient>
<linearGradient id="paint30_linear_903_295" x1="245.955" y1="423.347" x2="241.909" y2="433.519" gradientUnits="userSpaceOnUse">
<stop stop-color="white"/>
<stop offset="1" stop-color="white" stop-opacity="0"/>
</linearGradient>
<linearGradient id="paint31_linear_903_295" x1="255.856" y1="428.105" x2="250.39" y2="424.838" gradientUnits="userSpaceOnUse">
<stop stop-color="white"/>
<stop offset="1" stop-color="white" stop-opacity="0"/>
</linearGradient>
<linearGradient id="paint32_linear_903_295" x1="249.459" y1="435.601" x2="245.413" y2="445.772" gradientUnits="userSpaceOnUse">
<stop stop-color="white"/>
<stop offset="1" stop-color="white" stop-opacity="0"/>
</linearGradient>
<linearGradient id="paint33_linear_903_295" x1="261.73" y1="423.347" x2="257.684" y2="433.519" gradientUnits="userSpaceOnUse">
<stop stop-color="white"/>
<stop offset="1" stop-color="white" stop-opacity="0"/>
</linearGradient>
<linearGradient id="paint34_linear_903_295" x1="-58.0002" y1="41" x2="236.9" y2="175.08" gradientUnits="userSpaceOnUse">
<stop stop-color="white"/>
<stop offset="1" stop-color="white" stop-opacity="0"/>
</linearGradient>
<linearGradient id="paint35_linear_903_295" x1="262.237" y1="337.941" x2="255.49" y2="354.901" gradientUnits="userSpaceOnUse">
<stop stop-color="white"/>
<stop offset="1" stop-color="white" stop-opacity="0"/>
</linearGradient>
<linearGradient id="paint36_linear_903_295" x1="12.6186" y1="287.551" x2="5.86728" y2="304.522" gradientUnits="userSpaceOnUse">
<stop stop-color="white"/>
<stop offset="1" stop-color="white" stop-opacity="0"/>
</linearGradient>
<linearGradient id="paint37_linear_903_295" x1="122.038" y1="174.37" x2="112.295" y2="253.709" gradientUnits="userSpaceOnUse">
<stop stop-color="white"/>
<stop offset="1" stop-color="white" stop-opacity="0"/>
</linearGradient>
<linearGradient id="paint38_linear_903_295" x1="31.0087" y1="226.069" x2="24.2574" y2="243.04" gradientUnits="userSpaceOnUse">
<stop stop-color="white"/>
<stop offset="1" stop-color="white" stop-opacity="0"/>
</linearGradient>
<linearGradient id="paint39_linear_903_295" x1="238.874" y1="121.057" x2="145.974" y2="453.893" gradientUnits="userSpaceOnUse">
<stop stop-color="white"/>
<stop offset="1" stop-color="white" stop-opacity="0"/>
</linearGradient>
<linearGradient id="paint40_linear_903_295" x1="47.2989" y1="382.434" x2="40.5476" y2="399.405" gradientUnits="userSpaceOnUse">
<stop stop-color="white"/>
<stop offset="1" stop-color="white" stop-opacity="0"/>
</linearGradient>
<linearGradient id="paint41_linear_903_295" x1="145.557" y1="250.514" x2="77.8032" y2="390.528" gradientUnits="userSpaceOnUse">
<stop stop-color="white"/>
<stop offset="1" stop-color="white" stop-opacity="0"/>
</linearGradient>
<linearGradient id="paint42_linear_903_295" x1="7.26533" y1="255.823" x2="0.514029" y2="272.794" gradientUnits="userSpaceOnUse">
<stop stop-color="white"/>
<stop offset="1" stop-color="white" stop-opacity="0"/>
</linearGradient>
<linearGradient id="paint43_linear_903_295" x1="102.76" y1="371.732" x2="96.0132" y2="388.692" gradientUnits="userSpaceOnUse">
<stop stop-color="white"/>
<stop offset="1" stop-color="white" stop-opacity="0"/>
</linearGradient>
<linearGradient id="paint44_linear_903_295" x1="150.891" y1="401.719" x2="148.973" y2="403.49" gradientUnits="userSpaceOnUse">
<stop stop-color="white"/>
<stop offset="1" stop-color="white" stop-opacity="0"/>
</linearGradient>
<linearGradient id="paint45_linear_903_295" x1="139.068" y1="377.818" x2="135.022" y2="387.989" gradientUnits="userSpaceOnUse">
<stop stop-color="white"/>
<stop offset="1" stop-color="white" stop-opacity="0"/>
</linearGradient>
<linearGradient id="paint46_linear_903_295" x1="151.34" y1="390.071" x2="147.294" y2="400.243" gradientUnits="userSpaceOnUse">
<stop stop-color="white"/>
<stop offset="1" stop-color="white" stop-opacity="0"/>
</linearGradient>
<linearGradient id="paint47_linear_903_295" x1="166.669" y1="401.723" x2="164.751" y2="403.494" gradientUnits="userSpaceOnUse">
<stop stop-color="white"/>
<stop offset="1" stop-color="white" stop-opacity="0"/>
</linearGradient>
<linearGradient id="paint48_linear_903_295" x1="154.843" y1="377.818" x2="150.797" y2="387.989" gradientUnits="userSpaceOnUse">
<stop stop-color="white"/>
<stop offset="1" stop-color="white" stop-opacity="0"/>
</linearGradient>
<linearGradient id="paint49_linear_903_295" x1="167.097" y1="390.071" x2="163.051" y2="400.243" gradientUnits="userSpaceOnUse">
<stop stop-color="white"/>
<stop offset="1" stop-color="white" stop-opacity="0"/>
</linearGradient>
<linearGradient id="paint50_linear_903_295" x1="182.448" y1="401.727" x2="180.53" y2="403.497" gradientUnits="userSpaceOnUse">
<stop stop-color="white"/>
<stop offset="1" stop-color="white" stop-opacity="0"/>
</linearGradient>
<linearGradient id="paint51_linear_903_295" x1="170.601" y1="377.818" x2="166.555" y2="387.989" gradientUnits="userSpaceOnUse">
<stop stop-color="white"/>
<stop offset="1" stop-color="white" stop-opacity="0"/>
</linearGradient>
<linearGradient id="paint52_linear_903_295" x1="182.873" y1="390.071" x2="178.826" y2="400.243" gradientUnits="userSpaceOnUse">
<stop stop-color="white"/>
<stop offset="1" stop-color="white" stop-opacity="0"/>
</linearGradient>
<linearGradient id="paint53_linear_903_295" x1="198.191" y1="401.801" x2="196.273" y2="403.572" gradientUnits="userSpaceOnUse">
<stop stop-color="white"/>
<stop offset="1" stop-color="white" stop-opacity="0"/>
</linearGradient>
<linearGradient id="paint54_linear_903_295" x1="186.376" y1="377.818" x2="182.33" y2="387.989" gradientUnits="userSpaceOnUse">
<stop stop-color="white"/>
<stop offset="1" stop-color="white" stop-opacity="0"/>
</linearGradient>
<linearGradient id="paint55_linear_903_295" x1="198.647" y1="390.071" x2="194.601" y2="400.243" gradientUnits="userSpaceOnUse">
<stop stop-color="white"/>
<stop offset="1" stop-color="white" stop-opacity="0"/>
</linearGradient>
<linearGradient id="paint56_linear_903_295" x1="213.975" y1="401.721" x2="212.058" y2="403.492" gradientUnits="userSpaceOnUse">
<stop stop-color="white"/>
<stop offset="1" stop-color="white" stop-opacity="0"/>
</linearGradient>
<linearGradient id="paint57_linear_903_295" x1="202.151" y1="377.818" x2="198.105" y2="387.989" gradientUnits="userSpaceOnUse">
<stop stop-color="white"/>
<stop offset="1" stop-color="white" stop-opacity="0"/>
</linearGradient>
<linearGradient id="paint58_linear_903_295" x1="214.423" y1="390.071" x2="210.376" y2="400.243" gradientUnits="userSpaceOnUse">
<stop stop-color="white"/>
<stop offset="1" stop-color="white" stop-opacity="0"/>
</linearGradient>
<linearGradient id="paint59_linear_903_295" x1="229.754" y1="401.725" x2="227.836" y2="403.495" gradientUnits="userSpaceOnUse">
<stop stop-color="white"/>
<stop offset="1" stop-color="white" stop-opacity="0"/>
</linearGradient>
<linearGradient id="paint60_linear_903_295" x1="217.927" y1="377.818" x2="213.88" y2="387.989" gradientUnits="userSpaceOnUse">
<stop stop-color="white"/>
<stop offset="1" stop-color="white" stop-opacity="0"/>
</linearGradient>
<linearGradient id="paint61_linear_903_295" x1="230.198" y1="390.071" x2="226.152" y2="400.243" gradientUnits="userSpaceOnUse">
<stop stop-color="white"/>
<stop offset="1" stop-color="white" stop-opacity="0"/>
</linearGradient>
<linearGradient id="paint62_linear_903_295" x1="245.497" y1="401.799" x2="243.579" y2="403.57" gradientUnits="userSpaceOnUse">
<stop stop-color="white"/>
<stop offset="1" stop-color="white" stop-opacity="0"/>
</linearGradient>
<linearGradient id="paint63_linear_903_295" x1="233.701" y1="377.818" x2="229.655" y2="387.989" gradientUnits="userSpaceOnUse">
<stop stop-color="white"/>
<stop offset="1" stop-color="white" stop-opacity="0"/>
</linearGradient>
<linearGradient id="paint64_linear_903_295" x1="245.955" y1="390.071" x2="241.909" y2="400.243" gradientUnits="userSpaceOnUse">
<stop stop-color="white"/>
<stop offset="1" stop-color="white" stop-opacity="0"/>
</linearGradient>
<linearGradient id="paint65_linear_903_295" x1="261.293" y1="401.732" x2="259.376" y2="403.503" gradientUnits="userSpaceOnUse">
<stop stop-color="white"/>
<stop offset="1" stop-color="white" stop-opacity="0"/>
</linearGradient>
<linearGradient id="paint66_linear_903_295" x1="249.459" y1="377.818" x2="245.413" y2="387.989" gradientUnits="userSpaceOnUse">
<stop stop-color="white"/>
<stop offset="1" stop-color="white" stop-opacity="0"/>
</linearGradient>
<linearGradient id="paint67_linear_903_295" x1="261.73" y1="390.071" x2="257.684" y2="400.243" gradientUnits="userSpaceOnUse">
<stop stop-color="white"/>
<stop offset="1" stop-color="white" stop-opacity="0"/>
</linearGradient>
</defs>
</svg>
