<svg width="253" height="824" viewBox="0 0 253 824" fill="none" xmlns="http://www.w3.org/2000/svg">
<path d="M595.651 817.375H475.354L314.259 656.279H259.944L214.094 610.43V554.959L137.121 477.968H8.99921V476.19H137.851L215.873 554.23V609.701L260.673 654.501H315.006L476.101 815.596H595.651V817.375Z" fill="url(#paint0_linear_591_359)" fill-opacity="0.55"/>
<path d="M9.33749 470.41C5.63824 470.41 2.65036 473.398 2.65036 477.097C2.65036 480.796 5.63824 483.784 9.33749 483.784C13.0367 483.784 16.0246 480.796 16.0246 477.097C16.0246 473.398 13.0367 470.41 9.33749 470.41Z" fill="url(#paint1_linear_591_359)" fill-opacity="0.44"/>
<path d="M263.697 522.751C261.082 520.136 256.849 520.136 254.235 522.751C251.621 525.365 251.621 529.598 254.235 532.212C256.849 534.827 261.082 534.827 263.697 532.212C266.311 529.598 266.311 525.365 263.697 522.751Z" fill="url(#paint2_linear_591_359)" fill-opacity="0.33"/>
<path d="M416.059 642.923L384.722 611.586H261.935L239.704 589.355L240.967 588.092L262.682 609.807H385.469L417.321 641.66L416.059 642.923Z" fill="url(#paint3_linear_591_359)" fill-opacity="0.33"/>
<path d="M245.306 584.233C242.692 581.618 238.459 581.618 235.845 584.233C233.23 586.847 233.23 591.08 235.845 593.694C238.459 596.309 242.692 596.309 245.306 593.694C247.921 591.08 247.921 586.847 245.306 584.233Z" fill="url(#paint4_linear_591_359)" fill-opacity="0.33"/>
<path d="M570.272 675.985L479.854 585.585V520.439L413.356 453.941H244.364L223.414 432.99L224.676 431.728L245.111 452.163H414.103L481.632 519.692V584.838L571.535 674.74L570.272 675.985Z" fill="url(#paint5_linear_591_359)" fill-opacity="0.66"/>
<path d="M229.016 427.868C226.402 425.254 222.169 425.254 219.554 427.868C216.94 430.483 216.94 434.716 219.554 437.33C222.169 439.944 226.402 439.944 229.016 437.33C231.63 434.716 231.63 430.483 229.016 427.868Z" fill="url(#paint6_linear_591_359)" fill-opacity="0.33"/>
<path d="M263.928 560.063L230.848 526.983V483.979L191.081 444.195H168.476V442.416H191.81L232.626 483.233V526.254L265.19 558.818L263.928 560.063Z" fill="url(#paint7_linear_591_359)" fill-opacity="0.33"/>
<path d="M168.814 436.619C165.115 436.619 162.127 439.606 162.127 443.306C162.127 447.005 165.115 449.993 168.814 449.993C172.514 449.993 175.501 447.005 175.501 443.306C175.501 439.606 172.514 436.619 168.814 436.619Z" fill="url(#paint8_linear_591_359)" fill-opacity="0.33"/>
<path d="M114.924 427.506L113.667 428.763L126.217 441.314L127.475 440.056L114.924 427.506Z" fill="url(#paint9_linear_591_359)" fill-opacity="0.33"/>
<path d="M129.51 437.632C131.075 439.197 131.075 441.74 129.51 443.305C127.945 444.87 125.401 444.87 123.836 443.305C122.271 441.74 122.271 439.197 123.836 437.632C125.401 436.067 127.945 436.067 129.51 437.632Z" fill="url(#paint10_linear_591_359)" fill-opacity="0.33"/>
<path d="M117.256 425.379C115.691 423.813 113.147 423.813 111.582 425.379C110.017 426.944 110.017 429.487 111.582 431.052C113.147 432.617 115.691 432.617 117.256 431.052C118.821 429.487 118.821 426.944 117.256 425.379Z" fill="url(#paint11_linear_591_359)" fill-opacity="0.33"/>
<path d="M99.1281 427.438L97.8705 428.696L110.421 441.247L111.679 439.989L99.1281 427.438Z" fill="url(#paint12_linear_591_359)" fill-opacity="0.33"/>
<path d="M113.752 437.632C115.317 439.197 115.317 441.74 113.752 443.305C112.187 444.87 109.643 444.87 108.078 443.305C106.513 441.74 106.513 439.197 108.078 437.632C109.643 436.067 112.187 436.067 113.752 437.632Z" fill="url(#paint13_linear_591_359)" fill-opacity="0.33"/>
<path d="M101.48 425.379C99.9154 423.813 97.3721 423.813 95.807 425.379C94.242 426.944 94.242 429.487 95.807 431.052C97.3721 432.617 99.9154 432.617 101.48 431.052C103.045 429.487 103.045 426.944 101.48 425.379Z" fill="url(#paint14_linear_591_359)" fill-opacity="0.33"/>
<path d="M83.3493 427.442L82.0917 428.699L94.6423 441.25L95.8999 439.993L83.3493 427.442Z" fill="url(#paint15_linear_591_359)" fill-opacity="0.33"/>
<path d="M97.9763 437.632C99.5414 439.197 99.5414 441.74 97.9763 443.305C96.4113 444.87 93.868 444.87 92.303 443.305C90.7379 441.74 90.7379 439.197 92.303 437.632C93.868 436.067 96.4113 436.067 97.9763 437.632Z" fill="url(#paint16_linear_591_359)" fill-opacity="0.33"/>
<path d="M85.705 425.379C84.14 423.813 81.5967 423.813 80.0317 425.379C78.4666 426.944 78.4666 429.487 80.0317 431.052C81.5967 432.617 84.14 432.617 85.705 431.052C87.2701 429.487 87.2701 426.944 85.705 425.379Z" fill="url(#paint17_linear_591_359)" fill-opacity="0.33"/>
<path d="M67.6007 427.433L66.3431 428.69L78.8937 441.241L80.1513 439.983L67.6007 427.433Z" fill="url(#paint18_linear_591_359)" fill-opacity="0.33"/>
<path d="M82.2017 437.632C83.7667 439.197 83.7667 441.74 82.2017 443.305C80.6366 444.87 78.0934 444.87 76.5283 443.305C74.9632 441.74 74.9632 439.197 76.5283 437.632C78.0934 436.067 80.6366 436.067 82.2017 437.632Z" fill="url(#paint19_linear_591_359)" fill-opacity="0.33"/>
<path d="M69.9305 425.379C68.3654 423.813 65.8222 423.813 64.2571 425.379C62.692 426.944 62.692 429.487 64.2571 431.052C65.8222 432.617 68.3654 432.617 69.9305 431.052C71.4956 429.487 71.4956 426.944 69.9305 425.379Z" fill="url(#paint20_linear_591_359)" fill-opacity="0.33"/>
<path d="M51.8219 427.437L50.5643 428.694L63.1149 441.245L64.3725 439.987L51.8219 427.437Z" fill="url(#paint21_linear_591_359)" fill-opacity="0.33"/>
<path d="M66.4263 437.632C67.9913 439.197 67.9913 441.74 66.4263 443.305C64.8612 444.87 62.318 444.87 60.7529 443.305C59.1878 441.74 59.1878 439.197 60.7529 437.632C62.318 436.067 64.8612 436.067 66.4263 437.632Z" fill="url(#paint22_linear_591_359)" fill-opacity="0.33"/>
<path d="M54.1551 425.379C52.59 423.813 50.0468 423.813 48.4817 425.379C46.9167 426.944 46.9167 429.487 48.4817 431.052C50.0468 432.617 52.59 432.617 54.1551 431.052C55.7202 429.487 55.7202 426.944 54.1551 425.379Z" fill="url(#paint23_linear_591_359)" fill-opacity="0.33"/>
<path d="M36.044 427.44L34.7864 428.698L47.3371 441.248L48.5947 439.991L36.044 427.44Z" fill="url(#paint24_linear_591_359)" fill-opacity="0.33"/>
<path d="M50.652 437.632C52.217 439.197 52.217 441.74 50.652 443.305C49.0869 444.87 46.5436 444.87 44.9786 443.305C43.4135 441.74 43.4135 439.197 44.9786 437.632C46.5436 436.067 49.0869 436.067 50.652 437.632Z" fill="url(#paint25_linear_591_359)" fill-opacity="0.33"/>
<path d="M38.398 425.379C36.8329 423.813 34.2897 423.813 32.7246 425.379C31.1595 426.944 31.1595 429.487 32.7246 431.052C34.2897 432.617 36.8329 432.617 38.398 431.052C39.963 429.487 39.963 426.944 38.398 425.379Z" fill="url(#paint26_linear_591_359)" fill-opacity="0.33"/>
<path d="M20.2825 427.515L19.0249 428.772L31.5756 441.323L32.8332 440.066L20.2825 427.515Z" fill="url(#paint27_linear_591_359)" fill-opacity="0.33"/>
<path d="M34.894 437.632C36.459 439.197 36.459 441.74 34.894 443.305C33.3289 444.87 30.7857 444.87 29.2206 443.305C27.6555 441.74 27.6555 439.197 29.2206 437.632C30.7857 436.067 33.3289 436.067 34.894 437.632Z" fill="url(#paint28_linear_591_359)" fill-opacity="0.33"/>
<path d="M22.6226 425.379C21.0575 423.813 18.5143 423.813 16.9492 425.379C15.3841 426.944 15.3841 429.487 16.9492 431.052C18.5143 432.617 21.0575 432.617 22.6226 431.052C24.1876 429.487 24.1876 426.944 22.6226 425.379Z" fill="url(#paint29_linear_591_359)" fill-opacity="0.33"/>
<path d="M4.48542 427.447L3.22784 428.705L15.7785 441.256L17.0361 439.998L4.48542 427.447Z" fill="url(#paint30_linear_591_359)" fill-opacity="0.33"/>
<path d="M19.1186 437.632C20.6836 439.197 20.6836 441.74 19.1186 443.305C17.5535 444.87 15.0103 444.87 13.4452 443.305C11.8801 441.74 11.8801 439.197 13.4452 437.632C15.0103 436.067 17.5535 436.067 19.1186 437.632Z" fill="url(#paint31_linear_591_359)" fill-opacity="0.33"/>
<path d="M6.84713 425.379C5.28206 423.813 2.73887 423.813 1.1738 425.379C-0.391267 426.944 -0.391267 429.487 1.1738 431.052C2.73887 432.617 5.28206 432.617 6.84713 431.052C8.41219 429.487 8.41219 426.944 6.84713 425.379Z" fill="url(#paint32_linear_591_359)" fill-opacity="0.33"/>
<path d="M137.851 346.947H8.99921V345.169H137.121L214.094 268.196V212.725L259.944 166.875H314.259L475.354 5.79785H595.651V7.57634H476.101L315.006 168.654H260.673L215.873 213.454V268.925L137.851 346.947Z" fill="url(#paint33_linear_591_359)" fill-opacity="0.33"/>
<path d="M9.33746 339.371C5.63821 339.371 2.65033 342.359 2.65033 346.058C2.65033 349.757 5.63821 352.745 9.33746 352.745C13.0367 352.745 16.0246 349.757 16.0246 346.058C16.0246 342.359 13.0367 339.371 9.33746 339.371Z" fill="url(#paint34_linear_591_359)" fill-opacity="0.33"/>
<path d="M254.235 290.942C251.62 293.557 251.62 297.79 254.235 300.404C256.849 303.018 261.082 303.018 263.696 300.404C266.311 297.79 266.311 293.557 263.696 290.942C261.082 288.328 256.849 288.328 254.235 290.942Z" fill="url(#paint35_linear_591_359)" fill-opacity="0.33"/>
<path d="M240.967 235.062L239.704 233.799L261.935 211.568H384.722L416.059 180.231L417.321 181.494L385.469 213.347H262.682L240.967 235.062Z" fill="url(#paint36_linear_591_359)" fill-opacity="0.33"/>
<path d="M235.845 229.46C233.23 232.075 233.23 236.307 235.845 238.922C238.459 241.536 242.692 241.536 245.306 238.922C247.921 236.307 247.921 232.075 245.306 229.46C242.692 226.846 238.459 226.846 235.845 229.46Z" fill="url(#paint37_linear_591_359)" fill-opacity="0.33"/>
<path d="M224.676 391.427L223.414 390.164L244.364 369.214H413.356L479.854 302.716V237.57L570.272 147.17L571.535 148.415L481.632 238.317V303.463L414.103 370.992H245.111L224.676 391.427Z" fill="url(#paint38_linear_591_359)" fill-opacity="0.33"/>
<path d="M219.554 385.825C216.94 388.44 216.94 392.672 219.554 395.287C222.169 397.901 226.402 397.901 229.016 395.287C231.63 392.672 231.63 388.44 229.016 385.825C226.402 383.211 222.169 383.211 219.554 385.825Z" fill="url(#paint39_linear_591_359)" fill-opacity="0.33"/>
<path d="M191.81 380.738H168.476V378.96H191.081L230.848 339.175V296.171L263.928 263.091L265.19 264.336L232.626 296.9V339.922L191.81 380.738Z" fill="url(#paint40_linear_591_359)" fill-opacity="0.66"/>
<path d="M168.814 373.162C165.115 373.162 162.127 376.15 162.127 379.849C162.127 383.548 165.115 386.536 168.814 386.536C172.514 386.536 175.502 383.548 175.502 379.849C175.502 376.15 172.514 373.162 168.814 373.162Z" fill="url(#paint41_linear_591_359)" fill-opacity="0.33"/>
<path d="M126.196 381.902L113.645 394.452L114.903 395.71L127.454 383.159L126.196 381.902Z" fill="url(#paint42_linear_591_359)" fill-opacity="0.33"/>
<path d="M123.836 379.849C125.401 378.284 127.944 378.284 129.509 379.849C131.074 381.414 131.074 383.957 129.509 385.522C127.944 387.088 125.401 387.088 123.836 385.522C122.271 383.957 122.271 381.414 123.836 379.849Z" fill="url(#paint43_linear_591_359)" fill-opacity="0.33"/>
<path d="M111.564 392.103C109.999 393.668 109.999 396.211 111.564 397.776C113.129 399.341 115.673 399.341 117.238 397.776C118.803 396.211 118.803 393.668 117.238 392.103C115.673 390.538 113.129 390.538 111.564 392.103Z" fill="url(#paint44_linear_591_359)" fill-opacity="0.33"/>
<path d="M110.418 381.906L97.8671 394.456L99.1246 395.714L111.675 383.163L110.418 381.906Z" fill="url(#paint45_linear_591_359)" fill-opacity="0.33"/>
<path d="M108.061 379.849C109.626 378.284 112.169 378.284 113.734 379.849C115.299 381.414 115.299 383.957 113.734 385.522C112.169 387.088 109.626 387.088 108.061 385.522C106.496 383.957 106.496 381.414 108.061 379.849Z" fill="url(#paint46_linear_591_359)" fill-opacity="0.33"/>
<path d="M95.807 392.103C94.2419 393.668 94.2419 396.211 95.807 397.776C97.372 399.341 99.9153 399.341 101.48 397.776C103.045 396.211 103.045 393.668 101.48 392.103C99.9153 390.538 97.372 390.538 95.807 392.103Z" fill="url(#paint47_linear_591_359)" fill-opacity="0.33"/>
<path d="M94.6388 381.909L82.0882 394.46L83.3458 395.717L95.8964 383.167L94.6388 381.909Z" fill="url(#paint48_linear_591_359)" fill-opacity="0.33"/>
<path d="M92.303 379.849C93.868 378.284 96.4113 378.284 97.9763 379.849C99.5414 381.414 99.5414 383.957 97.9763 385.522C96.4113 387.088 93.868 387.088 92.303 385.522C90.7379 383.957 90.7379 381.414 92.303 379.849Z" fill="url(#paint49_linear_591_359)" fill-opacity="0.33"/>
<path d="M80.0316 392.103C78.4665 393.668 78.4665 396.211 80.0316 397.776C81.5967 399.341 84.1399 399.341 85.705 397.776C87.27 396.211 87.27 393.668 85.705 392.103C84.1399 390.538 81.5967 390.538 80.0316 392.103Z" fill="url(#paint50_linear_591_359)" fill-opacity="0.33"/>
<path d="M78.8955 381.984L66.3448 394.535L67.6024 395.792L80.1531 383.242L78.8955 381.984Z" fill="url(#paint51_linear_591_359)" fill-opacity="0.33"/>
<path d="M76.5283 379.849C78.0934 378.284 80.6366 378.284 82.2017 379.849C83.7667 381.414 83.7667 383.957 82.2017 385.522C80.6366 387.088 78.0934 387.088 76.5283 385.522C74.9632 383.957 74.9632 381.414 76.5283 379.849Z" fill="url(#paint52_linear_591_359)" fill-opacity="0.33"/>
<path d="M64.2569 392.103C62.6919 393.668 62.6919 396.211 64.2569 397.776C65.822 399.341 68.3652 399.341 69.9303 397.776C71.4954 396.211 71.4954 393.668 69.9303 392.103C68.3652 390.538 65.822 390.538 64.2569 392.103Z" fill="url(#paint53_linear_591_359)" fill-opacity="0.33"/>
<path d="M63.1114 381.904L50.5608 394.455L51.8184 395.712L64.369 383.162L63.1114 381.904Z" fill="url(#paint54_linear_591_359)" fill-opacity="0.33"/>
<path d="M60.7529 379.849C62.318 378.284 64.8612 378.284 66.4263 379.849C67.9913 381.414 67.9913 383.957 66.4263 385.522C64.8612 387.088 62.318 387.088 60.7529 385.522C59.1878 383.957 59.1878 381.414 60.7529 379.849Z" fill="url(#paint55_linear_591_359)" fill-opacity="0.33"/>
<path d="M48.4815 392.103C46.9165 393.668 46.9165 396.211 48.4815 397.776C50.0466 399.341 52.5898 399.341 54.1549 397.776C55.72 396.211 55.72 393.668 54.1549 392.103C52.5898 390.538 50.0466 390.538 48.4815 392.103Z" fill="url(#paint56_linear_591_359)" fill-opacity="0.33"/>
<path d="M47.3325 381.908L34.7819 394.458L36.0395 395.716L48.5901 383.165L47.3325 381.908Z" fill="url(#paint57_linear_591_359)" fill-opacity="0.33"/>
<path d="M44.9775 379.849C46.5426 378.284 49.0859 378.284 50.6509 379.849C52.216 381.414 52.216 383.957 50.6509 385.522C49.0859 387.088 46.5426 387.088 44.9775 385.522C43.4125 383.957 43.4125 381.414 44.9775 379.849Z" fill="url(#paint58_linear_591_359)" fill-opacity="0.33"/>
<path d="M32.7061 392.103C31.1411 393.668 31.1411 396.211 32.7061 397.776C34.2712 399.341 36.8145 399.341 38.3795 397.776C39.9446 396.211 39.9446 393.668 38.3795 392.103C36.8145 390.538 34.2712 390.538 32.7061 392.103Z" fill="url(#paint59_linear_591_359)" fill-opacity="0.33"/>
<path d="M31.5895 381.982L19.0388 394.533L20.2964 395.79L32.8471 383.24L31.5895 381.982Z" fill="url(#paint60_linear_591_359)" fill-opacity="0.33"/>
<path d="M29.2032 379.849C30.7683 378.284 33.3115 378.284 34.8766 379.849C36.4417 381.414 36.4417 383.957 34.8766 385.522C33.3115 387.088 30.7683 387.088 29.2032 385.522C27.6382 383.957 27.6382 381.414 29.2032 379.849Z" fill="url(#paint61_linear_591_359)" fill-opacity="0.33"/>
<path d="M16.9492 392.103C15.3841 393.668 15.3841 396.211 16.9492 397.776C18.5143 399.341 21.0575 399.341 22.6226 397.776C24.1876 396.211 24.1876 393.668 22.6226 392.103C21.0575 390.538 18.5143 390.538 16.9492 392.103Z" fill="url(#paint62_linear_591_359)" fill-opacity="0.33"/>
<path d="M15.7933 381.915L3.24261 394.465L4.50019 395.723L17.0509 383.172L15.7933 381.915Z" fill="url(#paint63_linear_591_359)" fill-opacity="0.33"/>
<path d="M13.4452 379.849C15.0103 378.284 17.5535 378.284 19.1186 379.849C20.6836 381.414 20.6836 383.957 19.1186 385.522C17.5535 387.088 15.0103 387.088 13.4452 385.522C11.8801 383.957 11.8801 381.414 13.4452 379.849Z" fill="url(#paint64_linear_591_359)" fill-opacity="0.33"/>
<path d="M1.1738 392.103C-0.391267 393.668 -0.391267 396.211 1.1738 397.776C2.73887 399.341 5.28206 399.341 6.84713 397.776C8.41219 396.211 8.41219 393.668 6.84713 392.103C5.28206 390.538 2.73887 390.538 1.1738 392.103Z" fill="url(#paint65_linear_591_359)" fill-opacity="0.33"/>
<path style="mix-blend-mode:color-dodge" d="M212 613C244.585 613 271 586.585 271 554C271 521.415 244.585 495 212 495C179.415 495 153 521.415 153 554C153 586.585 179.415 613 212 613Z" fill="url(#paint66_radial_591_359)"/>
<defs>
<linearGradient id="paint0_linear_591_359" x1="209" y1="770" x2="183.028" y2="431.005" gradientUnits="userSpaceOnUse">
<stop stop-color="white"/>
<stop offset="1" stop-color="white" stop-opacity="0"/>
</linearGradient>
<linearGradient id="paint1_linear_591_359" x1="-5.23645" y1="468.98" x2="1.5104" y2="485.94" gradientUnits="userSpaceOnUse">
<stop stop-color="white"/>
<stop offset="1" stop-color="white" stop-opacity="0"/>
</linearGradient>
<linearGradient id="paint2_linear_591_359" x1="244.382" y1="519.359" x2="251.133" y2="536.331" gradientUnits="userSpaceOnUse">
<stop stop-color="white"/>
<stop offset="1" stop-color="white" stop-opacity="0"/>
</linearGradient>
<linearGradient id="paint3_linear_591_359" x1="134.963" y1="582.23" x2="144.706" y2="661.569" gradientUnits="userSpaceOnUse">
<stop stop-color="white"/>
<stop offset="1" stop-color="white" stop-opacity="0"/>
</linearGradient>
<linearGradient id="paint4_linear_591_359" x1="225.992" y1="580.841" x2="232.743" y2="597.813" gradientUnits="userSpaceOnUse">
<stop stop-color="white"/>
<stop offset="1" stop-color="white" stop-opacity="0"/>
</linearGradient>
<linearGradient id="paint5_linear_591_359" x1="312" y1="524" x2="239.213" y2="411.637" gradientUnits="userSpaceOnUse">
<stop stop-color="white"/>
<stop offset="1" stop-color="white" stop-opacity="0"/>
</linearGradient>
<linearGradient id="paint6_linear_591_359" x1="209.702" y1="424.477" x2="216.453" y2="441.448" gradientUnits="userSpaceOnUse">
<stop stop-color="white"/>
<stop offset="1" stop-color="white" stop-opacity="0"/>
</linearGradient>
<linearGradient id="paint7_linear_591_359" x1="111.444" y1="429.839" x2="179.197" y2="569.853" gradientUnits="userSpaceOnUse">
<stop stop-color="white"/>
<stop offset="1" stop-color="white" stop-opacity="0"/>
</linearGradient>
<linearGradient id="paint8_linear_591_359" x1="154.24" y1="435.189" x2="160.987" y2="452.149" gradientUnits="userSpaceOnUse">
<stop stop-color="white"/>
<stop offset="1" stop-color="white" stop-opacity="0"/>
</linearGradient>
<linearGradient id="paint9_linear_591_359" x1="111.583" y1="428.163" x2="117.05" y2="424.897" gradientUnits="userSpaceOnUse">
<stop stop-color="white"/>
<stop offset="1" stop-color="white" stop-opacity="0"/>
</linearGradient>
<linearGradient id="paint10_linear_591_359" x1="117.932" y1="435.601" x2="121.979" y2="445.772" gradientUnits="userSpaceOnUse">
<stop stop-color="white"/>
<stop offset="1" stop-color="white" stop-opacity="0"/>
</linearGradient>
<linearGradient id="paint11_linear_591_359" x1="105.679" y1="423.347" x2="109.725" y2="433.519" gradientUnits="userSpaceOnUse">
<stop stop-color="white"/>
<stop offset="1" stop-color="white" stop-opacity="0"/>
</linearGradient>
<linearGradient id="paint12_linear_591_359" x1="95.7872" y1="428.096" x2="101.253" y2="424.829" gradientUnits="userSpaceOnUse">
<stop stop-color="white"/>
<stop offset="1" stop-color="white" stop-opacity="0"/>
</linearGradient>
<linearGradient id="paint13_linear_591_359" x1="102.175" y1="435.601" x2="106.221" y2="445.772" gradientUnits="userSpaceOnUse">
<stop stop-color="white"/>
<stop offset="1" stop-color="white" stop-opacity="0"/>
</linearGradient>
<linearGradient id="paint14_linear_591_359" x1="89.9033" y1="423.347" x2="93.9496" y2="433.519" gradientUnits="userSpaceOnUse">
<stop stop-color="white"/>
<stop offset="1" stop-color="white" stop-opacity="0"/>
</linearGradient>
<linearGradient id="paint15_linear_591_359" x1="80.0083" y1="428.099" x2="85.4744" y2="424.833" gradientUnits="userSpaceOnUse">
<stop stop-color="white"/>
<stop offset="1" stop-color="white" stop-opacity="0"/>
</linearGradient>
<linearGradient id="paint16_linear_591_359" x1="86.3992" y1="435.601" x2="90.4455" y2="445.772" gradientUnits="userSpaceOnUse">
<stop stop-color="white"/>
<stop offset="1" stop-color="white" stop-opacity="0"/>
</linearGradient>
<linearGradient id="paint17_linear_591_359" x1="74.1279" y1="423.347" x2="78.1742" y2="433.519" gradientUnits="userSpaceOnUse">
<stop stop-color="white"/>
<stop offset="1" stop-color="white" stop-opacity="0"/>
</linearGradient>
<linearGradient id="paint18_linear_591_359" x1="64.2597" y1="428.09" x2="69.7259" y2="424.824" gradientUnits="userSpaceOnUse">
<stop stop-color="white"/>
<stop offset="1" stop-color="white" stop-opacity="0"/>
</linearGradient>
<linearGradient id="paint19_linear_591_359" x1="70.6245" y1="435.601" x2="74.6708" y2="445.772" gradientUnits="userSpaceOnUse">
<stop stop-color="white"/>
<stop offset="1" stop-color="white" stop-opacity="0"/>
</linearGradient>
<linearGradient id="paint20_linear_591_359" x1="58.3533" y1="423.347" x2="62.3996" y2="433.519" gradientUnits="userSpaceOnUse">
<stop stop-color="white"/>
<stop offset="1" stop-color="white" stop-opacity="0"/>
</linearGradient>
<linearGradient id="paint21_linear_591_359" x1="48.4809" y1="428.094" x2="53.947" y2="424.828" gradientUnits="userSpaceOnUse">
<stop stop-color="white"/>
<stop offset="1" stop-color="white" stop-opacity="0"/>
</linearGradient>
<linearGradient id="paint22_linear_591_359" x1="54.8491" y1="435.601" x2="58.8954" y2="445.772" gradientUnits="userSpaceOnUse">
<stop stop-color="white"/>
<stop offset="1" stop-color="white" stop-opacity="0"/>
</linearGradient>
<linearGradient id="paint23_linear_591_359" x1="42.5779" y1="423.347" x2="46.6243" y2="433.519" gradientUnits="userSpaceOnUse">
<stop stop-color="white"/>
<stop offset="1" stop-color="white" stop-opacity="0"/>
</linearGradient>
<linearGradient id="paint24_linear_591_359" x1="32.7031" y1="428.098" x2="38.1692" y2="424.831" gradientUnits="userSpaceOnUse">
<stop stop-color="white"/>
<stop offset="1" stop-color="white" stop-opacity="0"/>
</linearGradient>
<linearGradient id="paint25_linear_591_359" x1="39.0748" y1="435.601" x2="43.1211" y2="445.772" gradientUnits="userSpaceOnUse">
<stop stop-color="white"/>
<stop offset="1" stop-color="white" stop-opacity="0"/>
</linearGradient>
<linearGradient id="paint26_linear_591_359" x1="26.8208" y1="423.347" x2="30.8671" y2="433.519" gradientUnits="userSpaceOnUse">
<stop stop-color="white"/>
<stop offset="1" stop-color="white" stop-opacity="0"/>
</linearGradient>
<linearGradient id="paint27_linear_591_359" x1="16.9416" y1="428.172" x2="22.4077" y2="424.906" gradientUnits="userSpaceOnUse">
<stop stop-color="white"/>
<stop offset="1" stop-color="white" stop-opacity="0"/>
</linearGradient>
<linearGradient id="paint28_linear_591_359" x1="23.3168" y1="435.601" x2="27.3631" y2="445.772" gradientUnits="userSpaceOnUse">
<stop stop-color="white"/>
<stop offset="1" stop-color="white" stop-opacity="0"/>
</linearGradient>
<linearGradient id="paint29_linear_591_359" x1="11.0454" y1="423.347" x2="15.0917" y2="433.519" gradientUnits="userSpaceOnUse">
<stop stop-color="white"/>
<stop offset="1" stop-color="white" stop-opacity="0"/>
</linearGradient>
<linearGradient id="paint30_linear_591_359" x1="1.14451" y1="428.105" x2="6.61062" y2="424.838" gradientUnits="userSpaceOnUse">
<stop stop-color="white"/>
<stop offset="1" stop-color="white" stop-opacity="0"/>
</linearGradient>
<linearGradient id="paint31_linear_591_359" x1="7.54142" y1="435.601" x2="11.5877" y2="445.772" gradientUnits="userSpaceOnUse">
<stop stop-color="white"/>
<stop offset="1" stop-color="white" stop-opacity="0"/>
</linearGradient>
<linearGradient id="paint32_linear_591_359" x1="-4.72994" y1="423.347" x2="-0.683618" y2="433.519" gradientUnits="userSpaceOnUse">
<stop stop-color="white"/>
<stop offset="1" stop-color="white" stop-opacity="0"/>
</linearGradient>
<linearGradient id="paint33_linear_591_359" x1="-336.95" y1="-30.673" x2="-226.922" y2="444.955" gradientUnits="userSpaceOnUse">
<stop stop-color="white"/>
<stop offset="1" stop-color="white" stop-opacity="0"/>
</linearGradient>
<linearGradient id="paint34_linear_591_359" x1="-5.23648" y1="337.941" x2="1.51035" y2="354.901" gradientUnits="userSpaceOnUse">
<stop stop-color="white"/>
<stop offset="1" stop-color="white" stop-opacity="0"/>
</linearGradient>
<linearGradient id="paint35_linear_591_359" x1="244.382" y1="287.551" x2="251.133" y2="304.522" gradientUnits="userSpaceOnUse">
<stop stop-color="white"/>
<stop offset="1" stop-color="white" stop-opacity="0"/>
</linearGradient>
<linearGradient id="paint36_linear_591_359" x1="134.963" y1="174.37" x2="144.706" y2="253.709" gradientUnits="userSpaceOnUse">
<stop stop-color="white"/>
<stop offset="1" stop-color="white" stop-opacity="0"/>
</linearGradient>
<linearGradient id="paint37_linear_591_359" x1="225.992" y1="226.069" x2="232.743" y2="243.04" gradientUnits="userSpaceOnUse">
<stop stop-color="white"/>
<stop offset="1" stop-color="white" stop-opacity="0"/>
</linearGradient>
<linearGradient id="paint38_linear_591_359" x1="18.1266" y1="121.057" x2="111.027" y2="453.893" gradientUnits="userSpaceOnUse">
<stop stop-color="white"/>
<stop offset="1" stop-color="white" stop-opacity="0"/>
</linearGradient>
<linearGradient id="paint39_linear_591_359" x1="209.702" y1="382.434" x2="216.453" y2="399.405" gradientUnits="userSpaceOnUse">
<stop stop-color="white"/>
<stop offset="1" stop-color="white" stop-opacity="0"/>
</linearGradient>
<linearGradient id="paint40_linear_591_359" x1="111.444" y1="250.514" x2="179.197" y2="390.528" gradientUnits="userSpaceOnUse">
<stop stop-color="white"/>
<stop offset="1" stop-color="white" stop-opacity="0"/>
</linearGradient>
<linearGradient id="paint41_linear_591_359" x1="154.241" y1="371.732" x2="160.987" y2="388.692" gradientUnits="userSpaceOnUse">
<stop stop-color="white"/>
<stop offset="1" stop-color="white" stop-opacity="0"/>
</linearGradient>
<linearGradient id="paint42_linear_591_359" x1="106.11" y1="401.719" x2="108.028" y2="403.49" gradientUnits="userSpaceOnUse">
<stop stop-color="white"/>
<stop offset="1" stop-color="white" stop-opacity="0"/>
</linearGradient>
<linearGradient id="paint43_linear_591_359" x1="117.932" y1="377.818" x2="121.978" y2="387.989" gradientUnits="userSpaceOnUse">
<stop stop-color="white"/>
<stop offset="1" stop-color="white" stop-opacity="0"/>
</linearGradient>
<linearGradient id="paint44_linear_591_359" x1="105.661" y1="390.071" x2="109.707" y2="400.243" gradientUnits="userSpaceOnUse">
<stop stop-color="white"/>
<stop offset="1" stop-color="white" stop-opacity="0"/>
</linearGradient>
<linearGradient id="paint45_linear_591_359" x1="90.3315" y1="401.723" x2="92.2492" y2="403.494" gradientUnits="userSpaceOnUse">
<stop stop-color="white"/>
<stop offset="1" stop-color="white" stop-opacity="0"/>
</linearGradient>
<linearGradient id="paint46_linear_591_359" x1="102.157" y1="377.818" x2="106.203" y2="387.989" gradientUnits="userSpaceOnUse">
<stop stop-color="white"/>
<stop offset="1" stop-color="white" stop-opacity="0"/>
</linearGradient>
<linearGradient id="paint47_linear_591_359" x1="89.9032" y1="390.071" x2="93.9495" y2="400.243" gradientUnits="userSpaceOnUse">
<stop stop-color="white"/>
<stop offset="1" stop-color="white" stop-opacity="0"/>
</linearGradient>
<linearGradient id="paint48_linear_591_359" x1="74.5526" y1="401.727" x2="76.4704" y2="403.497" gradientUnits="userSpaceOnUse">
<stop stop-color="white"/>
<stop offset="1" stop-color="white" stop-opacity="0"/>
</linearGradient>
<linearGradient id="paint49_linear_591_359" x1="86.3992" y1="377.818" x2="90.4455" y2="387.989" gradientUnits="userSpaceOnUse">
<stop stop-color="white"/>
<stop offset="1" stop-color="white" stop-opacity="0"/>
</linearGradient>
<linearGradient id="paint50_linear_591_359" x1="74.1278" y1="390.071" x2="78.1741" y2="400.243" gradientUnits="userSpaceOnUse">
<stop stop-color="white"/>
<stop offset="1" stop-color="white" stop-opacity="0"/>
</linearGradient>
<linearGradient id="paint51_linear_591_359" x1="58.8093" y1="401.801" x2="60.727" y2="403.572" gradientUnits="userSpaceOnUse">
<stop stop-color="white"/>
<stop offset="1" stop-color="white" stop-opacity="0"/>
</linearGradient>
<linearGradient id="paint52_linear_591_359" x1="70.6245" y1="377.818" x2="74.6708" y2="387.989" gradientUnits="userSpaceOnUse">
<stop stop-color="white"/>
<stop offset="1" stop-color="white" stop-opacity="0"/>
</linearGradient>
<linearGradient id="paint53_linear_591_359" x1="58.3532" y1="390.071" x2="62.3995" y2="400.243" gradientUnits="userSpaceOnUse">
<stop stop-color="white"/>
<stop offset="1" stop-color="white" stop-opacity="0"/>
</linearGradient>
<linearGradient id="paint54_linear_591_359" x1="43.0252" y1="401.721" x2="44.943" y2="403.492" gradientUnits="userSpaceOnUse">
<stop stop-color="white"/>
<stop offset="1" stop-color="white" stop-opacity="0"/>
</linearGradient>
<linearGradient id="paint55_linear_591_359" x1="54.8491" y1="377.818" x2="58.8954" y2="387.989" gradientUnits="userSpaceOnUse">
<stop stop-color="white"/>
<stop offset="1" stop-color="white" stop-opacity="0"/>
</linearGradient>
<linearGradient id="paint56_linear_591_359" x1="42.5778" y1="390.071" x2="46.6241" y2="400.243" gradientUnits="userSpaceOnUse">
<stop stop-color="white"/>
<stop offset="1" stop-color="white" stop-opacity="0"/>
</linearGradient>
<linearGradient id="paint57_linear_591_359" x1="27.2464" y1="401.725" x2="29.1641" y2="403.495" gradientUnits="userSpaceOnUse">
<stop stop-color="white"/>
<stop offset="1" stop-color="white" stop-opacity="0"/>
</linearGradient>
<linearGradient id="paint58_linear_591_359" x1="39.0738" y1="377.818" x2="43.1201" y2="387.989" gradientUnits="userSpaceOnUse">
<stop stop-color="white"/>
<stop offset="1" stop-color="white" stop-opacity="0"/>
</linearGradient>
<linearGradient id="paint59_linear_591_359" x1="26.8024" y1="390.071" x2="30.8487" y2="400.243" gradientUnits="userSpaceOnUse">
<stop stop-color="white"/>
<stop offset="1" stop-color="white" stop-opacity="0"/>
</linearGradient>
<linearGradient id="paint60_linear_591_359" x1="11.5033" y1="401.799" x2="13.421" y2="403.57" gradientUnits="userSpaceOnUse">
<stop stop-color="white"/>
<stop offset="1" stop-color="white" stop-opacity="0"/>
</linearGradient>
<linearGradient id="paint61_linear_591_359" x1="23.2994" y1="377.818" x2="27.3457" y2="387.989" gradientUnits="userSpaceOnUse">
<stop stop-color="white"/>
<stop offset="1" stop-color="white" stop-opacity="0"/>
</linearGradient>
<linearGradient id="paint62_linear_591_359" x1="11.0454" y1="390.071" x2="15.0917" y2="400.243" gradientUnits="userSpaceOnUse">
<stop stop-color="white"/>
<stop offset="1" stop-color="white" stop-opacity="0"/>
</linearGradient>
<linearGradient id="paint63_linear_591_359" x1="-4.29296" y1="401.732" x2="-2.37524" y2="403.503" gradientUnits="userSpaceOnUse">
<stop stop-color="white"/>
<stop offset="1" stop-color="white" stop-opacity="0"/>
</linearGradient>
<linearGradient id="paint64_linear_591_359" x1="7.54142" y1="377.818" x2="11.5877" y2="387.989" gradientUnits="userSpaceOnUse">
<stop stop-color="white"/>
<stop offset="1" stop-color="white" stop-opacity="0"/>
</linearGradient>
<linearGradient id="paint65_linear_591_359" x1="-4.72994" y1="390.071" x2="-0.683618" y2="400.243" gradientUnits="userSpaceOnUse">
<stop stop-color="white"/>
<stop offset="1" stop-color="white" stop-opacity="0"/>
</linearGradient>
<radialGradient id="paint66_radial_591_359" cx="0" cy="0" r="1" gradientUnits="userSpaceOnUse" gradientTransform="translate(212 554) rotate(180) scale(59)">
<stop offset="0.06" stop-color="white"/>
<stop offset="0.1" stop-color="#EAEAEA"/>
<stop offset="0.2" stop-color="#B4B4B4"/>
<stop offset="0.31" stop-color="#848484"/>
<stop offset="0.41" stop-color="#5B5B5B"/>
<stop offset="0.52" stop-color="#3A3A3A"/>
<stop offset="0.63" stop-color="#202020"/>
<stop offset="0.75" stop-color="#0E0E0E"/>
<stop offset="0.87" stop-color="#030303"/>
<stop offset="1"/>
</radialGradient>
</defs>
</svg>
