<svg width="373" height="975" viewBox="0 0 373 975" fill="none" xmlns="http://www.w3.org/2000/svg">
<g filter="url(#filter0_f_785_219)">
<ellipse cx="-64" cy="537" rx="254" ry="255" fill="#11FF37" fill-opacity="0.14"/>
</g>
<path d="M-342.65 817.375H-222.354L-61.2582 656.279H-6.94319L38.9062 610.43V554.959L115.879 477.968H244.001V476.19H115.15L37.1277 554.23V609.701L-7.67242 654.501H-62.0052L-223.101 815.596H-342.65V817.375Z" fill="url(#paint0_linear_785_219)" fill-opacity="0.66"/>
<path d="M243.663 470.41C247.362 470.41 250.35 473.398 250.35 477.097C250.35 480.796 247.362 483.784 243.663 483.784C239.964 483.784 236.976 480.796 236.976 477.097C236.976 473.398 239.964 470.41 243.663 470.41Z" fill="url(#paint1_linear_785_219)" fill-opacity="0.33"/>
<path d="M-10.696 522.751C-8.08165 520.136 -3.84884 520.136 -1.23446 522.751C1.37991 525.365 1.37991 529.598 -1.23446 532.212C-3.84884 534.827 -8.08165 534.827 -10.696 532.212C-13.3104 529.598 -13.3104 525.365 -10.696 522.751Z" fill="url(#paint2_linear_785_219)" fill-opacity="0.33"/>
<path d="M-163.058 642.923L-131.721 611.586H-8.93445L13.2966 589.355L12.0339 588.092L-9.6815 609.807H-132.468L-164.321 641.66L-163.058 642.923Z" fill="url(#paint3_linear_785_219)" fill-opacity="0.33"/>
<path d="M7.69411 584.233C10.3085 581.618 14.5413 581.618 17.1557 584.233C19.77 586.847 19.77 591.08 17.1557 593.694C14.5413 596.309 10.3085 596.309 7.69411 593.694C5.07973 591.08 5.07973 586.847 7.69411 584.233Z" fill="url(#paint4_linear_785_219)" fill-opacity="0.33"/>
<path d="M-317.271 675.985L-226.853 585.585V520.439L-160.356 453.941H8.63627L29.5868 432.99L28.324 431.728L7.88923 452.163H-161.103L-228.632 519.692V584.838L-318.534 674.74L-317.271 675.985Z" fill="url(#paint5_linear_785_219)" fill-opacity="0.33"/>
<path d="M23.9845 427.868C26.5988 425.254 30.8316 425.254 33.446 427.868C36.0604 430.483 36.0604 434.716 33.446 437.33C30.8316 439.944 26.5988 439.944 23.9845 437.33C21.3701 434.716 21.3701 430.483 23.9845 427.868Z" fill="url(#paint6_linear_785_219)" fill-opacity="0.33"/>
<path d="M-10.9271 560.063L22.1527 526.983V483.979L61.9197 444.195H84.5243V442.416H61.1906L20.3743 483.233V526.254L-12.1898 558.818L-10.9271 560.063Z" fill="url(#paint7_linear_785_219)" fill-opacity="0.66"/>
<path d="M84.1862 436.619C87.8855 436.619 90.8734 439.606 90.8734 443.306C90.8734 447.005 87.8855 449.993 84.1862 449.993C80.487 449.993 77.4991 447.005 77.4991 443.306C77.4991 439.606 80.487 436.619 84.1862 436.619Z" fill="url(#paint8_linear_785_219)" fill-opacity="0.33"/>
<path d="M138.076 427.506L139.334 428.763L126.783 441.314L125.525 440.056L138.076 427.506Z" fill="url(#paint9_linear_785_219)" fill-opacity="0.33"/>
<path d="M123.491 437.632C121.926 439.197 121.926 441.74 123.491 443.305C125.056 444.87 127.599 444.87 129.164 443.305C130.729 441.74 130.729 439.197 129.164 437.632C127.599 436.067 125.056 436.067 123.491 437.632Z" fill="url(#paint10_linear_785_219)" fill-opacity="0.33"/>
<path d="M135.745 425.379C137.31 423.813 139.853 423.813 141.418 425.379C142.983 426.944 142.983 429.487 141.418 431.052C139.853 432.617 137.31 432.617 135.745 431.052C134.18 429.487 134.18 426.944 135.745 425.379Z" fill="url(#paint11_linear_785_219)" fill-opacity="0.33"/>
<path d="M153.872 427.438L155.13 428.696L142.579 441.247L141.322 439.989L153.872 427.438Z" fill="url(#paint12_linear_785_219)" fill-opacity="0.33"/>
<path d="M139.249 437.632C137.684 439.197 137.684 441.74 139.249 443.305C140.814 444.87 143.357 444.87 144.922 443.305C146.487 441.74 146.487 439.197 144.922 437.632C143.357 436.067 140.814 436.067 139.249 437.632Z" fill="url(#paint13_linear_785_219)" fill-opacity="0.33"/>
<path d="M151.52 425.379C153.085 423.813 155.628 423.813 157.193 425.379C158.759 426.944 158.759 429.487 157.193 431.052C155.628 432.617 153.085 432.617 151.52 431.052C149.955 429.487 149.955 426.944 151.52 425.379Z" fill="url(#paint14_linear_785_219)" fill-opacity="0.33"/>
<path d="M169.651 427.442L170.909 428.699L158.358 441.25L157.101 439.993L169.651 427.442Z" fill="url(#paint15_linear_785_219)" fill-opacity="0.33"/>
<path d="M155.024 437.632C153.459 439.197 153.459 441.74 155.024 443.305C156.589 444.87 159.132 444.87 160.698 443.305C162.263 441.74 162.263 439.197 160.698 437.632C159.132 436.067 156.589 436.067 155.024 437.632Z" fill="url(#paint16_linear_785_219)" fill-opacity="0.33"/>
<path d="M167.295 425.379C168.861 423.813 171.404 423.813 172.969 425.379C174.534 426.944 174.534 429.487 172.969 431.052C171.404 432.617 168.861 432.617 167.295 431.052C165.73 429.487 165.73 426.944 167.295 425.379Z" fill="url(#paint17_linear_785_219)" fill-opacity="0.33"/>
<path d="M185.4 427.433L186.657 428.69L174.107 441.241L172.849 439.983L185.4 427.433Z" fill="url(#paint18_linear_785_219)" fill-opacity="0.33"/>
<path d="M170.799 437.632C169.234 439.197 169.234 441.74 170.799 443.305C172.364 444.87 174.907 444.87 176.472 443.305C178.037 441.74 178.037 439.197 176.472 437.632C174.907 436.067 172.364 436.067 170.799 437.632Z" fill="url(#paint19_linear_785_219)" fill-opacity="0.33"/>
<path d="M183.07 425.379C184.635 423.813 187.178 423.813 188.743 425.379C190.308 426.944 190.308 429.487 188.743 431.052C187.178 432.617 184.635 432.617 183.07 431.052C181.505 429.487 181.505 426.944 183.07 425.379Z" fill="url(#paint20_linear_785_219)" fill-opacity="0.33"/>
<path d="M201.179 427.437L202.436 428.694L189.886 441.245L188.628 439.987L201.179 427.437Z" fill="url(#paint21_linear_785_219)" fill-opacity="0.33"/>
<path d="M186.574 437.632C185.009 439.197 185.009 441.74 186.574 443.305C188.139 444.87 190.683 444.87 192.248 443.305C193.813 441.74 193.813 439.197 192.248 437.632C190.683 436.067 188.139 436.067 186.574 437.632Z" fill="url(#paint22_linear_785_219)" fill-opacity="0.33"/>
<path d="M198.845 425.379C200.41 423.813 202.954 423.813 204.519 425.379C206.084 426.944 206.084 429.487 204.519 431.052C202.954 432.617 200.41 432.617 198.845 431.052C197.28 429.487 197.28 426.944 198.845 425.379Z" fill="url(#paint23_linear_785_219)" fill-opacity="0.33"/>
<path d="M216.956 427.44L218.214 428.698L205.663 441.248L204.406 439.991L216.956 427.44Z" fill="url(#paint24_linear_785_219)" fill-opacity="0.33"/>
<path d="M202.349 437.632C200.783 439.197 200.783 441.74 202.349 443.305C203.914 444.87 206.457 444.87 208.022 443.305C209.587 441.74 209.587 439.197 208.022 437.632C206.457 436.067 203.914 436.067 202.349 437.632Z" fill="url(#paint25_linear_785_219)" fill-opacity="0.33"/>
<path d="M214.603 425.379C216.168 423.813 218.711 423.813 220.276 425.379C221.841 426.944 221.841 429.487 220.276 431.052C218.711 432.617 216.168 432.617 214.603 431.052C213.037 429.487 213.037 426.944 214.603 425.379Z" fill="url(#paint26_linear_785_219)" fill-opacity="0.33"/>
<path d="M232.718 427.515L233.976 428.772L221.425 441.323L220.167 440.066L232.718 427.515Z" fill="url(#paint27_linear_785_219)" fill-opacity="0.33"/>
<path d="M218.107 437.632C216.541 439.197 216.541 441.74 218.107 443.305C219.672 444.87 222.215 444.87 223.78 443.305C225.345 441.74 225.345 439.197 223.78 437.632C222.215 436.067 219.672 436.067 218.107 437.632Z" fill="url(#paint28_linear_785_219)" fill-opacity="0.33"/>
<path d="M230.378 425.379C231.943 423.813 234.486 423.813 236.051 425.379C237.616 426.944 237.616 429.487 236.051 431.052C234.486 432.617 231.943 432.617 230.378 431.052C228.813 429.487 228.813 426.944 230.378 425.379Z" fill="url(#paint29_linear_785_219)" fill-opacity="0.33"/>
<path d="M248.515 427.447L249.773 428.705L237.222 441.256L235.964 439.998L248.515 427.447Z" fill="url(#paint30_linear_785_219)" fill-opacity="0.33"/>
<path d="M233.882 437.632C232.317 439.197 232.317 441.74 233.882 443.305C235.447 444.87 237.99 444.87 239.555 443.305C241.12 441.74 241.12 439.197 239.555 437.632C237.99 436.067 235.447 436.067 233.882 437.632Z" fill="url(#paint31_linear_785_219)" fill-opacity="0.33"/>
<path d="M246.153 425.379C247.718 423.813 250.262 423.813 251.827 425.379C253.392 426.944 253.392 429.487 251.827 431.052C250.262 432.617 247.718 432.617 246.153 431.052C244.588 429.487 244.588 426.944 246.153 425.379Z" fill="url(#paint32_linear_785_219)" fill-opacity="0.33"/>
<path d="M115.15 346.947H244.001V345.169H115.879L38.9062 268.196V212.725L-6.94319 166.875H-61.2582L-222.354 5.79785H-342.65V7.57634H-223.101L-62.0052 168.654H-7.67242L37.1277 213.454V268.925L115.15 346.947Z" fill="url(#paint33_linear_785_219)" fill-opacity="0.99"/>
<path d="M243.663 339.371C247.362 339.371 250.35 342.359 250.35 346.058C250.35 349.757 247.362 352.745 243.663 352.745C239.964 352.745 236.976 349.757 236.976 346.058C236.976 342.359 239.964 339.371 243.663 339.371Z" fill="url(#paint34_linear_785_219)" fill-opacity="0.44"/>
<path d="M-1.23422 290.942C1.38016 293.557 1.38016 297.79 -1.23422 300.404C-3.84859 303.018 -8.08141 303.018 -10.6958 300.404C-13.3102 297.79 -13.3102 293.557 -10.6958 290.942C-8.08141 288.328 -3.84859 288.328 -1.23422 290.942Z" fill="url(#paint35_linear_785_219)" fill-opacity="0.33"/>
<path d="M12.0339 235.062L13.2966 233.799L-8.93445 211.568H-131.721L-163.058 180.231L-164.321 181.494L-132.468 213.347H-9.6815L12.0339 235.062Z" fill="url(#paint36_linear_785_219)" fill-opacity="0.33"/>
<path d="M17.1559 229.46C19.7703 232.075 19.7703 236.307 17.1559 238.922C14.5415 241.536 10.3087 241.536 7.69435 238.922C5.07998 236.307 5.07998 232.075 7.69435 229.46C10.3087 226.846 14.5415 226.846 17.1559 229.46Z" fill="url(#paint37_linear_785_219)" fill-opacity="0.33"/>
<path d="M28.324 391.427L29.5868 390.164L8.63627 369.214H-160.356L-226.853 302.716V237.57L-317.271 147.17L-318.534 148.415L-228.632 238.317V303.463L-161.103 370.992H7.88923L28.324 391.427Z" fill="url(#paint38_linear_785_219)" fill-opacity="0.33"/>
<path d="M33.4461 385.825C36.0605 388.44 36.0605 392.672 33.4461 395.287C30.8317 397.901 26.5989 397.901 23.9845 395.287C21.3701 392.672 21.3701 388.44 23.9845 385.825C26.5989 383.211 30.8317 383.211 33.4461 385.825Z" fill="url(#paint39_linear_785_219)" fill-opacity="0.33"/>
<path d="M61.1906 380.738H84.5243V378.96H61.9197L22.1527 339.175V296.171L-10.9271 263.091L-12.1898 264.336L20.3743 296.9V339.922L61.1906 380.738Z" fill="url(#paint40_linear_785_219)" fill-opacity="0.66"/>
<path d="M84.186 373.162C87.8853 373.162 90.8732 376.15 90.8732 379.849C90.8732 383.548 87.8853 386.536 84.186 386.536C80.4868 386.536 77.4989 383.548 77.4989 379.849C77.4989 376.15 80.4868 373.162 84.186 373.162Z" fill="url(#paint41_linear_785_219)" fill-opacity="0.33"/>
<path d="M126.804 381.902L139.355 394.452L138.098 395.71L125.547 383.159L126.804 381.902Z" fill="url(#paint42_linear_785_219)" fill-opacity="0.33"/>
<path d="M129.165 379.849C127.6 378.284 125.056 378.284 123.491 379.849C121.926 381.414 121.926 383.957 123.491 385.522C125.056 387.088 127.6 387.088 129.165 385.522C130.73 383.957 130.73 381.414 129.165 379.849Z" fill="url(#paint43_linear_785_219)" fill-opacity="0.33"/>
<path d="M141.436 392.103C143.001 393.668 143.001 396.211 141.436 397.776C139.871 399.341 137.328 399.341 135.763 397.776C134.198 396.211 134.198 393.668 135.763 392.103C137.328 390.538 139.871 390.538 141.436 392.103Z" fill="url(#paint44_linear_785_219)" fill-opacity="0.33"/>
<path d="M142.583 381.906L155.133 394.456L153.876 395.714L141.325 383.163L142.583 381.906Z" fill="url(#paint45_linear_785_219)" fill-opacity="0.33"/>
<path d="M144.94 379.849C143.374 378.284 140.831 378.284 139.266 379.849C137.701 381.414 137.701 383.957 139.266 385.522C140.831 387.088 143.374 387.088 144.94 385.522C146.505 383.957 146.505 381.414 144.94 379.849Z" fill="url(#paint46_linear_785_219)" fill-opacity="0.33"/>
<path d="M157.194 392.103C158.759 393.668 158.759 396.211 157.194 397.776C155.628 399.341 153.085 399.341 151.52 397.776C149.955 396.211 149.955 393.668 151.52 392.103C153.085 390.538 155.628 390.538 157.194 392.103Z" fill="url(#paint47_linear_785_219)" fill-opacity="0.33"/>
<path d="M158.362 381.909L170.912 394.46L169.655 395.717L157.104 383.167L158.362 381.909Z" fill="url(#paint48_linear_785_219)" fill-opacity="0.33"/>
<path d="M160.698 379.849C159.132 378.284 156.589 378.284 155.024 379.849C153.459 381.414 153.459 383.957 155.024 385.522C156.589 387.088 159.132 387.088 160.698 385.522C162.263 383.957 162.263 381.414 160.698 379.849Z" fill="url(#paint49_linear_785_219)" fill-opacity="0.33"/>
<path d="M172.969 392.103C174.534 393.668 174.534 396.211 172.969 397.776C171.404 399.341 168.861 399.341 167.296 397.776C165.73 396.211 165.73 393.668 167.296 392.103C168.861 390.538 171.404 390.538 172.969 392.103Z" fill="url(#paint50_linear_785_219)" fill-opacity="0.33"/>
<path d="M174.105 381.984L186.656 394.535L185.398 395.792L172.847 383.242L174.105 381.984Z" fill="url(#paint51_linear_785_219)" fill-opacity="0.33"/>
<path d="M176.472 379.849C174.907 378.284 172.364 378.284 170.799 379.849C169.234 381.414 169.234 383.957 170.799 385.522C172.364 387.088 174.907 387.088 176.472 385.522C178.037 383.957 178.037 381.414 176.472 379.849Z" fill="url(#paint52_linear_785_219)" fill-opacity="0.33"/>
<path d="M188.744 392.103C190.309 393.668 190.309 396.211 188.744 397.776C187.178 399.341 184.635 399.341 183.07 397.776C181.505 396.211 181.505 393.668 183.07 392.103C184.635 390.538 187.178 390.538 188.744 392.103Z" fill="url(#paint53_linear_785_219)" fill-opacity="0.33"/>
<path d="M189.889 381.904L202.44 394.455L201.182 395.712L188.631 383.162L189.889 381.904Z" fill="url(#paint54_linear_785_219)" fill-opacity="0.33"/>
<path d="M192.248 379.849C190.683 378.284 188.139 378.284 186.574 379.849C185.009 381.414 185.009 383.957 186.574 385.522C188.139 387.088 190.683 387.088 192.248 385.522C193.813 383.957 193.813 381.414 192.248 379.849Z" fill="url(#paint55_linear_785_219)" fill-opacity="0.33"/>
<path d="M204.519 392.103C206.084 393.668 206.084 396.211 204.519 397.776C202.954 399.341 200.411 399.341 198.846 397.776C197.281 396.211 197.281 393.668 198.846 392.103C200.411 390.538 202.954 390.538 204.519 392.103Z" fill="url(#paint56_linear_785_219)" fill-opacity="0.33"/>
<path d="M205.668 381.908L218.219 394.458L216.961 395.716L204.41 383.165L205.668 381.908Z" fill="url(#paint57_linear_785_219)" fill-opacity="0.33"/>
<path d="M208.023 379.849C206.458 378.284 203.915 378.284 202.35 379.849C200.784 381.414 200.784 383.957 202.35 385.522C203.915 387.088 206.458 387.088 208.023 385.522C209.588 383.957 209.588 381.414 208.023 379.849Z" fill="url(#paint58_linear_785_219)" fill-opacity="0.33"/>
<path d="M220.294 392.103C221.859 393.668 221.859 396.211 220.294 397.776C218.729 399.341 216.186 399.341 214.621 397.776C213.056 396.211 213.056 393.668 214.621 392.103C216.186 390.538 218.729 390.538 220.294 392.103Z" fill="url(#paint59_linear_785_219)" fill-opacity="0.33"/>
<path d="M221.411 381.982L233.962 394.533L232.704 395.79L220.153 383.24L221.411 381.982Z" fill="url(#paint60_linear_785_219)" fill-opacity="0.33"/>
<path d="M223.797 379.849C222.232 378.284 219.689 378.284 218.124 379.849C216.559 381.414 216.559 383.957 218.124 385.522C219.689 387.088 222.232 387.088 223.797 385.522C225.362 383.957 225.362 381.414 223.797 379.849Z" fill="url(#paint61_linear_785_219)" fill-opacity="0.33"/>
<path d="M236.051 392.103C237.616 393.668 237.616 396.211 236.051 397.776C234.486 399.341 231.943 399.341 230.378 397.776C228.813 396.211 228.813 393.668 230.378 392.103C231.943 390.538 234.486 390.538 236.051 392.103Z" fill="url(#paint62_linear_785_219)" fill-opacity="0.33"/>
<path d="M237.207 381.915L249.758 394.465L248.5 395.723L235.95 383.172L237.207 381.915Z" fill="url(#paint63_linear_785_219)" fill-opacity="0.33"/>
<path d="M239.555 379.849C237.99 378.284 235.447 378.284 233.882 379.849C232.317 381.414 232.317 383.957 233.882 385.522C235.447 387.088 237.99 387.088 239.555 385.522C241.12 383.957 241.12 381.414 239.555 379.849Z" fill="url(#paint64_linear_785_219)" fill-opacity="0.33"/>
<path d="M251.827 392.103C253.392 393.668 253.392 396.211 251.827 397.776C250.262 399.341 247.718 399.341 246.153 397.776C244.588 396.211 244.588 393.668 246.153 392.103C247.718 390.538 250.262 390.538 251.827 392.103Z" fill="url(#paint65_linear_785_219)" fill-opacity="0.33"/>
<path style="mix-blend-mode:color-dodge" d="M119 536C151.585 536 178 509.585 178 477C178 444.415 151.585 418 119 418C86.4152 418 60 444.415 60 477C60 509.585 86.4152 536 119 536Z" fill="url(#paint66_radial_785_219)"/>
<defs>
<filter id="filter0_f_785_219" x="-501" y="99" width="874" height="876" filterUnits="userSpaceOnUse" color-interpolation-filters="sRGB">
<feFlood flood-opacity="0" result="BackgroundImageFix"/>
<feBlend mode="normal" in="SourceGraphic" in2="BackgroundImageFix" result="shape"/>
<feGaussianBlur stdDeviation="91.5" result="effect1_foregroundBlur_785_219"/>
</filter>
<linearGradient id="paint0_linear_785_219" x1="-175.5" y1="647" x2="118.789" y2="395.611" gradientUnits="userSpaceOnUse">
<stop stop-color="white"/>
<stop offset="1" stop-color="white" stop-opacity="0"/>
</linearGradient>
<linearGradient id="paint1_linear_785_219" x1="258.237" y1="468.98" x2="251.49" y2="485.94" gradientUnits="userSpaceOnUse">
<stop stop-color="white"/>
<stop offset="1" stop-color="white" stop-opacity="0"/>
</linearGradient>
<linearGradient id="paint2_linear_785_219" x1="8.61835" y1="519.359" x2="1.86708" y2="536.331" gradientUnits="userSpaceOnUse">
<stop stop-color="white"/>
<stop offset="1" stop-color="white" stop-opacity="0"/>
</linearGradient>
<linearGradient id="paint3_linear_785_219" x1="118.038" y1="582.23" x2="108.295" y2="661.569" gradientUnits="userSpaceOnUse">
<stop stop-color="white"/>
<stop offset="1" stop-color="white" stop-opacity="0"/>
</linearGradient>
<linearGradient id="paint4_linear_785_219" x1="27.0085" y1="580.841" x2="20.2572" y2="597.813" gradientUnits="userSpaceOnUse">
<stop stop-color="white"/>
<stop offset="1" stop-color="white" stop-opacity="0"/>
</linearGradient>
<linearGradient id="paint5_linear_785_219" x1="234.874" y1="405.615" x2="141.974" y2="738.451" gradientUnits="userSpaceOnUse">
<stop stop-color="white"/>
<stop offset="1" stop-color="white" stop-opacity="0"/>
</linearGradient>
<linearGradient id="paint6_linear_785_219" x1="43.2988" y1="424.477" x2="36.5475" y2="441.448" gradientUnits="userSpaceOnUse">
<stop stop-color="white"/>
<stop offset="1" stop-color="white" stop-opacity="0"/>
</linearGradient>
<linearGradient id="paint7_linear_785_219" x1="141.557" y1="429.839" x2="73.8033" y2="569.853" gradientUnits="userSpaceOnUse">
<stop stop-color="white"/>
<stop offset="1" stop-color="white" stop-opacity="0"/>
</linearGradient>
<linearGradient id="paint8_linear_785_219" x1="98.7602" y1="435.189" x2="92.0133" y2="452.149" gradientUnits="userSpaceOnUse">
<stop stop-color="white"/>
<stop offset="1" stop-color="white" stop-opacity="0"/>
</linearGradient>
<linearGradient id="paint9_linear_785_219" x1="141.417" y1="428.163" x2="135.951" y2="424.897" gradientUnits="userSpaceOnUse">
<stop stop-color="white"/>
<stop offset="1" stop-color="white" stop-opacity="0"/>
</linearGradient>
<linearGradient id="paint10_linear_785_219" x1="135.068" y1="435.601" x2="131.022" y2="445.772" gradientUnits="userSpaceOnUse">
<stop stop-color="white"/>
<stop offset="1" stop-color="white" stop-opacity="0"/>
</linearGradient>
<linearGradient id="paint11_linear_785_219" x1="147.322" y1="423.347" x2="143.276" y2="433.519" gradientUnits="userSpaceOnUse">
<stop stop-color="white"/>
<stop offset="1" stop-color="white" stop-opacity="0"/>
</linearGradient>
<linearGradient id="paint12_linear_785_219" x1="157.213" y1="428.096" x2="151.747" y2="424.829" gradientUnits="userSpaceOnUse">
<stop stop-color="white"/>
<stop offset="1" stop-color="white" stop-opacity="0"/>
</linearGradient>
<linearGradient id="paint13_linear_785_219" x1="150.826" y1="435.601" x2="146.78" y2="445.772" gradientUnits="userSpaceOnUse">
<stop stop-color="white"/>
<stop offset="1" stop-color="white" stop-opacity="0"/>
</linearGradient>
<linearGradient id="paint14_linear_785_219" x1="163.097" y1="423.347" x2="159.051" y2="433.519" gradientUnits="userSpaceOnUse">
<stop stop-color="white"/>
<stop offset="1" stop-color="white" stop-opacity="0"/>
</linearGradient>
<linearGradient id="paint15_linear_785_219" x1="172.992" y1="428.099" x2="167.526" y2="424.833" gradientUnits="userSpaceOnUse">
<stop stop-color="white"/>
<stop offset="1" stop-color="white" stop-opacity="0"/>
</linearGradient>
<linearGradient id="paint16_linear_785_219" x1="166.601" y1="435.601" x2="162.555" y2="445.772" gradientUnits="userSpaceOnUse">
<stop stop-color="white"/>
<stop offset="1" stop-color="white" stop-opacity="0"/>
</linearGradient>
<linearGradient id="paint17_linear_785_219" x1="178.873" y1="423.347" x2="174.826" y2="433.519" gradientUnits="userSpaceOnUse">
<stop stop-color="white"/>
<stop offset="1" stop-color="white" stop-opacity="0"/>
</linearGradient>
<linearGradient id="paint18_linear_785_219" x1="188.741" y1="428.09" x2="183.275" y2="424.824" gradientUnits="userSpaceOnUse">
<stop stop-color="white"/>
<stop offset="1" stop-color="white" stop-opacity="0"/>
</linearGradient>
<linearGradient id="paint19_linear_785_219" x1="182.376" y1="435.601" x2="178.33" y2="445.772" gradientUnits="userSpaceOnUse">
<stop stop-color="white"/>
<stop offset="1" stop-color="white" stop-opacity="0"/>
</linearGradient>
<linearGradient id="paint20_linear_785_219" x1="194.647" y1="423.347" x2="190.601" y2="433.519" gradientUnits="userSpaceOnUse">
<stop stop-color="white"/>
<stop offset="1" stop-color="white" stop-opacity="0"/>
</linearGradient>
<linearGradient id="paint21_linear_785_219" x1="204.52" y1="428.094" x2="199.053" y2="424.828" gradientUnits="userSpaceOnUse">
<stop stop-color="white"/>
<stop offset="1" stop-color="white" stop-opacity="0"/>
</linearGradient>
<linearGradient id="paint22_linear_785_219" x1="198.151" y1="435.601" x2="194.105" y2="445.772" gradientUnits="userSpaceOnUse">
<stop stop-color="white"/>
<stop offset="1" stop-color="white" stop-opacity="0"/>
</linearGradient>
<linearGradient id="paint23_linear_785_219" x1="210.423" y1="423.347" x2="206.376" y2="433.519" gradientUnits="userSpaceOnUse">
<stop stop-color="white"/>
<stop offset="1" stop-color="white" stop-opacity="0"/>
</linearGradient>
<linearGradient id="paint24_linear_785_219" x1="220.297" y1="428.098" x2="214.831" y2="424.831" gradientUnits="userSpaceOnUse">
<stop stop-color="white"/>
<stop offset="1" stop-color="white" stop-opacity="0"/>
</linearGradient>
<linearGradient id="paint25_linear_785_219" x1="213.926" y1="435.601" x2="209.879" y2="445.772" gradientUnits="userSpaceOnUse">
<stop stop-color="white"/>
<stop offset="1" stop-color="white" stop-opacity="0"/>
</linearGradient>
<linearGradient id="paint26_linear_785_219" x1="226.18" y1="423.347" x2="222.133" y2="433.519" gradientUnits="userSpaceOnUse">
<stop stop-color="white"/>
<stop offset="1" stop-color="white" stop-opacity="0"/>
</linearGradient>
<linearGradient id="paint27_linear_785_219" x1="236.059" y1="428.172" x2="230.593" y2="424.906" gradientUnits="userSpaceOnUse">
<stop stop-color="white"/>
<stop offset="1" stop-color="white" stop-opacity="0"/>
</linearGradient>
<linearGradient id="paint28_linear_785_219" x1="229.684" y1="435.601" x2="225.637" y2="445.772" gradientUnits="userSpaceOnUse">
<stop stop-color="white"/>
<stop offset="1" stop-color="white" stop-opacity="0"/>
</linearGradient>
<linearGradient id="paint29_linear_785_219" x1="241.955" y1="423.347" x2="237.909" y2="433.519" gradientUnits="userSpaceOnUse">
<stop stop-color="white"/>
<stop offset="1" stop-color="white" stop-opacity="0"/>
</linearGradient>
<linearGradient id="paint30_linear_785_219" x1="251.856" y1="428.105" x2="246.39" y2="424.838" gradientUnits="userSpaceOnUse">
<stop stop-color="white"/>
<stop offset="1" stop-color="white" stop-opacity="0"/>
</linearGradient>
<linearGradient id="paint31_linear_785_219" x1="245.459" y1="435.601" x2="241.413" y2="445.772" gradientUnits="userSpaceOnUse">
<stop stop-color="white"/>
<stop offset="1" stop-color="white" stop-opacity="0"/>
</linearGradient>
<linearGradient id="paint32_linear_785_219" x1="257.73" y1="423.347" x2="253.684" y2="433.519" gradientUnits="userSpaceOnUse">
<stop stop-color="white"/>
<stop offset="1" stop-color="white" stop-opacity="0"/>
</linearGradient>
<linearGradient id="paint33_linear_785_219" x1="-62.0002" y1="41" x2="232.9" y2="175.08" gradientUnits="userSpaceOnUse">
<stop stop-color="white"/>
<stop offset="1" stop-color="white" stop-opacity="0"/>
</linearGradient>
<linearGradient id="paint34_linear_785_219" x1="258.237" y1="337.941" x2="251.49" y2="354.901" gradientUnits="userSpaceOnUse">
<stop stop-color="white"/>
<stop offset="1" stop-color="white" stop-opacity="0"/>
</linearGradient>
<linearGradient id="paint35_linear_785_219" x1="8.6186" y1="287.551" x2="1.86728" y2="304.522" gradientUnits="userSpaceOnUse">
<stop stop-color="white"/>
<stop offset="1" stop-color="white" stop-opacity="0"/>
</linearGradient>
<linearGradient id="paint36_linear_785_219" x1="118.038" y1="174.37" x2="108.295" y2="253.709" gradientUnits="userSpaceOnUse">
<stop stop-color="white"/>
<stop offset="1" stop-color="white" stop-opacity="0"/>
</linearGradient>
<linearGradient id="paint37_linear_785_219" x1="27.0087" y1="226.069" x2="20.2574" y2="243.04" gradientUnits="userSpaceOnUse">
<stop stop-color="white"/>
<stop offset="1" stop-color="white" stop-opacity="0"/>
</linearGradient>
<linearGradient id="paint38_linear_785_219" x1="234.874" y1="121.057" x2="141.974" y2="453.893" gradientUnits="userSpaceOnUse">
<stop stop-color="white"/>
<stop offset="1" stop-color="white" stop-opacity="0"/>
</linearGradient>
<linearGradient id="paint39_linear_785_219" x1="43.2989" y1="382.434" x2="36.5476" y2="399.405" gradientUnits="userSpaceOnUse">
<stop stop-color="white"/>
<stop offset="1" stop-color="white" stop-opacity="0"/>
</linearGradient>
<linearGradient id="paint40_linear_785_219" x1="141.557" y1="250.514" x2="73.8032" y2="390.528" gradientUnits="userSpaceOnUse">
<stop stop-color="white"/>
<stop offset="1" stop-color="white" stop-opacity="0"/>
</linearGradient>
<linearGradient id="paint41_linear_785_219" x1="98.76" y1="371.732" x2="92.0132" y2="388.692" gradientUnits="userSpaceOnUse">
<stop stop-color="white"/>
<stop offset="1" stop-color="white" stop-opacity="0"/>
</linearGradient>
<linearGradient id="paint42_linear_785_219" x1="146.891" y1="401.719" x2="144.973" y2="403.49" gradientUnits="userSpaceOnUse">
<stop stop-color="white"/>
<stop offset="1" stop-color="white" stop-opacity="0"/>
</linearGradient>
<linearGradient id="paint43_linear_785_219" x1="135.068" y1="377.818" x2="131.022" y2="387.989" gradientUnits="userSpaceOnUse">
<stop stop-color="white"/>
<stop offset="1" stop-color="white" stop-opacity="0"/>
</linearGradient>
<linearGradient id="paint44_linear_785_219" x1="147.34" y1="390.071" x2="143.294" y2="400.243" gradientUnits="userSpaceOnUse">
<stop stop-color="white"/>
<stop offset="1" stop-color="white" stop-opacity="0"/>
</linearGradient>
<linearGradient id="paint45_linear_785_219" x1="162.669" y1="401.723" x2="160.751" y2="403.494" gradientUnits="userSpaceOnUse">
<stop stop-color="white"/>
<stop offset="1" stop-color="white" stop-opacity="0"/>
</linearGradient>
<linearGradient id="paint46_linear_785_219" x1="150.843" y1="377.818" x2="146.797" y2="387.989" gradientUnits="userSpaceOnUse">
<stop stop-color="white"/>
<stop offset="1" stop-color="white" stop-opacity="0"/>
</linearGradient>
<linearGradient id="paint47_linear_785_219" x1="163.097" y1="390.071" x2="159.051" y2="400.243" gradientUnits="userSpaceOnUse">
<stop stop-color="white"/>
<stop offset="1" stop-color="white" stop-opacity="0"/>
</linearGradient>
<linearGradient id="paint48_linear_785_219" x1="178.448" y1="401.727" x2="176.53" y2="403.497" gradientUnits="userSpaceOnUse">
<stop stop-color="white"/>
<stop offset="1" stop-color="white" stop-opacity="0"/>
</linearGradient>
<linearGradient id="paint49_linear_785_219" x1="166.601" y1="377.818" x2="162.555" y2="387.989" gradientUnits="userSpaceOnUse">
<stop stop-color="white"/>
<stop offset="1" stop-color="white" stop-opacity="0"/>
</linearGradient>
<linearGradient id="paint50_linear_785_219" x1="178.873" y1="390.071" x2="174.826" y2="400.243" gradientUnits="userSpaceOnUse">
<stop stop-color="white"/>
<stop offset="1" stop-color="white" stop-opacity="0"/>
</linearGradient>
<linearGradient id="paint51_linear_785_219" x1="194.191" y1="401.801" x2="192.273" y2="403.572" gradientUnits="userSpaceOnUse">
<stop stop-color="white"/>
<stop offset="1" stop-color="white" stop-opacity="0"/>
</linearGradient>
<linearGradient id="paint52_linear_785_219" x1="182.376" y1="377.818" x2="178.33" y2="387.989" gradientUnits="userSpaceOnUse">
<stop stop-color="white"/>
<stop offset="1" stop-color="white" stop-opacity="0"/>
</linearGradient>
<linearGradient id="paint53_linear_785_219" x1="194.647" y1="390.071" x2="190.601" y2="400.243" gradientUnits="userSpaceOnUse">
<stop stop-color="white"/>
<stop offset="1" stop-color="white" stop-opacity="0"/>
</linearGradient>
<linearGradient id="paint54_linear_785_219" x1="209.975" y1="401.721" x2="208.058" y2="403.492" gradientUnits="userSpaceOnUse">
<stop stop-color="white"/>
<stop offset="1" stop-color="white" stop-opacity="0"/>
</linearGradient>
<linearGradient id="paint55_linear_785_219" x1="198.151" y1="377.818" x2="194.105" y2="387.989" gradientUnits="userSpaceOnUse">
<stop stop-color="white"/>
<stop offset="1" stop-color="white" stop-opacity="0"/>
</linearGradient>
<linearGradient id="paint56_linear_785_219" x1="210.423" y1="390.071" x2="206.376" y2="400.243" gradientUnits="userSpaceOnUse">
<stop stop-color="white"/>
<stop offset="1" stop-color="white" stop-opacity="0"/>
</linearGradient>
<linearGradient id="paint57_linear_785_219" x1="225.754" y1="401.725" x2="223.836" y2="403.495" gradientUnits="userSpaceOnUse">
<stop stop-color="white"/>
<stop offset="1" stop-color="white" stop-opacity="0"/>
</linearGradient>
<linearGradient id="paint58_linear_785_219" x1="213.927" y1="377.818" x2="209.88" y2="387.989" gradientUnits="userSpaceOnUse">
<stop stop-color="white"/>
<stop offset="1" stop-color="white" stop-opacity="0"/>
</linearGradient>
<linearGradient id="paint59_linear_785_219" x1="226.198" y1="390.071" x2="222.152" y2="400.243" gradientUnits="userSpaceOnUse">
<stop stop-color="white"/>
<stop offset="1" stop-color="white" stop-opacity="0"/>
</linearGradient>
<linearGradient id="paint60_linear_785_219" x1="241.497" y1="401.799" x2="239.579" y2="403.57" gradientUnits="userSpaceOnUse">
<stop stop-color="white"/>
<stop offset="1" stop-color="white" stop-opacity="0"/>
</linearGradient>
<linearGradient id="paint61_linear_785_219" x1="229.701" y1="377.818" x2="225.655" y2="387.989" gradientUnits="userSpaceOnUse">
<stop stop-color="white"/>
<stop offset="1" stop-color="white" stop-opacity="0"/>
</linearGradient>
<linearGradient id="paint62_linear_785_219" x1="241.955" y1="390.071" x2="237.909" y2="400.243" gradientUnits="userSpaceOnUse">
<stop stop-color="white"/>
<stop offset="1" stop-color="white" stop-opacity="0"/>
</linearGradient>
<linearGradient id="paint63_linear_785_219" x1="257.293" y1="401.732" x2="255.376" y2="403.503" gradientUnits="userSpaceOnUse">
<stop stop-color="white"/>
<stop offset="1" stop-color="white" stop-opacity="0"/>
</linearGradient>
<linearGradient id="paint64_linear_785_219" x1="245.459" y1="377.818" x2="241.413" y2="387.989" gradientUnits="userSpaceOnUse">
<stop stop-color="white"/>
<stop offset="1" stop-color="white" stop-opacity="0"/>
</linearGradient>
<linearGradient id="paint65_linear_785_219" x1="257.73" y1="390.071" x2="253.684" y2="400.243" gradientUnits="userSpaceOnUse">
<stop stop-color="white"/>
<stop offset="1" stop-color="white" stop-opacity="0"/>
</linearGradient>
<radialGradient id="paint66_radial_785_219" cx="0" cy="0" r="1" gradientUnits="userSpaceOnUse" gradientTransform="translate(119 477) rotate(180) scale(59)">
<stop offset="0.06" stop-color="#11FF37"/>
<stop offset="0.1" stop-color="#EAEAEA"/>
<stop offset="0.2" stop-color="#B4B4B4"/>
<stop offset="0.31" stop-color="#848484"/>
<stop offset="0.41" stop-color="#5B5B5B"/>
<stop offset="0.52" stop-color="#3A3A3A"/>
<stop offset="0.63" stop-color="#202020"/>
<stop offset="0.75" stop-color="#0E0E0E"/>
<stop offset="0.87" stop-color="#030303"/>
<stop offset="1"/>
</radialGradient>
</defs>
</svg>
